<?xml version="1.0" encoding="UTF-8"?>
<!--Generator: Apple Native CoreSVG 232.5-->
<!DOCTYPE svg
PUBLIC "-//W3C//DTD SVG 1.1//EN"
       "http://www.w3.org/Graphics/SVG/1.1/DTD/svg11.dtd">
<svg version="1.1" xmlns="http://www.w3.org/2000/svg" xmlns:xlink="http://www.w3.org/1999/xlink" width="3300" height="2200">
 <!--glyph: "", point size: 100.0, font version: "19.2d2e1", template writer version: "128"-->
 <style>.monochrome-0 {-sfsymbols-motion-group:0}

.multicolor-0:tintColor {-sfsymbols-motion-group:0}

.hierarchical-0:primary {-sfsymbols-motion-group:0}

.SFSymbolsPreviewWireframe {fill:none;opacity:1.0;stroke:black;stroke-width:0.5}
</style>
 <g id="Notes">
  <rect height="2200" id="artboard" style="fill:white;opacity:1" width="3300" x="0" y="0"/>
  <line style="fill:none;stroke:black;opacity:1;stroke-width:0.5;" x1="263" x2="3036" y1="292" y2="292"/>
  <text style="stroke:none;fill:black;font-family:sans-serif;font-size:13;font-weight:bold;" transform="matrix(1 0 0 1 263 322)">Weight/Scale Variations</text>
  <text style="stroke:none;fill:black;font-family:sans-serif;font-size:13;text-anchor:middle;" transform="matrix(1 0 0 1 559.711 322)">Ultralight</text>
  <text style="stroke:none;fill:black;font-family:sans-serif;font-size:13;text-anchor:middle;" transform="matrix(1 0 0 1 856.422 322)">Thin</text>
  <text style="stroke:none;fill:black;font-family:sans-serif;font-size:13;text-anchor:middle;" transform="matrix(1 0 0 1 1153.13 322)">Light</text>
  <text style="stroke:none;fill:black;font-family:sans-serif;font-size:13;text-anchor:middle;" transform="matrix(1 0 0 1 1449.84 322)">Regular</text>
  <text style="stroke:none;fill:black;font-family:sans-serif;font-size:13;text-anchor:middle;" transform="matrix(1 0 0 1 1746.56 322)">Medium</text>
  <text style="stroke:none;fill:black;font-family:sans-serif;font-size:13;text-anchor:middle;" transform="matrix(1 0 0 1 2043.27 322)">Semibold</text>
  <text style="stroke:none;fill:black;font-family:sans-serif;font-size:13;text-anchor:middle;" transform="matrix(1 0 0 1 2339.98 322)">Bold</text>
  <text style="stroke:none;fill:black;font-family:sans-serif;font-size:13;text-anchor:middle;" transform="matrix(1 0 0 1 2636.69 322)">Heavy</text>
  <text style="stroke:none;fill:black;font-family:sans-serif;font-size:13;text-anchor:middle;" transform="matrix(1 0 0 1 2933.4 322)">Black</text>
  <line style="fill:none;stroke:black;opacity:1;stroke-width:0.5;" x1="263" x2="3036" y1="1903" y2="1903"/>
  <g transform="matrix(0.2 0 0 0.2 263 1933)">
   <path d="m46.2402 4.15039c21.5332 0 39.4531-17.8711 39.4531-39.4043s-17.9688-39.4043-39.502-39.4043c-21.4844 0-39.3555 17.8711-39.3555 39.4043s17.9199 39.4043 39.4043 39.4043Zm0-7.42188c-17.7246 0-31.8848-14.209-31.8848-31.9824s14.1113-31.9824 31.8359-31.9824c17.7734 0 32.0312 14.209 32.0312 31.9824s-14.209 31.9824-31.9824 31.9824Zm-17.9688-31.9824c0 2.14844 1.51367 3.61328 3.75977 3.61328h10.498v10.5957c0 2.19727 1.46484 3.71094 3.61328 3.71094 2.24609 0 3.71094-1.51367 3.71094-3.71094v-10.5957h10.5957c2.19727 0 3.71094-1.46484 3.71094-3.61328 0-2.19727-1.51367-3.71094-3.71094-3.71094h-10.5957v-10.5469c0-2.24609-1.46484-3.75977-3.71094-3.75977-2.14844 0-3.61328 1.51367-3.61328 3.75977v10.5469h-10.498c-2.24609 0-3.75977 1.51367-3.75977 3.71094Z"/>
  </g>
  <g transform="matrix(0.2 0 0 0.2 281.506 1933)">
   <path d="m58.5449 14.5508c27.2461 0 49.8047-22.6074 49.8047-49.8047 0-27.2461-22.6074-49.8047-49.8535-49.8047-27.1973 0-49.7559 22.5586-49.7559 49.8047 0 27.1973 22.6074 49.8047 49.8047 49.8047Zm0-8.30078c-23.0469 0-41.4551-18.457-41.4551-41.5039s18.3594-41.5039 41.4062-41.5039 41.5527 18.457 41.5527 41.5039-18.457 41.5039-41.5039 41.5039Zm-22.6562-41.5039c0 2.39258 1.66016 4.00391 4.15039 4.00391h14.3555v14.4043c0 2.44141 1.66016 4.15039 4.05273 4.15039 2.44141 0 4.15039-1.66016 4.15039-4.15039v-14.4043h14.4043c2.44141 0 4.15039-1.61133 4.15039-4.00391 0-2.44141-1.70898-4.15039-4.15039-4.15039h-14.4043v-14.3555c0-2.49023-1.70898-4.19922-4.15039-4.19922-2.39258 0-4.05273 1.70898-4.05273 4.19922v14.3555h-14.3555c-2.49023 0-4.15039 1.70898-4.15039 4.15039Z"/>
  </g>
  <g transform="matrix(0.2 0 0 0.2 304.924 1933)">
   <path d="m74.8535 28.3203c34.8145 0 63.623-28.8086 63.623-63.5742 0-34.8145-28.8574-63.623-63.6719-63.623-34.7656 0-63.5254 28.8086-63.5254 63.623 0 34.7656 28.8086 63.5742 63.5742 63.5742Zm0-9.08203c-30.1758 0-54.4434-24.3164-54.4434-54.4922 0-30.2246 24.2188-54.4922 54.3945-54.4922 30.2246 0 54.541 24.2676 54.541 54.4922 0 30.1758-24.2676 54.4922-54.4922 54.4922Zm-28.8574-54.4922c0 2.58789 1.85547 4.39453 4.58984 4.39453h19.7266v19.7754c0 2.68555 1.85547 4.58984 4.44336 4.58984 2.68555 0 4.54102-1.85547 4.54102-4.58984v-19.7754h19.7754c2.68555 0 4.58984-1.80664 4.58984-4.39453 0-2.73438-1.85547-4.58984-4.58984-4.58984h-19.7754v-19.7266c0-2.73438-1.85547-4.63867-4.54102-4.63867-2.58789 0-4.44336 1.9043-4.44336 4.63867v19.7266h-19.7266c-2.73438 0-4.58984 1.85547-4.58984 4.58984Z"/>
  </g>
  <text style="stroke:none;fill:black;font-family:sans-serif;font-size:13;font-weight:bold;" transform="matrix(1 0 0 1 263 1953)">Design Variations</text>
  <text style="stroke:none;fill:black;font-family:sans-serif;font-size:13;" transform="matrix(1 0 0 1 263 1971)">Symbols are supported in up to nine weights and three scales.</text>
  <text style="stroke:none;fill:black;font-family:sans-serif;font-size:13;" transform="matrix(1 0 0 1 263 1989)">For optimal layout with text and other symbols, vertically align</text>
  <text style="stroke:none;fill:black;font-family:sans-serif;font-size:13;" transform="matrix(1 0 0 1 263 2007)">symbols with the adjacent text.</text>
  <line style="fill:none;stroke:#00AEEF;stroke-width:0.5;opacity:1.0;" x1="776" x2="776" y1="1919" y2="1933"/>
  <g transform="matrix(0.2 0 0 0.2 776 1933)">
   <path d="m16.5527 0.78125c2.58789 0 3.85742-0.976562 4.78516-3.71094l6.29883-17.2363h28.8086l6.29883 17.2363c0.927734 2.73438 2.19727 3.71094 4.73633 3.71094 2.58789 0 4.24805-1.5625 4.24805-4.00391 0-0.830078-0.146484-1.61133-0.537109-2.63672l-22.9004-60.9863c-1.12305-2.97852-3.125-4.49219-6.25-4.49219-3.02734 0-5.07812 1.46484-6.15234 4.44336l-22.9004 61.084c-0.390625 1.02539-0.537109 1.80664-0.537109 2.63672 0 2.44141 1.5625 3.95508 4.10156 3.95508Zm13.4766-28.3691 11.8652-32.8613h0.244141l11.8652 32.8613Z"/>
  </g>
  <line style="fill:none;stroke:#00AEEF;stroke-width:0.5;opacity:1.0;" x1="792.836" x2="792.836" y1="1919" y2="1933"/>
  <text style="stroke:none;fill:black;font-family:sans-serif;font-size:13;font-weight:bold;" transform="matrix(1 0 0 1 776 1953)">Margins</text>
  <text style="stroke:none;fill:black;font-family:sans-serif;font-size:13;" transform="matrix(1 0 0 1 776 1971)">Leading and trailing margins on the left and right side of each symbol</text>
  <text style="stroke:none;fill:black;font-family:sans-serif;font-size:13;" transform="matrix(1 0 0 1 776 1989)">can be adjusted by modifying the x-location of the margin guidelines.</text>
  <text style="stroke:none;fill:black;font-family:sans-serif;font-size:13;" transform="matrix(1 0 0 1 776 2007)">Modifications are automatically applied proportionally to all</text>
  <text style="stroke:none;fill:black;font-family:sans-serif;font-size:13;" transform="matrix(1 0 0 1 776 2025)">scales and weights.</text>
  <g transform="matrix(0.2 0 0 0.2 1289 1933)">
   <path d="m14.209 9.32617 8.49609 8.54492c4.29688 4.3457 9.22852 4.05273 13.8672-1.07422l53.4668-58.9355-4.83398-4.88281-53.0762 58.3984c-1.75781 2.00195-3.41797 2.49023-5.76172 0.146484l-5.85938-5.81055c-2.34375-2.29492-1.80664-4.00391 0.195312-5.81055l57.373-54.0039-4.88281-4.83398-57.959 54.4434c-4.93164 4.58984-5.32227 9.47266-1.02539 13.8184Zm32.0801-90.9668c-2.09961 2.05078-2.24609 4.93164-1.07422 6.88477 1.17188 1.80664 3.4668 2.97852 6.68945 2.14844 7.32422-1.70898 14.9414-2.00195 22.0703 2.68555l-2.92969 7.27539c-1.70898 4.15039-0.830078 7.08008 1.85547 9.81445l11.4746 11.5723c2.44141 2.44141 4.49219 2.53906 7.32422 2.05078l5.32227-0.976562 3.32031 3.36914-0.195312 2.7832c-0.195312 2.49023 0.439453 4.39453 2.88086 6.78711l3.80859 3.71094c2.39258 2.39258 5.46875 2.53906 7.8125 0.195312l14.5508-14.5996c2.34375-2.34375 2.24609-5.32227-0.146484-7.71484l-3.85742-3.80859c-2.39258-2.39258-4.24805-3.17383-6.64062-2.97852l-2.88086 0.244141-3.22266-3.17383 1.2207-5.61523c0.634766-2.83203-0.146484-5.0293-3.07617-7.95898l-10.9863-10.9375c-16.6992-16.6016-38.8672-16.2109-53.3203-1.75781Zm7.4707 1.85547c12.1582-8.88672 28.6133-7.37305 39.7461 3.75977l12.1582 12.0605c1.17188 1.17188 1.36719 2.09961 1.02539 3.80859l-1.61133 7.42188 7.51953 7.42188 4.93164-0.292969c1.26953-0.0488281 1.66016 0.0488281 2.63672 1.02539l2.88086 2.88086-12.207 12.207-2.88086-2.88086c-0.976562-0.976562-1.12305-1.36719-1.07422-2.68555l0.341797-4.88281-7.4707-7.42188-7.61719 1.26953c-1.61133 0.341797-2.34375 0.195312-3.56445-0.976562l-10.0098-10.0098c-1.26953-1.17188-1.41602-2.00195-0.634766-3.85742l4.39453-10.4492c-7.8125-7.27539-17.9688-10.4004-28.125-7.42188-0.78125 0.195312-1.07422-0.439453-0.439453-0.976562Z"/>
  </g>
  <text style="stroke:none;fill:black;font-family:sans-serif;font-size:13;font-weight:bold;" transform="matrix(1 0 0 1 1289 1953)">Exporting</text>
  <text style="stroke:none;fill:black;font-family:sans-serif;font-size:13;" transform="matrix(1 0 0 1 1289 1971)">Symbols should be outlined when exporting to ensure the</text>
  <text style="stroke:none;fill:black;font-family:sans-serif;font-size:13;" transform="matrix(1 0 0 1 1289 1989)">design is preserved when submitting to Xcode.</text>
  <text id="template-version" style="stroke:none;fill:black;font-family:sans-serif;font-size:13;text-anchor:end;" transform="matrix(1 0 0 1 3036 1933)">Template v.5.0</text>
  <text style="stroke:none;fill:black;font-family:sans-serif;font-size:13;text-anchor:end;" transform="matrix(1 0 0 1 3036 1951)">Requires Xcode 15 or greater</text>
  <text id="descriptive-name" style="stroke:none;fill:black;font-family:sans-serif;font-size:13;text-anchor:end;" transform="matrix(1 0 0 1 3036 1969)">Generated from Tall</text>
  <text style="stroke:none;fill:black;font-family:sans-serif;font-size:13;text-anchor:end;" transform="matrix(1 0 0 1 3036 1987)">Typeset at 100.0 points</text>
  <text style="stroke:none;fill:black;font-family:sans-serif;font-size:13;" transform="matrix(1 0 0 1 263 726)">Small</text>
  <text style="stroke:none;fill:black;font-family:sans-serif;font-size:13;" transform="matrix(1 0 0 1 263 1156)">Medium</text>
  <text style="stroke:none;fill:black;font-family:sans-serif;font-size:13;" transform="matrix(1 0 0 1 263 1586)">Large</text>
 </g>
 <g id="Guides">
  <g id="H-reference" style="fill:#27AAE1;stroke:none;" transform="matrix(1 0 0 1 339 696)">
   <path d="M0.993654 0L3.63775 0L29.3281-67.1323L30.0303-67.1323L30.0303-70.459L28.1226-70.459ZM11.6885-24.4799L46.9815-24.4799L46.2315-26.7285L12.4385-26.7285ZM55.1196 0L57.7637 0L30.6382-70.459L29.4326-70.459L29.4326-67.1323Z"/>
  </g>
  <line id="Baseline-S" style="fill:none;stroke:#27AAE1;opacity:1;stroke-width:0.5;" x1="263" x2="3036" y1="696" y2="696"/>
  <line id="Capline-S" style="fill:none;stroke:#27AAE1;opacity:1;stroke-width:0.5;" x1="263" x2="3036" y1="625.541" y2="625.541"/>
  <g id="H-reference" style="fill:#27AAE1;stroke:none;" transform="matrix(1 0 0 1 339 1126)">
   <path d="M0.993654 0L3.63775 0L29.3281-67.1323L30.0303-67.1323L30.0303-70.459L28.1226-70.459ZM11.6885-24.4799L46.9815-24.4799L46.2315-26.7285L12.4385-26.7285ZM55.1196 0L57.7637 0L30.6382-70.459L29.4326-70.459L29.4326-67.1323Z"/>
  </g>
  <line id="Baseline-M" style="fill:none;stroke:#27AAE1;opacity:1;stroke-width:0.5;" x1="263" x2="3036" y1="1126" y2="1126"/>
  <line id="Capline-M" style="fill:none;stroke:#27AAE1;opacity:1;stroke-width:0.5;" x1="263" x2="3036" y1="1055.54" y2="1055.54"/>
  <g id="H-reference" style="fill:#27AAE1;stroke:none;" transform="matrix(1 0 0 1 339 1556)">
   <path d="M0.993654 0L3.63775 0L29.3281-67.1323L30.0303-67.1323L30.0303-70.459L28.1226-70.459ZM11.6885-24.4799L46.9815-24.4799L46.2315-26.7285L12.4385-26.7285ZM55.1196 0L57.7637 0L30.6382-70.459L29.4326-70.459L29.4326-67.1323Z"/>
  </g>
  <line id="Baseline-L" style="fill:none;stroke:#27AAE1;opacity:1;stroke-width:0.5;" x1="263" x2="3036" y1="1556" y2="1556"/>
  <line id="Capline-L" style="fill:none;stroke:#27AAE1;opacity:1;stroke-width:0.5;" x1="263" x2="3036" y1="1485.54" y2="1485.54"/>
  <line id="left-margin-Ultralight-S" style="fill:none;stroke:#00AEEF;stroke-width:0.5;opacity:1.0;" x1="515.649" x2="515.649" y1="600.785" y2="720.121"/>
  <line id="right-margin-Ultralight-S" style="fill:none;stroke:#00AEEF;stroke-width:0.5;opacity:1.0;" x1="603.773" x2="603.773" y1="600.785" y2="720.121"/>
  <line id="left-margin-Regular-S" style="fill:none;stroke:#00AEEF;stroke-width:0.5;opacity:1.0;" x1="1403.58" x2="1403.58" y1="600.785" y2="720.121"/>
  <line id="right-margin-Regular-S" style="fill:none;stroke:#00AEEF;stroke-width:0.5;opacity:1.0;" x1="1496.11" x2="1496.11" y1="600.785" y2="720.121"/>
  <line id="left-margin-Black-S" style="fill:none;stroke:#00AEEF;stroke-width:0.5;opacity:1.0;" x1="2884.57" x2="2884.57" y1="600.785" y2="720.121"/>
  <line id="right-margin-Black-S" style="fill:none;stroke:#00AEEF;stroke-width:0.5;opacity:1.0;" x1="2982.23" x2="2982.23" y1="600.785" y2="720.121"/>
 </g>
 <g id="Symbols">
  <g id="Black-S" transform="matrix(1 0 0 1 2884.57 696)">
   <path class="monochrome-0 multicolor-0:tintColor hierarchical-0:primary SFSymbolsPreviewWireframe" d="M76.8095-37.2472C75.9744-37.8611 75.2649-37.9904 74.616-38.2452C74.279-38.3581 73.9679-38.537 73.7008-38.7714C73.4337-39.0058 73.2161-39.2912 73.0605-39.6107C72.4566-40.8946 71.9087-42.2132 71.1968-43.4354C70.6556-44.3646 70.7058-45.1939 71.0149-46.157C71.5404-47.7949 71.5039-48.0163 69.8239-48.084C67.2459-48.1878 66.0005-50.1698 64.3036-51.5312C63.3219-52.3187 62.4534-53.1979 62.4924-54.6075C62.5099-55.2399 62.0913-55.3755 61.6595-55.0921C60.2785-54.1859 59.1907-54.7065 58.1605-55.6944C57.7255-56.1116 57.3331-56.038 56.8465-55.7038C55.4037-54.7128 53.6512-54.3501 52.1517-53.4548C51.6398-53.1491 51.1178-53.5526 50.613-53.6671C50.0426-53.7964 49.6709-53.7298 49.7532-53.0501C49.8851-51.9616 49.2845-51.209 48.5829-50.5456C46.9213-48.9747 45.452-47.2682 44.3461-45.2492C44.0671-44.73 43.6789-44.2775 43.2083-43.9228C42.7377-43.568 42.1957-43.3195 41.6199-43.1942C40.4865-42.921 39.4122-42.4092 38.2321-42.3255C37.758-42.2919 37.6727-41.9939 37.6201-41.6111C37.3981-39.994 37.1565-38.3759 37.2211-36.7394C37.277-35.3239 36.7701-34.31 35.487-33.6034C32.0118-31.6896 30.0798-28.564 28.894-24.9038C28.5812-23.9142 27.9528-23.0545 27.1049-22.4561C25.5504-21.3373 23.9454-20.2885 22.3902-19.1706C21.486-18.5206 20.4878-18.6352 19.5151-18.7571C18.4598-18.8981 17.3942-18.9473 16.3304-18.9041C15.7785-18.8532 15.2237-18.9611 14.7313-19.2153C14.2388-19.4696 13.8294-19.8594 13.5514-20.3387C13.2142-20.8675 12.821-21.2891 12.1632-21.3867C12.0202-21.4017 11.8848-21.4588 11.7743-21.5508C9.84584-23.4664 7.59668-25.0777 6.10247-27.4057C5.27843-28.6896 5.29897-30.1088 5.71152-31.5164C6.28151-33.4613 6.39963-35.3466 5.27104-37.1526C5.05734-37.4946 5.1854-37.8142 5.40454-38.1372C5.70223-38.5761 5.92846-39.0629 6.21572-39.5095C6.68129-40.2334 6.72928-40.8669 5.98432-41.4628C5.55368-41.8074 5.53062-42.3111 5.65986-42.8326C6.09513-44.5889 6.50785-46.3509 6.95184-48.105C7.11971-48.7242 7.40817-49.3043 7.80068-49.8119C8.62716-50.9228 9.48583-52.012 10.2638-53.1561C11.0283-54.2738 12.0749-55.1694 13.2974-55.752C14.0852-56.1412 14.4915-56.7145 14.5846-57.6555C14.8922-60.7648 14.953-63.8864 15.1165-67.0012C15.306-70.613 15.7069-74.2163 15.5857-77.8454C15.5427-79.1304 16.9012-80.2628 18.1601-80.1435C18.8156-80.0814 19.0414-79.625 19.1004-79.0424C19.3075-76.9955 19.4606-74.9415 19.7309-72.903C20.145-69.7795 20.4107-66.641 20.8818-63.4665C21.1147-64.0658 21.4218-64.648 21.5654-65.268C21.8781-66.6193 22.7439-67.5036 23.8533-68.2088C25.2-69.0649 26.5915-69.855 27.9005-70.7644C29.469-71.8541 31.1729-71.9995 32.9865-71.7757C35.2283-71.4991 35.2324-71.5148 36.1678-73.4948C36.38-73.9439 36.601-74.3921 36.769-74.8583C37.2705-76.2499 38.1797-77.1941 39.6074-77.6589C41.5865-78.3033 43.2968-79.4791 45.0344-80.573C45.8028-81.0567 46.5531-81.3292 47.4308-81.2296C49.5168-80.993 51.6118-81.0263 53.7028-81.0377C54.9399-81.0445 55.8075-80.5528 56.431-79.524C56.8725-78.7956 57.3484-78.0878 57.7827-77.3553C58.1057-76.8105 58.5375-76.6691 59.1321-76.8401C60.0197-77.0953 60.9202-77.3191 61.7345-77.7658C61.9484-77.8931 62.1956-77.9533 62.444-77.9388C62.6925-77.9242 62.9309-77.8355 63.1285-77.6841C64.7397-76.6498 66.3592-75.6286 67.9724-74.5974C68.4005-74.3238 68.8015-73.9668 68.9316-73.4881C69.2229-72.4164 69.954-72.553 70.669-72.8267C71.9601-73.3209 73.2218-73.8922 74.4936-74.4366C76.487-75.2898 78.4569-75.1873 80.254-74.0189C82.1301-72.7991 83.9482-71.4827 85.9972-70.5703C87.0678-70.0936 87.7461-69.3444 88.0306-68.2686C88.8373-65.2182 89.6007-62.1563 90.3604-59.0938C90.5457-58.3469 90.1804-57.6962 89.8202-57.0856C89.4072-56.3403 88.937-55.628 88.414-54.9553C87.8632-54.2859 88.0103-53.8322 88.6315-53.3748C89.066-53.0096 89.5189-52.6669 89.9884-52.3481C90.6114-51.9926 91.0884-51.4279 91.3345-50.7542C91.8521-49.3604 92.334-47.9536 92.7801-46.5338C92.8393-46.3114 92.8538-46.0794 92.8226-45.8513C92.7914-45.6232 92.7152-45.4036 92.5984-45.2052C91.3291-42.7129 90.1093-40.1954 88.854-37.6958C88.6772-37.3437 88.8886-37.1646 89.0567-36.9496C89.909-35.8597 90.701-34.7125 91.6438-33.7069C92.365-32.9376 92.5805-32.1193 92.3303-31.1777C91.8751-29.4641 91.3513-27.7687 90.8508-26.0672C90.7353-25.6743 90.4201-25.4254 90.1465-25.1477C89.0768-24.062 87.9235-23.0515 87.1096-21.7365C86.8089-21.2506 86.3219-21.0342 85.7886-20.915C85.4818-20.8247 85.1651-20.7722 84.8455-20.7587C82.7962-20.8184 81.4621-20.0614 81.2747-17.829C81.2181-17.1554 80.651-16.7709 80.0618-16.608C78.1617-16.0826 76.513-14.7613 74.4244-14.8358C74.0359-14.8497 73.8389-14.611 73.8553-14.2252C73.889-13.4346 73.4972-12.7932 73.1352-12.1433C72.2032-10.4701 70.969-9.3661 68.8582-9.712C67.8598-9.8756 66.8912-9.9187 66.717-8.4398C66.6621-7.973 66.0574-7.5459 65.6557-7.15C64.6959-6.2043 63.8543-4.8914 62.6928-4.4609C61.2609-3.93 61.2313-2.8971 60.8765-1.8696C60.7841-1.6019 60.7261-1.29 60.5494-1.0888C59.2772 0.3586 60.2456 1.6777 60.785 2.9975C61.0286 3.5934 61.9 3.2633 62.2308 3.7603C62.6572 4.4009 63.1038 4.0704 63.6742 4.0196C66.0858 3.8049 68.634 3.0053 70.7072 5.0799C71.1391 5.5121 71.4074 5.4192 71.664 4.9069C72.3344 3.5681 75.1602 3.3143 76.173 4.687C76.7439 5.4609 76.5042 6.4907 76.337 7.3739C76.072 8.7732 74.4102 9.7786 73.0444 9.4222C72.3545 9.2422 71.9245 9.4832 71.3221 9.813C69.7306 10.7208 67.8507 10.9813 66.0723 10.5405C65.0461 10.2817 64.0675 9.8301 63.0735 9.4498C62.7792 9.3372 62.435 9.2383 62.2994 8.9234C61.9707 8.1603 61.6508 8.0443 60.7237 8.2935C59.7504 8.5552 58.6706 7.7934 57.9912 6.9906C57.584 6.5095 57.2058 6.345 56.6484 6.1666C55.5569 5.8172 54.3314 5.4698 54.38 3.9102C54.3916 3.5366 54.203 3.3754 53.8386 3.5491C53.3344 3.7896 52.8431 3.6389 52.3937 3.4486C50.8662 2.7778 49.406 1.9631 48.0329 1.0156C47.6245 0.719 47.3476 0.2752 47.2608-0.222C47.1627-0.7813 47.0286-1.3336 46.8594-1.8756C46.3557-3.2213 46.5368-4.42 47.41-5.5642C47.6677-5.9483 47.851-6.3774 47.9505-6.8292C48.3612-8.336 49.041-9.5863 50.6556-10.107C51.4525-10.364 51.6769-10.9587 51.5858-11.7859C51.5177-12.6327 51.5025-13.483 51.5403-14.3318C51.5407-14.5803 51.6137-14.8233 51.7503-15.0309C52.654-16.2583 53.5791-17.4701 54.5085-18.6783C54.6722-18.9136 54.9025-19.0945 55.1698-19.1978C55.4371-19.3011 55.7292-19.322 56.0086-19.2579C56.2907-19.2238 56.5754-19.215 56.8591-19.2315C58.4988-19.2277 58.499-19.2286 58.6835-20.8129C58.6968-21.0253 58.7213-21.2369 58.7569-21.4467C59.0702-22.831 62.8451-25.5077 64.262-25.3573C65.9312-25.1801 65.7592-25.3105 66.5764-26.7104C67.7892-28.7877 69.7505-30.2629 71.5139-31.8743C71.6888-32.0342 72.0554-32.0185 72.3341-32.023C72.4316-32.0132 72.5301-32.0231 72.6236-32.0522C72.7172-32.0814 72.804-32.1291 72.8787-32.1925C72.9534-32.256 73.0145-32.3338 73.0584-32.4215C73.1023-32.5091 73.1281-32.6047 73.1342-32.7025C73.4907-34.7944 74.482-36.4195 76.8095-37.2472Z"/>
  </g>
  <g id="Regular-S" transform="matrix(1 0 0 1 1403.58 696)">
   <path class="monochrome-0 multicolor-0:tintColor hierarchical-0:primary SFSymbolsPreviewWireframe" d="M73.8095-37.2472C72.9744-37.8611 72.2649-37.9904 71.616-38.2452C71.279-38.3581 70.9679-38.537 70.7008-38.7714C70.4337-39.0058 70.2161-39.2912 70.0605-39.6107C69.4566-40.8946 68.9087-42.2132 68.1968-43.4354C67.6556-44.3646 67.7058-45.1939 68.0149-46.157C68.5404-47.7949 68.5039-48.0163 66.8239-48.084C64.2459-48.1878 63.0005-50.1698 61.3036-51.5312C60.3219-52.3187 59.4534-53.1979 59.4924-54.6075C59.5099-55.2399 59.0913-55.3755 58.6595-55.0921C57.2785-54.1859 56.1907-54.7065 55.1605-55.6944C54.7255-56.1116 54.3331-56.038 53.8465-55.7038C52.4037-54.7128 50.6512-54.3501 49.1517-53.4548C48.6398-53.1491 48.1178-53.5526 47.613-53.6671C47.0426-53.7964 46.6709-53.7298 46.7532-53.0501C46.8851-51.9616 46.2845-51.209 45.5829-50.5456C43.9213-48.9747 42.452-47.2682 41.3461-45.2492C41.0671-44.73 40.6789-44.2775 40.2083-43.9228C39.7377-43.568 39.1957-43.3195 38.6199-43.1942C37.4865-42.921 36.4122-42.4092 35.2321-42.3255C34.758-42.2919 34.6727-41.9939 34.6201-41.6111C34.3981-39.994 34.1565-38.3759 34.2211-36.7394C34.277-35.3239 33.7701-34.31 32.487-33.6034C29.0118-31.6896 27.0798-28.564 25.894-24.9038C25.5812-23.9142 24.9528-23.0545 24.1049-22.4561C22.5504-21.3373 20.9454-20.2885 19.3902-19.1706C18.486-18.5206 17.4878-18.6352 16.5151-18.7571C15.4598-18.8981 14.3942-18.9473 13.3304-18.9041C12.7785-18.8532 12.2237-18.9611 11.7313-19.2153C11.2388-19.4696 10.8294-19.8594 10.5514-20.3387C10.2142-20.8675 9.82103-21.2891 9.16318-21.3867C9.02017-21.4017 8.88482-21.4588 8.77426-21.5508C6.84584-23.4664 4.59668-25.0777 3.10247-27.4057C2.27843-28.6896 2.29897-30.1088 2.71152-31.5164C3.28151-33.4613 3.39963-35.3466 2.27104-37.1526C2.05734-37.4946 2.1854-37.8142 2.40454-38.1372C2.70223-38.5761 2.92846-39.0629 3.21572-39.5095C3.68129-40.2334 3.72928-40.8669 2.98432-41.4628C2.55368-41.8074 2.53062-42.3111 2.65986-42.8326C3.09513-44.5889 3.50785-46.3509 3.95184-48.105C4.11971-48.7242 4.40817-49.3043 4.80068-49.8119C5.62716-50.9228 6.48583-52.012 7.26377-53.1561C8.02833-54.2738 9.07493-55.1694 10.2974-55.752C11.0852-56.1412 11.4915-56.7145 11.5846-57.6555C11.8922-60.7648 11.953-63.8864 12.1165-67.0012C12.306-70.613 12.7069-74.2163 12.5857-77.8454C12.5427-79.1304 13.9012-80.2628 15.1601-80.1435C15.8156-80.0814 16.0414-79.625 16.1004-79.0424C16.3075-76.9955 16.4606-74.9415 16.7309-72.903C17.145-69.7795 17.4107-66.641 17.8818-63.4665C18.1147-64.0658 18.4218-64.648 18.5654-65.268C18.8781-66.6193 19.7439-67.5036 20.8533-68.2088C22.2-69.0649 23.5915-69.855 24.9005-70.7644C26.469-71.8541 28.1729-71.9995 29.9865-71.7757C32.2283-71.4991 32.2324-71.5148 33.1678-73.4948C33.38-73.9439 33.601-74.3921 33.769-74.8583C34.2705-76.2499 35.1797-77.1941 36.6074-77.6589C38.5865-78.3033 40.2968-79.4791 42.0344-80.573C42.8028-81.0567 43.5531-81.3292 44.4308-81.2296C46.5168-80.993 48.6118-81.0263 50.7028-81.0377C51.9399-81.0445 52.8075-80.5528 53.431-79.524C53.8725-78.7956 54.3484-78.0878 54.7827-77.3553C55.1057-76.8105 55.5375-76.6691 56.1321-76.8401C57.0197-77.0953 57.9202-77.3191 58.7345-77.7658C58.9484-77.8931 59.1956-77.9533 59.444-77.9388C59.6925-77.9242 59.9309-77.8355 60.1285-77.6841C61.7397-76.6498 63.3592-75.6286 64.9724-74.5974C65.4005-74.3238 65.8015-73.9668 65.9316-73.4881C66.2229-72.4164 66.954-72.553 67.669-72.8267C68.9601-73.3209 70.2218-73.8922 71.4936-74.4366C73.487-75.2898 75.4569-75.1873 77.254-74.0189C79.1301-72.7991 80.9482-71.4827 82.9972-70.5703C84.0678-70.0936 84.7461-69.3444 85.0306-68.2686C85.8373-65.2182 86.6007-62.1563 87.3604-59.0938C87.5457-58.3469 87.1804-57.6962 86.8202-57.0856C86.4072-56.3403 85.937-55.628 85.414-54.9553C84.8632-54.2859 85.0103-53.8322 85.6315-53.3748C86.066-53.0096 86.5189-52.6669 86.9884-52.3481C87.6114-51.9926 88.0884-51.4279 88.3345-50.7542C88.8521-49.3604 89.334-47.9536 89.7801-46.5338C89.8393-46.3114 89.8538-46.0794 89.8226-45.8513C89.7914-45.6232 89.7152-45.4036 89.5984-45.2052C88.3291-42.7129 87.1093-40.1954 85.854-37.6958C85.6772-37.3437 85.8886-37.1646 86.0567-36.9496C86.909-35.8597 87.701-34.7125 88.6438-33.7069C89.365-32.9376 89.5805-32.1193 89.3303-31.1777C88.8751-29.4641 88.3513-27.7687 87.8508-26.0672C87.7353-25.6743 87.4201-25.4254 87.1465-25.1477C86.0768-24.062 84.9235-23.0515 84.1096-21.7365C83.8089-21.2506 83.3219-21.0342 82.7886-20.915C82.4818-20.8247 82.1651-20.7722 81.8455-20.7587C79.7962-20.8184 78.4621-20.0614 78.2747-17.829C78.2181-17.1554 77.651-16.7709 77.0618-16.608C75.1617-16.0826 73.513-14.7613 71.4244-14.8358C71.0359-14.8497 70.8389-14.611 70.8553-14.2252C70.889-13.4346 70.4972-12.7932 70.1352-12.1433C69.2032-10.4701 67.969-9.3661 65.8582-9.712C64.8598-9.8756 63.8912-9.9187 63.717-8.4398C63.6621-7.973 63.0574-7.5459 62.6557-7.15C61.6959-6.2043 60.8543-4.8914 59.6928-4.4609C58.2609-3.93 58.2313-2.8971 57.8765-1.8696C57.7841-1.6019 57.7261-1.29 57.5494-1.0888C56.2772 0.3586 57.2456 1.6777 57.785 2.9975C58.0286 3.5934 58.9 3.2633 59.2308 3.7603C59.6572 4.4009 60.1038 4.0704 60.6742 4.0196C63.0858 3.8049 65.634 3.0053 67.7072 5.0799C68.1391 5.5121 68.4074 5.4192 68.664 4.9069C69.3344 3.5681 72.1602 3.3143 73.173 4.687C73.7439 5.4609 73.5042 6.4907 73.337 7.3739C73.072 8.7732 71.4102 9.7786 70.0444 9.4222C69.3545 9.2422 68.9245 9.4832 68.3221 9.813C66.7306 10.7208 64.8507 10.9813 63.0723 10.5405C62.0461 10.2817 61.0675 9.8301 60.0735 9.4498C59.7792 9.3372 59.435 9.2383 59.2994 8.9234C58.9707 8.1603 58.6508 8.0443 57.7237 8.2935C56.7504 8.5552 55.6706 7.7934 54.9912 6.9906C54.584 6.5095 54.2058 6.345 53.6484 6.1666C52.5569 5.8172 51.3314 5.4698 51.38 3.9102C51.3916 3.5366 51.203 3.3754 50.8386 3.5491C50.3344 3.7896 49.8431 3.6389 49.3937 3.4486C47.8662 2.7778 46.406 1.9631 45.0329 1.0156C44.6245 0.719 44.3476 0.2752 44.2608-0.222C44.1627-0.7813 44.0286-1.3336 43.8594-1.8756C43.3557-3.2213 43.5368-4.42 44.41-5.5642C44.6677-5.9483 44.851-6.3774 44.9505-6.8292C45.3612-8.336 46.041-9.5863 47.6556-10.107C48.4525-10.364 48.6769-10.9587 48.5858-11.7859C48.5177-12.6327 48.5025-13.483 48.5403-14.3318C48.5407-14.5803 48.6137-14.8233 48.7503-15.0309C49.654-16.2583 50.5791-17.4701 51.5085-18.6783C51.6722-18.9136 51.9025-19.0945 52.1698-19.1978C52.4371-19.3011 52.7292-19.322 53.0086-19.2579C53.2907-19.2238 53.5754-19.215 53.8591-19.2315C55.4988-19.2277 55.499-19.2286 55.6835-20.8129C55.6968-21.0253 55.7213-21.2369 55.7569-21.4467C56.0702-22.831 59.8451-25.5077 61.262-25.3573C62.9312-25.1801 62.7592-25.3105 63.5764-26.7104C64.7892-28.7877 66.7505-30.2629 68.5139-31.8743C68.6888-32.0342 69.0554-32.0185 69.3341-32.023C69.4316-32.0132 69.5301-32.0231 69.6236-32.0522C69.7172-32.0814 69.804-32.1291 69.8787-32.1925C69.9534-32.256 70.0145-32.3338 70.0584-32.4215C70.1023-32.5091 70.1281-32.6047 70.1342-32.7025C70.4907-34.7944 71.482-36.4195 73.8095-37.2472Z"/>
  </g>
  <g id="Ultralight-S" transform="matrix(1 0 0 1 515.649 696)">
   <path class="monochrome-0 multicolor-0:tintColor hierarchical-0:primary SFSymbolsPreviewWireframe" d="M71.8095-37.2472C70.9744-37.8611 70.2649-37.9904 69.616-38.2452C69.279-38.3581 68.9679-38.537 68.7008-38.7714C68.4337-39.0058 68.2161-39.2912 68.0605-39.6107C67.4566-40.8946 66.9087-42.2132 66.1968-43.4354C65.6556-44.3646 65.7058-45.1939 66.0149-46.157C66.5404-47.7949 66.5039-48.0163 64.8239-48.084C62.2459-48.1878 61.0005-50.1698 59.3036-51.5312C58.3219-52.3187 57.4534-53.1979 57.4924-54.6075C57.5099-55.2399 57.0913-55.3755 56.6595-55.0921C55.2785-54.1859 54.1907-54.7065 53.1605-55.6944C52.7255-56.1116 52.3331-56.038 51.8465-55.7038C50.4037-54.7128 48.6512-54.3501 47.1517-53.4548C46.6398-53.1491 46.1178-53.5526 45.613-53.6671C45.0426-53.7964 44.6709-53.7298 44.7532-53.0501C44.8851-51.9616 44.2845-51.209 43.5829-50.5456C41.9213-48.9747 40.452-47.2682 39.3461-45.2492C39.0671-44.73 38.6789-44.2775 38.2083-43.9228C37.7377-43.568 37.1957-43.3195 36.6199-43.1942C35.4865-42.921 34.4122-42.4092 33.2321-42.3255C32.758-42.2919 32.6727-41.9939 32.6201-41.6111C32.3981-39.994 32.1565-38.3759 32.2211-36.7394C32.277-35.3239 31.7701-34.31 30.487-33.6034C27.0118-31.6896 25.0798-28.564 23.894-24.9038C23.5812-23.9142 22.9528-23.0545 22.1049-22.4561C20.5504-21.3373 18.9454-20.2885 17.3902-19.1706C16.486-18.5206 15.4878-18.6352 14.5151-18.7571C13.4598-18.8981 12.3942-18.9473 11.3304-18.9041C10.7785-18.8532 10.2237-18.9611 9.7313-19.2153C9.2388-19.4696 8.8294-19.8594 8.5514-20.3387C8.2142-20.8675 7.82103-21.2891 7.16318-21.3867C7.02017-21.4017 6.88482-21.4588 6.77426-21.5508C4.84584-23.4664 2.59668-25.0777 1.10247-27.4057C0.27843-28.6896 0.29897-30.1088 0.71152-31.5164C1.28151-33.4613 1.39963-35.3466 0.27104-37.1526C0.05734-37.4946 0.1854-37.8142 0.40454-38.1372C0.70223-38.5761 0.92846-39.0629 1.21572-39.5095C1.68129-40.2334 1.72928-40.8669 0.98432-41.4628C0.55368-41.8074 0.53062-42.3111 0.65986-42.8326C1.09513-44.5889 1.50785-46.3509 1.95184-48.105C2.11971-48.7242 2.40817-49.3043 2.80068-49.8119C3.62716-50.9228 4.48583-52.012 5.26377-53.1561C6.02833-54.2738 7.07493-55.1694 8.2974-55.752C9.0852-56.1412 9.4915-56.7145 9.5846-57.6555C9.8922-60.7648 9.953-63.8864 10.1165-67.0012C10.306-70.613 10.7069-74.2163 10.5857-77.8454C10.5427-79.1304 11.9012-80.2628 13.1601-80.1435C13.8156-80.0814 14.0414-79.625 14.1004-79.0424C14.3075-76.9955 14.4606-74.9415 14.7309-72.903C15.145-69.7795 15.4107-66.641 15.8818-63.4665C16.1147-64.0658 16.4218-64.648 16.5654-65.268C16.8781-66.6193 17.7439-67.5036 18.8533-68.2088C20.2-69.0649 21.5915-69.855 22.9005-70.7644C24.469-71.8541 26.1729-71.9995 27.9865-71.7757C30.2283-71.4991 30.2324-71.5148 31.1678-73.4948C31.38-73.9439 31.601-74.3921 31.769-74.8583C32.2705-76.2499 33.1797-77.1941 34.6074-77.6589C36.5865-78.3033 38.2968-79.4791 40.0344-80.573C40.8028-81.0567 41.5531-81.3292 42.4308-81.2296C44.5168-80.993 46.6118-81.0263 48.7028-81.0377C49.9399-81.0445 50.8075-80.5528 51.431-79.524C51.8725-78.7956 52.3484-78.0878 52.7827-77.3553C53.1057-76.8105 53.5375-76.6691 54.1321-76.8401C55.0197-77.0953 55.9202-77.3191 56.7345-77.7658C56.9484-77.8931 57.1956-77.9533 57.444-77.9388C57.6925-77.9242 57.9309-77.8355 58.1285-77.6841C59.7397-76.6498 61.3592-75.6286 62.9724-74.5974C63.4005-74.3238 63.8015-73.9668 63.9316-73.4881C64.2229-72.4164 64.954-72.553 65.669-72.8267C66.9601-73.3209 68.2218-73.8922 69.4936-74.4366C71.487-75.2898 73.4569-75.1873 75.254-74.0189C77.1301-72.7991 78.9482-71.4827 80.9972-70.5703C82.0678-70.0936 82.7461-69.3444 83.0306-68.2686C83.8373-65.2182 84.6007-62.1563 85.3604-59.0938C85.5457-58.3469 85.1804-57.6962 84.8202-57.0856C84.4072-56.3403 83.937-55.628 83.414-54.9553C82.8632-54.2859 83.0103-53.8322 83.6315-53.3748C84.066-53.0096 84.5189-52.6669 84.9884-52.3481C85.6114-51.9926 86.0884-51.4279 86.3345-50.7542C86.8521-49.3604 87.334-47.9536 87.7801-46.5338C87.8393-46.3114 87.8538-46.0794 87.8226-45.8513C87.7914-45.6232 87.7152-45.4036 87.5984-45.2052C86.3291-42.7129 85.1093-40.1954 83.854-37.6958C83.6772-37.3437 83.8886-37.1646 84.0567-36.9496C84.909-35.8597 85.701-34.7125 86.6438-33.7069C87.365-32.9376 87.5805-32.1193 87.3303-31.1777C86.8751-29.4641 86.3513-27.7687 85.8508-26.0672C85.7353-25.6743 85.4201-25.4254 85.1465-25.1477C84.0768-24.062 82.9235-23.0515 82.1096-21.7365C81.8089-21.2506 81.3219-21.0342 80.7886-20.915C80.4818-20.8247 80.1651-20.7722 79.8455-20.7587C77.7962-20.8184 76.4621-20.0614 76.2747-17.829C76.2181-17.1554 75.651-16.7709 75.0618-16.608C73.1617-16.0826 71.513-14.7613 69.4244-14.8358C69.0359-14.8497 68.8389-14.611 68.8553-14.2252C68.889-13.4346 68.4972-12.7932 68.1352-12.1433C67.2032-10.4701 65.969-9.3661 63.8582-9.712C62.8598-9.8756 61.8912-9.9187 61.717-8.4398C61.6621-7.973 61.0574-7.5459 60.6557-7.15C59.6959-6.2043 58.8543-4.8914 57.6928-4.4609C56.2609-3.93 56.2313-2.8971 55.8765-1.8696C55.7841-1.6019 55.7261-1.29 55.5494-1.0888C54.2772 0.3586 55.2456 1.6777 55.785 2.9975C56.0286 3.5934 56.9 3.2633 57.2308 3.7603C57.6572 4.4009 58.1038 4.0704 58.6742 4.0196C61.0858 3.8049 63.634 3.0053 65.7072 5.0799C66.1391 5.5121 66.4074 5.4192 66.664 4.9069C67.3344 3.5681 70.1602 3.3143 71.173 4.687C71.7439 5.4609 71.5042 6.4907 71.337 7.3739C71.072 8.7732 69.4102 9.7786 68.0444 9.4222C67.3545 9.2422 66.9245 9.4832 66.3221 9.813C64.7306 10.7208 62.8507 10.9813 61.0723 10.5405C60.0461 10.2817 59.0675 9.8301 58.0735 9.4498C57.7792 9.3372 57.435 9.2383 57.2994 8.9234C56.9707 8.1603 56.6508 8.0443 55.7237 8.2935C54.7504 8.5552 53.6706 7.7934 52.9912 6.9906C52.584 6.5095 52.2058 6.345 51.6484 6.1666C50.5569 5.8172 49.3314 5.4698 49.38 3.9102C49.3916 3.5366 49.203 3.3754 48.8386 3.5491C48.3344 3.7896 47.8431 3.6389 47.3937 3.4486C45.8662 2.7778 44.406 1.9631 43.0329 1.0156C42.6245 0.719 42.3476 0.2752 42.2608-0.222C42.1627-0.7813 42.0286-1.3336 41.8594-1.8756C41.3557-3.2213 41.5368-4.42 42.41-5.5642C42.6677-5.9483 42.851-6.3774 42.9505-6.8292C43.3612-8.336 44.041-9.5863 45.6556-10.107C46.4525-10.364 46.6769-10.9587 46.5858-11.7859C46.5177-12.6327 46.5025-13.483 46.5403-14.3318C46.5407-14.5803 46.6137-14.8233 46.7503-15.0309C47.654-16.2583 48.5791-17.4701 49.5085-18.6783C49.6722-18.9136 49.9025-19.0945 50.1698-19.1978C50.4371-19.3011 50.7292-19.322 51.0086-19.2579C51.2907-19.2238 51.5754-19.215 51.8591-19.2315C53.4988-19.2277 53.499-19.2286 53.6835-20.8129C53.6968-21.0253 53.7213-21.2369 53.7569-21.4467C54.0702-22.831 57.8451-25.5077 59.262-25.3573C60.9312-25.1801 60.7592-25.3105 61.5764-26.7104C62.7892-28.7877 64.7505-30.2629 66.5139-31.8743C66.6888-32.0342 67.0554-32.0185 67.3341-32.023C67.4316-32.0132 67.5301-32.0231 67.6236-32.0522C67.7172-32.0814 67.804-32.1291 67.8787-32.1925C67.9534-32.256 68.0145-32.3338 68.0584-32.4215C68.1023-32.5091 68.1281-32.6047 68.1342-32.7025C68.4907-34.7944 69.482-36.4195 71.8095-37.2472Z"/>
  </g>
 </g>
</svg>
