<?xml version="1.0" encoding="UTF-8"?>
<!--Generator: Apple Native CoreSVG 232.5-->
<!DOCTYPE svg
PUBLIC "-//W3C//DTD SVG 1.1//EN"
       "http://www.w3.org/Graphics/SVG/1.1/DTD/svg11.dtd">
<svg version="1.1" xmlns="http://www.w3.org/2000/svg" xmlns:xlink="http://www.w3.org/1999/xlink" width="3300" height="2200">
 <!--glyph: "", point size: 100.0, font version: "19.2d2e1", template writer version: "128"-->
 <style>.monochrome-0 {-sfsymbols-motion-group:0}

.multicolor-0:tintColor {-sfsymbols-motion-group:0}

.hierarchical-0:primary {-sfsymbols-motion-group:0}

.SFSymbolsPreviewWireframe {fill:none;opacity:1.0;stroke:black;stroke-width:0.5}
</style>
 <g id="Notes">
  <rect height="2200" id="artboard" style="fill:white;opacity:1" width="3300" x="0" y="0"/>
  <line style="fill:none;stroke:black;opacity:1;stroke-width:0.5;" x1="263" x2="3036" y1="292" y2="292"/>
  <text style="stroke:none;fill:black;font-family:sans-serif;font-size:13;font-weight:bold;" transform="matrix(1 0 0 1 263 322)">Weight/Scale Variations</text>
  <text style="stroke:none;fill:black;font-family:sans-serif;font-size:13;text-anchor:middle;" transform="matrix(1 0 0 1 559.711 322)">Ultralight</text>
  <text style="stroke:none;fill:black;font-family:sans-serif;font-size:13;text-anchor:middle;" transform="matrix(1 0 0 1 856.422 322)">Thin</text>
  <text style="stroke:none;fill:black;font-family:sans-serif;font-size:13;text-anchor:middle;" transform="matrix(1 0 0 1 1153.13 322)">Light</text>
  <text style="stroke:none;fill:black;font-family:sans-serif;font-size:13;text-anchor:middle;" transform="matrix(1 0 0 1 1449.84 322)">Regular</text>
  <text style="stroke:none;fill:black;font-family:sans-serif;font-size:13;text-anchor:middle;" transform="matrix(1 0 0 1 1746.56 322)">Medium</text>
  <text style="stroke:none;fill:black;font-family:sans-serif;font-size:13;text-anchor:middle;" transform="matrix(1 0 0 1 2043.27 322)">Semibold</text>
  <text style="stroke:none;fill:black;font-family:sans-serif;font-size:13;text-anchor:middle;" transform="matrix(1 0 0 1 2339.98 322)">Bold</text>
  <text style="stroke:none;fill:black;font-family:sans-serif;font-size:13;text-anchor:middle;" transform="matrix(1 0 0 1 2636.69 322)">Heavy</text>
  <text style="stroke:none;fill:black;font-family:sans-serif;font-size:13;text-anchor:middle;" transform="matrix(1 0 0 1 2933.4 322)">Black</text>
  <line style="fill:none;stroke:black;opacity:1;stroke-width:0.5;" x1="263" x2="3036" y1="1903" y2="1903"/>
  <g transform="matrix(0.2 0 0 0.2 263 1933)">
   <path d="m46.2402 4.15039c21.5332 0 39.4531-17.8711 39.4531-39.4043s-17.9688-39.4043-39.502-39.4043c-21.4844 0-39.3555 17.8711-39.3555 39.4043s17.9199 39.4043 39.4043 39.4043Zm0-7.42188c-17.7246 0-31.8848-14.209-31.8848-31.9824s14.1113-31.9824 31.8359-31.9824c17.7734 0 32.0312 14.209 32.0312 31.9824s-14.209 31.9824-31.9824 31.9824Zm-17.9688-31.9824c0 2.14844 1.51367 3.61328 3.75977 3.61328h10.498v10.5957c0 2.19727 1.46484 3.71094 3.61328 3.71094 2.24609 0 3.71094-1.51367 3.71094-3.71094v-10.5957h10.5957c2.19727 0 3.71094-1.46484 3.71094-3.61328 0-2.19727-1.51367-3.71094-3.71094-3.71094h-10.5957v-10.5469c0-2.24609-1.46484-3.75977-3.71094-3.75977-2.14844 0-3.61328 1.51367-3.61328 3.75977v10.5469h-10.498c-2.24609 0-3.75977 1.51367-3.75977 3.71094Z"/>
  </g>
  <g transform="matrix(0.2 0 0 0.2 281.506 1933)">
   <path d="m58.5449 14.5508c27.2461 0 49.8047-22.6074 49.8047-49.8047 0-27.2461-22.6074-49.8047-49.8535-49.8047-27.1973 0-49.7559 22.5586-49.7559 49.8047 0 27.1973 22.6074 49.8047 49.8047 49.8047Zm0-8.30078c-23.0469 0-41.4551-18.457-41.4551-41.5039s18.3594-41.5039 41.4062-41.5039 41.5527 18.457 41.5527 41.5039-18.457 41.5039-41.5039 41.5039Zm-22.6562-41.5039c0 2.39258 1.66016 4.00391 4.15039 4.00391h14.3555v14.4043c0 2.44141 1.66016 4.15039 4.05273 4.15039 2.44141 0 4.15039-1.66016 4.15039-4.15039v-14.4043h14.4043c2.44141 0 4.15039-1.61133 4.15039-4.00391 0-2.44141-1.70898-4.15039-4.15039-4.15039h-14.4043v-14.3555c0-2.49023-1.70898-4.19922-4.15039-4.19922-2.39258 0-4.05273 1.70898-4.05273 4.19922v14.3555h-14.3555c-2.49023 0-4.15039 1.70898-4.15039 4.15039Z"/>
  </g>
  <g transform="matrix(0.2 0 0 0.2 304.924 1933)">
   <path d="m74.8535 28.3203c34.8145 0 63.623-28.8086 63.623-63.5742 0-34.8145-28.8574-63.623-63.6719-63.623-34.7656 0-63.5254 28.8086-63.5254 63.623 0 34.7656 28.8086 63.5742 63.5742 63.5742Zm0-9.08203c-30.1758 0-54.4434-24.3164-54.4434-54.4922 0-30.2246 24.2188-54.4922 54.3945-54.4922 30.2246 0 54.541 24.2676 54.541 54.4922 0 30.1758-24.2676 54.4922-54.4922 54.4922Zm-28.8574-54.4922c0 2.58789 1.85547 4.39453 4.58984 4.39453h19.7266v19.7754c0 2.68555 1.85547 4.58984 4.44336 4.58984 2.68555 0 4.54102-1.85547 4.54102-4.58984v-19.7754h19.7754c2.68555 0 4.58984-1.80664 4.58984-4.39453 0-2.73438-1.85547-4.58984-4.58984-4.58984h-19.7754v-19.7266c0-2.73438-1.85547-4.63867-4.54102-4.63867-2.58789 0-4.44336 1.9043-4.44336 4.63867v19.7266h-19.7266c-2.73438 0-4.58984 1.85547-4.58984 4.58984Z"/>
  </g>
  <text style="stroke:none;fill:black;font-family:sans-serif;font-size:13;font-weight:bold;" transform="matrix(1 0 0 1 263 1953)">Design Variations</text>
  <text style="stroke:none;fill:black;font-family:sans-serif;font-size:13;" transform="matrix(1 0 0 1 263 1971)">Symbols are supported in up to nine weights and three scales.</text>
  <text style="stroke:none;fill:black;font-family:sans-serif;font-size:13;" transform="matrix(1 0 0 1 263 1989)">For optimal layout with text and other symbols, vertically align</text>
  <text style="stroke:none;fill:black;font-family:sans-serif;font-size:13;" transform="matrix(1 0 0 1 263 2007)">symbols with the adjacent text.</text>
  <line style="fill:none;stroke:#00AEEF;stroke-width:0.5;opacity:1.0;" x1="776" x2="776" y1="1919" y2="1933"/>
  <g transform="matrix(0.2 0 0 0.2 776 1933)">
   <path d="m16.5527 0.78125c2.58789 0 3.85742-0.976562 4.78516-3.71094l6.29883-17.2363h28.8086l6.29883 17.2363c0.927734 2.73438 2.19727 3.71094 4.73633 3.71094 2.58789 0 4.24805-1.5625 4.24805-4.00391 0-0.830078-0.146484-1.61133-0.537109-2.63672l-22.9004-60.9863c-1.12305-2.97852-3.125-4.49219-6.25-4.49219-3.02734 0-5.07812 1.46484-6.15234 4.44336l-22.9004 61.084c-0.390625 1.02539-0.537109 1.80664-0.537109 2.63672 0 2.44141 1.5625 3.95508 4.10156 3.95508Zm13.4766-28.3691 11.8652-32.8613h0.244141l11.8652 32.8613Z"/>
  </g>
  <line style="fill:none;stroke:#00AEEF;stroke-width:0.5;opacity:1.0;" x1="792.836" x2="792.836" y1="1919" y2="1933"/>
  <text style="stroke:none;fill:black;font-family:sans-serif;font-size:13;font-weight:bold;" transform="matrix(1 0 0 1 776 1953)">Margins</text>
  <text style="stroke:none;fill:black;font-family:sans-serif;font-size:13;" transform="matrix(1 0 0 1 776 1971)">Leading and trailing margins on the left and right side of each symbol</text>
  <text style="stroke:none;fill:black;font-family:sans-serif;font-size:13;" transform="matrix(1 0 0 1 776 1989)">can be adjusted by modifying the x-location of the margin guidelines.</text>
  <text style="stroke:none;fill:black;font-family:sans-serif;font-size:13;" transform="matrix(1 0 0 1 776 2007)">Modifications are automatically applied proportionally to all</text>
  <text style="stroke:none;fill:black;font-family:sans-serif;font-size:13;" transform="matrix(1 0 0 1 776 2025)">scales and weights.</text>
  <g transform="matrix(0.2 0 0 0.2 1289 1933)">
   <path d="m14.209 9.32617 8.49609 8.54492c4.29688 4.3457 9.22852 4.05273 13.8672-1.07422l53.4668-58.9355-4.83398-4.88281-53.0762 58.3984c-1.75781 2.00195-3.41797 2.49023-5.76172 0.146484l-5.85938-5.81055c-2.34375-2.29492-1.80664-4.00391 0.195312-5.81055l57.373-54.0039-4.88281-4.83398-57.959 54.4434c-4.93164 4.58984-5.32227 9.47266-1.02539 13.8184Zm32.0801-90.9668c-2.09961 2.05078-2.24609 4.93164-1.07422 6.88477 1.17188 1.80664 3.4668 2.97852 6.68945 2.14844 7.32422-1.70898 14.9414-2.00195 22.0703 2.68555l-2.92969 7.27539c-1.70898 4.15039-0.830078 7.08008 1.85547 9.81445l11.4746 11.5723c2.44141 2.44141 4.49219 2.53906 7.32422 2.05078l5.32227-0.976562 3.32031 3.36914-0.195312 2.7832c-0.195312 2.49023 0.439453 4.39453 2.88086 6.78711l3.80859 3.71094c2.39258 2.39258 5.46875 2.53906 7.8125 0.195312l14.5508-14.5996c2.34375-2.34375 2.24609-5.32227-0.146484-7.71484l-3.85742-3.80859c-2.39258-2.39258-4.24805-3.17383-6.64062-2.97852l-2.88086 0.244141-3.22266-3.17383 1.2207-5.61523c0.634766-2.83203-0.146484-5.0293-3.07617-7.95898l-10.9863-10.9375c-16.6992-16.6016-38.8672-16.2109-53.3203-1.75781Zm7.4707 1.85547c12.1582-8.88672 28.6133-7.37305 39.7461 3.75977l12.1582 12.0605c1.17188 1.17188 1.36719 2.09961 1.02539 3.80859l-1.61133 7.42188 7.51953 7.42188 4.93164-0.292969c1.26953-0.0488281 1.66016 0.0488281 2.63672 1.02539l2.88086 2.88086-12.207 12.207-2.88086-2.88086c-0.976562-0.976562-1.12305-1.36719-1.07422-2.68555l0.341797-4.88281-7.4707-7.42188-7.61719 1.26953c-1.61133 0.341797-2.34375 0.195312-3.56445-0.976562l-10.0098-10.0098c-1.26953-1.17188-1.41602-2.00195-0.634766-3.85742l4.39453-10.4492c-7.8125-7.27539-17.9688-10.4004-28.125-7.42188-0.78125 0.195312-1.07422-0.439453-0.439453-0.976562Z"/>
  </g>
  <text style="stroke:none;fill:black;font-family:sans-serif;font-size:13;font-weight:bold;" transform="matrix(1 0 0 1 1289 1953)">Exporting</text>
  <text style="stroke:none;fill:black;font-family:sans-serif;font-size:13;" transform="matrix(1 0 0 1 1289 1971)">Symbols should be outlined when exporting to ensure the</text>
  <text style="stroke:none;fill:black;font-family:sans-serif;font-size:13;" transform="matrix(1 0 0 1 1289 1989)">design is preserved when submitting to Xcode.</text>
  <text id="template-version" style="stroke:none;fill:black;font-family:sans-serif;font-size:13;text-anchor:end;" transform="matrix(1 0 0 1 3036 1933)">Template v.5.0</text>
  <text style="stroke:none;fill:black;font-family:sans-serif;font-size:13;text-anchor:end;" transform="matrix(1 0 0 1 3036 1951)">Requires Xcode 15 or greater</text>
  <text id="descriptive-name" style="stroke:none;fill:black;font-family:sans-serif;font-size:13;text-anchor:end;" transform="matrix(1 0 0 1 3036 1969)">Generated from Heavy</text>
  <text style="stroke:none;fill:black;font-family:sans-serif;font-size:13;text-anchor:end;" transform="matrix(1 0 0 1 3036 1987)">Typeset at 100.0 points</text>
  <text style="stroke:none;fill:black;font-family:sans-serif;font-size:13;" transform="matrix(1 0 0 1 263 726)">Small</text>
  <text style="stroke:none;fill:black;font-family:sans-serif;font-size:13;" transform="matrix(1 0 0 1 263 1156)">Medium</text>
  <text style="stroke:none;fill:black;font-family:sans-serif;font-size:13;" transform="matrix(1 0 0 1 263 1586)">Large</text>
 </g>
 <g id="Guides">
  <g id="H-reference" style="fill:#27AAE1;stroke:none;" transform="matrix(1 0 0 1 339 696)">
   <path d="M0.993654 0L3.63775 0L29.3281-67.1323L30.0303-67.1323L30.0303-70.459L28.1226-70.459ZM11.6885-24.4799L46.9815-24.4799L46.2315-26.7285L12.4385-26.7285ZM55.1196 0L57.7637 0L30.6382-70.459L29.4326-70.459L29.4326-67.1323Z"/>
  </g>
  <line id="Baseline-S" style="fill:none;stroke:#27AAE1;opacity:1;stroke-width:0.5;" x1="263" x2="3036" y1="696" y2="696"/>
  <line id="Capline-S" style="fill:none;stroke:#27AAE1;opacity:1;stroke-width:0.5;" x1="263" x2="3036" y1="625.541" y2="625.541"/>
  <g id="H-reference" style="fill:#27AAE1;stroke:none;" transform="matrix(1 0 0 1 339 1126)">
   <path d="M0.993654 0L3.63775 0L29.3281-67.1323L30.0303-67.1323L30.0303-70.459L28.1226-70.459ZM11.6885-24.4799L46.9815-24.4799L46.2315-26.7285L12.4385-26.7285ZM55.1196 0L57.7637 0L30.6382-70.459L29.4326-70.459L29.4326-67.1323Z"/>
  </g>
  <line id="Baseline-M" style="fill:none;stroke:#27AAE1;opacity:1;stroke-width:0.5;" x1="263" x2="3036" y1="1126" y2="1126"/>
  <line id="Capline-M" style="fill:none;stroke:#27AAE1;opacity:1;stroke-width:0.5;" x1="263" x2="3036" y1="1055.54" y2="1055.54"/>
  <g id="H-reference" style="fill:#27AAE1;stroke:none;" transform="matrix(1 0 0 1 339 1556)">
   <path d="M0.993654 0L3.63775 0L29.3281-67.1323L30.0303-67.1323L30.0303-70.459L28.1226-70.459ZM11.6885-24.4799L46.9815-24.4799L46.2315-26.7285L12.4385-26.7285ZM55.1196 0L57.7637 0L30.6382-70.459L29.4326-70.459L29.4326-67.1323Z"/>
  </g>
  <line id="Baseline-L" style="fill:none;stroke:#27AAE1;opacity:1;stroke-width:0.5;" x1="263" x2="3036" y1="1556" y2="1556"/>
  <line id="Capline-L" style="fill:none;stroke:#27AAE1;opacity:1;stroke-width:0.5;" x1="263" x2="3036" y1="1485.54" y2="1485.54"/>
  <line id="left-margin-Ultralight-S" style="fill:none;stroke:#FF3B30;stroke-width:0.5;opacity:1.0;" x1="515.649" x2="515.649" y1="600.785" y2="720.121"/>
  <line id="right-margin-Ultralight-S" style="fill:none;stroke:#FF3B30;stroke-width:0.5;opacity:1.0;" x1="603.773" x2="603.773" y1="600.785" y2="720.121"/>
  <line id="left-margin-Regular-S" style="fill:none;stroke:#FF3B30;stroke-width:0.5;opacity:1.0;" x1="1403.58" x2="1403.58" y1="600.785" y2="720.121"/>
  <line id="right-margin-Regular-S" style="fill:none;stroke:#00AEEF;stroke-width:0.5;opacity:1.0;" x1="1496.11" x2="1496.11" y1="600.785" y2="720.121"/>
  <line id="left-margin-Black-S" style="fill:none;stroke:#00AEEF;stroke-width:0.5;opacity:1.0;" x1="2884.57" x2="2884.57" y1="600.785" y2="720.121"/>
  <line id="right-margin-Black-S" style="fill:none;stroke:#00AEEF;stroke-width:0.5;opacity:1.0;" x1="2982.23" x2="2982.23" y1="600.785" y2="720.121"/>
 </g>
 <g id="Symbols">
  <g id="Black-S" transform="matrix(1 0 0 1 2884.57 696)">
   <path class="monochrome-0 multicolor-0:tintColor hierarchical-0:primary SFSymbolsPreviewWireframe" d="M18.8325-35.2347C17.8269-35.0458 16.969-34.9448 16.5382-33.9618C16.2755-33.3624 15.8284-33.1805 15.2994-33.7467C14.6726-34.4175 14.179-34.1121 13.7351-33.5165C13.6504-33.4028 13.589-33.2711 13.5-33.1613C13.2413-32.8421 13.0567-32.3363 12.532-32.493C12.1119-32.6184 12.0721-33.0801 11.9728-33.4576C11.9128-33.6858 12.0392-33.9581 11.771-34.1886C11.5539-34.0341 11.3395-33.8597 11.1048-33.719C10.5113-33.3631 10.1401-33.5585 10.0697-34.2244C10.0203-34.6914 10.1026-35.1836 9.38891-35.1626C9.29266-35.1598 9.08824-35.3877 9.1071-35.4283C9.46774-36.2041 8.82334-37.1041 9.21245-37.7554C10.5173-39.9395 11.4581-42.3299 13.0668-44.3452C15.2091-47.0292 17.7049-49.3184 20.4125-51.4139C23.6448-53.9154 27.2402-55.74 30.9872-57.2985C31.5253-57.5223 31.8939-57.8249 32.0507-58.3821C32.069-58.4511 32.1004-58.516 32.1433-58.5732C33.8605-60.7484 34.0051-63.386 34.3549-65.9737C34.5672-67.6331 35.0448-69.2476 35.7693-70.7555C36.385-72.0174 36.6824-72.1037 38.0102-71.7181C40.2839-71.0578 42.4358-70.1769 44.2183-68.5598C44.6305-68.1858 45.0886-68.1806 45.6101-68.3123C49.3173-69.2486 52.9343-69.0008 56.4323-67.4135C56.9997-67.1561 57.4388-67.2223 58.0077-67.5384C60.366-68.8488 62.743-70.1665 65.5314-70.3139C67.089-70.3962 67.4183-70.1979 67.693-68.6355C68.1318-66.1395 68.0711-63.607 67.8086-61.0997C67.5847-58.9617 67.5112-58.9934 69.4862-58.0646C74.8828-55.5267 79.9218-52.4172 84.2101-48.2458C87.3918-45.1508 90.3496-41.835 92.619-37.9764C93.2976-36.8227 93.7125-35.5427 94.5058-34.4212C94.8355-33.955 95.5462-32.8191 94.2565-32.2234C93.9053-32.0611 94.094-31.7323 94.147-31.4637C94.3682-30.3422 94.3213-30.3011 93.172-30.6122C93.0383-30.6484 92.9073-30.694 92.7823-30.7329C92.5571-30.4592 92.7818-30.2369 92.7963-30.0055C92.8347-29.3923 92.5215-29.2221 92.0027-29.4277C91.6492-29.5933 91.3074-29.7829 90.9798-29.9952C89.8173-30.6539 89.2462-30.5403 88.4744-29.4966C87.8596-28.6652 87.3753-28.667 87.1122-29.6615C86.8046-30.8242 86.0134-31.0505 85.0423-31.2852C84.1649-31.4973 84.16-31.1891 84.3274-30.4999C84.8045-28.5351 85.5173-26.6077 85.6638-24.5877C85.7934-22.7999 86.651-21.1813 86.6819-19.3926C86.6919-18.8121 87.2432-18.7224 87.5436-18.4014C88.707-17.1577 89.8658-16.9936 91.1847-18.2066C91.5337-18.5275 92.1016-18.898 92.6349-18.4809C93.0989-18.118 93.0064-17.5061 92.8231-17.0887C91.7323-14.6051 92.3375-11.9117 91.8496-9.4056C90.8541-4.2929 87.7639-0.7874 82.6467 0.7806C80.4224 1.4622 78.2315 1.6651 75.9542 1.068C74.179 0.6312 72.6339-0.4592 71.6276-1.9855C71.2393-2.5605 70.8573-2.8318 70.1407-2.6476C67.0243-1.8466 63.9342-2.1892 60.8764-2.9827C59.5773-3.3408 58.2107-3.3791 56.8936-3.0942C52.4149-2.1228 47.8764-1.8598 43.3638-2.7257C41.3718-3.088 39.4212-3.6488 37.541-4.3999C36.6174-4.7713 35.5984-4.8342 34.636-4.5792C32.2029-4.0317 29.7329-3.7642 27.2356-4.0902C26.6034-4.1727 26.0916-4.1374 25.6516-3.5398C24.3312-1.7463 22.431-0.9099 20.3026-0.5574C13.4789 0.5725 7.24-4.2075 5.26055-9.4729C5.21343-9.5686 5.17608-9.6687 5.14907-9.7719C4.82823-12.0469 4.14438-14.2557 3.12363-16.3141C2.77313-17.0044 3.20805-17.3873 3.92322-17.419C4.20686-17.4373 4.4916-17.4094 4.76629-17.3363C5.59745-17.0919 6.10892-17.453 6.71093-18.0258C7.73082-18.9962 8.27261-20.0182 8.15717-21.47C8.07839-22.4608 8.71656-22.7827 9.6338-22.396C9.7708-22.3561 9.89644-22.2844 10.0005-22.1868C11.1511-20.7107 12.7657-21.1052 14.2874-21.0946C14.7755-21.0912 15.0528-21.3102 15.3189-21.6967C16.0643-22.7343 16.5105-23.9567 16.6088-25.2305C16.8674-28.4545 17.5732-31.6269 18.7058-34.6565C18.7582-34.8468 18.8005-35.0398 18.8325-35.2347Z"/>
  </g>
  <g id="Regular-S" transform="matrix(1 0 0 1 1403.58 696)">
   <path class="monochrome-0 multicolor-0:tintColor hierarchical-0:primary SFSymbolsPreviewWireframe" d="M15.8325-35.2347C14.8269-35.0458 13.969-34.9448 13.5382-33.9618C13.2755-33.3624 12.8284-33.1805 12.2994-33.7467C11.6726-34.4175 11.179-34.1121 10.7351-33.5165C10.6504-33.4028 10.589-33.2711 10.5-33.1613C10.2413-32.8421 10.0567-32.3363 9.53197-32.493C9.11193-32.6184 9.07209-33.0801 8.97281-33.4576C8.9128-33.6858 9.03919-33.9581 8.77105-34.1886C8.55393-34.0341 8.33951-33.8597 8.10483-33.719C7.51126-33.3631 7.14014-33.5585 7.06968-34.2244C7.02027-34.6914 7.10265-35.1836 6.38891-35.1626C6.29266-35.1598 6.08824-35.3877 6.1071-35.4283C6.46774-36.2041 5.82334-37.1041 6.21245-37.7554C7.51731-39.9395 8.45811-42.3299 10.0668-44.3452C12.2091-47.0292 14.7049-49.3184 17.4125-51.4139C20.6448-53.9154 24.2402-55.74 27.9872-57.2985C28.5253-57.5223 28.8939-57.8249 29.0507-58.3821C29.069-58.4511 29.1004-58.516 29.1433-58.5732C30.8605-60.7484 31.0051-63.386 31.3549-65.9737C31.5672-67.6331 32.0448-69.2476 32.7693-70.7555C33.385-72.0174 33.6824-72.1037 35.0102-71.7181C37.2839-71.0578 39.4358-70.1769 41.2183-68.5598C41.6305-68.1858 42.0886-68.1806 42.6101-68.3123C46.3173-69.2486 49.9343-69.0008 53.4323-67.4135C53.9997-67.1561 54.4388-67.2223 55.0077-67.5384C57.366-68.8488 59.743-70.1665 62.5314-70.3139C64.089-70.3962 64.4183-70.1979 64.693-68.6355C65.1318-66.1395 65.0711-63.607 64.8086-61.0997C64.5847-58.9617 64.5112-58.9934 66.4862-58.0646C71.8828-55.5267 76.9218-52.4172 81.2101-48.2458C84.3918-45.1508 87.3496-41.835 89.619-37.9764C90.2976-36.8227 90.7125-35.5427 91.5058-34.4212C91.8355-33.955 92.5462-32.8191 91.2565-32.2234C90.9053-32.0611 91.094-31.7323 91.147-31.4637C91.3682-30.3422 91.3213-30.3011 90.172-30.6122C90.0383-30.6484 89.9073-30.694 89.7823-30.7329C89.5571-30.4592 89.7818-30.2369 89.7963-30.0055C89.8347-29.3923 89.5215-29.2221 89.0027-29.4277C88.6492-29.5933 88.3074-29.7829 87.9798-29.9952C86.8173-30.6539 86.2462-30.5403 85.4744-29.4966C84.8596-28.6652 84.3753-28.667 84.1122-29.6615C83.8046-30.8242 83.0134-31.0505 82.0423-31.2852C81.1649-31.4973 81.16-31.1891 81.3274-30.4999C81.8045-28.5351 82.5173-26.6077 82.6638-24.5877C82.7934-22.7999 83.651-21.1813 83.6819-19.3926C83.6919-18.8121 84.2432-18.7224 84.5436-18.4014C85.707-17.1577 86.8658-16.9936 88.1847-18.2066C88.5337-18.5275 89.1016-18.898 89.6349-18.4809C90.0989-18.118 90.0064-17.5061 89.8231-17.0887C88.7323-14.6051 89.3375-11.9117 88.8496-9.4056C87.8541-4.2929 84.7639-0.7874 79.6467 0.7806C77.4224 1.4622 75.2315 1.6651 72.9542 1.068C71.179 0.6312 69.6339-0.4592 68.6276-1.9855C68.2393-2.5605 67.8573-2.8318 67.1407-2.6476C64.0243-1.8466 60.9342-2.1892 57.8764-2.9827C56.5773-3.3408 55.2107-3.3791 53.8936-3.0942C49.4149-2.1228 44.8764-1.8598 40.3638-2.7257C38.3718-3.088 36.4212-3.6488 34.541-4.3999C33.6174-4.7713 32.5984-4.8342 31.636-4.5792C29.2029-4.0317 26.7329-3.7642 24.2356-4.0902C23.6034-4.1727 23.0916-4.1374 22.6516-3.5398C21.3312-1.7463 19.431-0.9099 17.3026-0.5574C10.4789 0.5725 4.24-4.2075 2.26055-9.4729C2.21343-9.5686 2.17608-9.6687 2.14907-9.7719C1.82823-12.0469 1.14438-14.2557 0.123631-16.3141C-0.22687-17.0044 0.20805-17.3873 0.923217-17.419C1.20686-17.4373 1.4916-17.4094 1.76629-17.3363C2.59745-17.0919 3.10892-17.453 3.71093-18.0258C4.73082-18.9962 5.27261-20.0182 5.15717-21.47C5.07839-22.4608 5.71656-22.7827 6.6338-22.396C6.7708-22.3561 6.89644-22.2844 7.00049-22.1868C8.15108-20.7107 9.76574-21.1052 11.2874-21.0946C11.7755-21.0912 12.0528-21.3102 12.3189-21.6967C13.0643-22.7343 13.5105-23.9567 13.6088-25.2305C13.8674-28.4545 14.5732-31.6269 15.7058-34.6565C15.7582-34.8468 15.8005-35.0398 15.8325-35.2347Z"/>
  </g>
  <g id="Ultralight-S" transform="matrix(1 0 0 1 515.649 696)">
   <path class="monochrome-0 multicolor-0:tintColor hierarchical-0:primary SFSymbolsPreviewWireframe" d="M13.8325-35.2347C12.8269-35.0458 11.969-34.9448 11.5382-33.9618C11.2755-33.3624 10.8284-33.1805 10.2994-33.7467C9.6726-34.4175 9.179-34.1121 8.7351-33.5165C8.6504-33.4028 8.589-33.2711 8.5-33.1613C8.2413-32.8421 8.0567-32.3363 7.53197-32.493C7.11193-32.6184 7.07209-33.0801 6.97281-33.4576C6.9128-33.6858 7.03919-33.9581 6.77105-34.1886C6.55393-34.0341 6.33951-33.8597 6.10483-33.719C5.51126-33.3631 5.14014-33.5585 5.06968-34.2244C5.02027-34.6914 5.10265-35.1836 4.38891-35.1626C4.29266-35.1598 4.08824-35.3877 4.1071-35.4283C4.46774-36.2041 3.82334-37.1041 4.21245-37.7554C5.51731-39.9395 6.45811-42.3299 8.0668-44.3452C10.2091-47.0292 12.7049-49.3184 15.4125-51.4139C18.6448-53.9154 22.2402-55.74 25.9872-57.2985C26.5253-57.5223 26.8939-57.8249 27.0507-58.3821C27.069-58.4511 27.1004-58.516 27.1433-58.5732C28.8605-60.7484 29.0051-63.386 29.3549-65.9737C29.5672-67.6331 30.0448-69.2476 30.7693-70.7555C31.385-72.0174 31.6824-72.1037 33.0102-71.7181C35.2839-71.0578 37.4358-70.1769 39.2183-68.5598C39.6305-68.1858 40.0886-68.1806 40.6101-68.3123C44.3173-69.2486 47.9343-69.0008 51.4323-67.4135C51.9997-67.1561 52.4388-67.2223 53.0077-67.5384C55.366-68.8488 57.743-70.1665 60.5314-70.3139C62.089-70.3962 62.4183-70.1979 62.693-68.6355C63.1318-66.1395 63.0711-63.607 62.8086-61.0997C62.5847-58.9617 62.5112-58.9934 64.4862-58.0646C69.8828-55.5267 74.9218-52.4172 79.2101-48.2458C82.3918-45.1508 85.3496-41.835 87.619-37.9764C88.2976-36.8227 88.7125-35.5427 89.5058-34.4212C89.8355-33.955 90.5462-32.8191 89.2565-32.2234C88.9053-32.0611 89.094-31.7323 89.147-31.4637C89.3682-30.3422 89.3213-30.3011 88.172-30.6122C88.0383-30.6484 87.9073-30.694 87.7823-30.7329C87.5571-30.4592 87.7818-30.2369 87.7963-30.0055C87.8347-29.3923 87.5215-29.2221 87.0027-29.4277C86.6492-29.5933 86.3074-29.7829 85.9798-29.9952C84.8173-30.6539 84.2462-30.5403 83.4744-29.4966C82.8596-28.6652 82.3753-28.667 82.1122-29.6615C81.8046-30.8242 81.0134-31.0505 80.0423-31.2852C79.1649-31.4973 79.16-31.1891 79.3274-30.4999C79.8045-28.5351 80.5173-26.6077 80.6638-24.5877C80.7934-22.7999 81.651-21.1813 81.6819-19.3926C81.6919-18.8121 82.2432-18.7224 82.5436-18.4014C83.707-17.1577 84.8658-16.9936 86.1847-18.2066C86.5337-18.5275 87.1016-18.898 87.6349-18.4809C88.0989-18.118 88.0064-17.5061 87.8231-17.0887C86.7323-14.6051 87.3375-11.9117 86.8496-9.4056C85.8541-4.2929 82.7639-0.7874 77.6467 0.7806C75.4224 1.4622 73.2315 1.6651 70.9542 1.068C69.179 0.6312 67.6339-0.4592 66.6276-1.9855C66.2393-2.5605 65.8573-2.8318 65.1407-2.6476C62.0243-1.8466 58.9342-2.1892 55.8764-2.9827C54.5773-3.3408 53.2107-3.3791 51.8936-3.0942C47.4149-2.1228 42.8764-1.8598 38.3638-2.7257C36.3718-3.088 34.4212-3.6488 32.541-4.3999C31.6174-4.7713 30.5984-4.8342 29.636-4.5792C27.2029-4.0317 24.7329-3.7642 22.2356-4.0902C21.6034-4.1727 21.0916-4.1374 20.6516-3.5398C19.3312-1.7463 17.431-0.9099 15.3026-0.5574C8.4789 0.5725 2.24-4.2075 0.26055-9.4729C0.21343-9.5686 0.17608-9.6687 0.14907-9.7719C-0.17177-12.0469-0.85562-14.2557-1.87637-16.3141C-2.22687-17.0044-1.79195-17.3873-1.07678-17.419C-0.79314-17.4373-0.5084-17.4094-0.23371-17.3363C0.59745-17.0919 1.10892-17.453 1.71093-18.0258C2.73082-18.9962 3.27261-20.0182 3.15717-21.47C3.07839-22.4608 3.71656-22.7827 4.6338-22.396C4.7708-22.3561 4.89644-22.2844 5.00049-22.1868C6.15108-20.7107 7.76574-21.1052 9.2874-21.0946C9.7755-21.0912 10.0528-21.3102 10.3189-21.6967C11.0643-22.7343 11.5105-23.9567 11.6088-25.2305C11.8674-28.4545 12.5732-31.6269 13.7058-34.6565C13.7582-34.8468 13.8005-35.0398 13.8325-35.2347Z"/>
  </g>
 </g>
</svg>
