<?xml version="1.0" encoding="UTF-8"?>
<!--Generator: Apple Native CoreSVG 232.5-->
<!DOCTYPE svg
PUBLIC "-//W3C//DTD SVG 1.1//EN"
       "http://www.w3.org/Graphics/SVG/1.1/DTD/svg11.dtd">
<svg version="1.1" xmlns="http://www.w3.org/2000/svg" xmlns:xlink="http://www.w3.org/1999/xlink" width="3300" height="2200">
 <!--glyph: "", point size: 100.0, font version: "19.2d2e1", template writer version: "128"-->
 <style>.monochrome-0 {-sfsymbols-motion-group:1}
.monochrome-1 {opacity:0.0;-sfsymbols-clear-behind:true;-sfsymbols-motion-group:0}

.multicolor-0:tintColor {-sfsymbols-motion-group:1}
.multicolor-1:tintColor {-sfsymbols-motion-group:0}

.hierarchical-0:primary {-sfsymbols-motion-group:1}
.hierarchical-1:primary {-sfsymbols-motion-group:0}

.SFSymbolsPreviewWireframe {fill:none;opacity:1.0;stroke:black;stroke-width:0.5}
</style>
 <g id="Notes">
  <rect height="2200" id="artboard" style="fill:white;opacity:1" width="3300" x="0" y="0"/>
  <line style="fill:none;stroke:black;opacity:1;stroke-width:0.5;" x1="263" x2="3036" y1="292" y2="292"/>
  <text style="stroke:none;fill:black;font-family:sans-serif;font-size:13;font-weight:bold;" transform="matrix(1 0 0 1 263 322)">Weight/Scale Variations</text>
  <text style="stroke:none;fill:black;font-family:sans-serif;font-size:13;text-anchor:middle;" transform="matrix(1 0 0 1 559.711 322)">Ultralight</text>
  <text style="stroke:none;fill:black;font-family:sans-serif;font-size:13;text-anchor:middle;" transform="matrix(1 0 0 1 856.422 322)">Thin</text>
  <text style="stroke:none;fill:black;font-family:sans-serif;font-size:13;text-anchor:middle;" transform="matrix(1 0 0 1 1153.13 322)">Light</text>
  <text style="stroke:none;fill:black;font-family:sans-serif;font-size:13;text-anchor:middle;" transform="matrix(1 0 0 1 1449.84 322)">Regular</text>
  <text style="stroke:none;fill:black;font-family:sans-serif;font-size:13;text-anchor:middle;" transform="matrix(1 0 0 1 1746.56 322)">Medium</text>
  <text style="stroke:none;fill:black;font-family:sans-serif;font-size:13;text-anchor:middle;" transform="matrix(1 0 0 1 2043.27 322)">Semibold</text>
  <text style="stroke:none;fill:black;font-family:sans-serif;font-size:13;text-anchor:middle;" transform="matrix(1 0 0 1 2339.98 322)">Bold</text>
  <text style="stroke:none;fill:black;font-family:sans-serif;font-size:13;text-anchor:middle;" transform="matrix(1 0 0 1 2636.69 322)">Heavy</text>
  <text style="stroke:none;fill:black;font-family:sans-serif;font-size:13;text-anchor:middle;" transform="matrix(1 0 0 1 2933.4 322)">Black</text>
  <line style="fill:none;stroke:black;opacity:1;stroke-width:0.5;" x1="263" x2="3036" y1="1903" y2="1903"/>
  <g transform="matrix(0.2 0 0 0.2 263 1933)">
   <path d="m46.2402 4.15039c21.5332 0 39.4531-17.8711 39.4531-39.4043s-17.9688-39.4043-39.502-39.4043c-21.4844 0-39.3555 17.8711-39.3555 39.4043s17.9199 39.4043 39.4043 39.4043Zm0-7.42188c-17.7246 0-31.8848-14.209-31.8848-31.9824s14.1113-31.9824 31.8359-31.9824c17.7734 0 32.0312 14.209 32.0312 31.9824s-14.209 31.9824-31.9824 31.9824Zm-17.9688-31.9824c0 2.14844 1.51367 3.61328 3.75977 3.61328h10.498v10.5957c0 2.19727 1.46484 3.71094 3.61328 3.71094 2.24609 0 3.71094-1.51367 3.71094-3.71094v-10.5957h10.5957c2.19727 0 3.71094-1.46484 3.71094-3.61328 0-2.19727-1.51367-3.71094-3.71094-3.71094h-10.5957v-10.5469c0-2.24609-1.46484-3.75977-3.71094-3.75977-2.14844 0-3.61328 1.51367-3.61328 3.75977v10.5469h-10.498c-2.24609 0-3.75977 1.51367-3.75977 3.71094Z"/>
  </g>
  <g transform="matrix(0.2 0 0 0.2 281.506 1933)">
   <path d="m58.5449 14.5508c27.2461 0 49.8047-22.6074 49.8047-49.8047 0-27.2461-22.6074-49.8047-49.8535-49.8047-27.1973 0-49.7559 22.5586-49.7559 49.8047 0 27.1973 22.6074 49.8047 49.8047 49.8047Zm0-8.30078c-23.0469 0-41.4551-18.457-41.4551-41.5039s18.3594-41.5039 41.4062-41.5039 41.5527 18.457 41.5527 41.5039-18.457 41.5039-41.5039 41.5039Zm-22.6562-41.5039c0 2.39258 1.66016 4.00391 4.15039 4.00391h14.3555v14.4043c0 2.44141 1.66016 4.15039 4.05273 4.15039 2.44141 0 4.15039-1.66016 4.15039-4.15039v-14.4043h14.4043c2.44141 0 4.15039-1.61133 4.15039-4.00391 0-2.44141-1.70898-4.15039-4.15039-4.15039h-14.4043v-14.3555c0-2.49023-1.70898-4.19922-4.15039-4.19922-2.39258 0-4.05273 1.70898-4.05273 4.19922v14.3555h-14.3555c-2.49023 0-4.15039 1.70898-4.15039 4.15039Z"/>
  </g>
  <g transform="matrix(0.2 0 0 0.2 304.924 1933)">
   <path d="m74.8535 28.3203c34.8145 0 63.623-28.8086 63.623-63.5742 0-34.8145-28.8574-63.623-63.6719-63.623-34.7656 0-63.5254 28.8086-63.5254 63.623 0 34.7656 28.8086 63.5742 63.5742 63.5742Zm0-9.08203c-30.1758 0-54.4434-24.3164-54.4434-54.4922 0-30.2246 24.2188-54.4922 54.3945-54.4922 30.2246 0 54.541 24.2676 54.541 54.4922 0 30.1758-24.2676 54.4922-54.4922 54.4922Zm-28.8574-54.4922c0 2.58789 1.85547 4.39453 4.58984 4.39453h19.7266v19.7754c0 2.68555 1.85547 4.58984 4.44336 4.58984 2.68555 0 4.54102-1.85547 4.54102-4.58984v-19.7754h19.7754c2.68555 0 4.58984-1.80664 4.58984-4.39453 0-2.73438-1.85547-4.58984-4.58984-4.58984h-19.7754v-19.7266c0-2.73438-1.85547-4.63867-4.54102-4.63867-2.58789 0-4.44336 1.9043-4.44336 4.63867v19.7266h-19.7266c-2.73438 0-4.58984 1.85547-4.58984 4.58984Z"/>
  </g>
  <text style="stroke:none;fill:black;font-family:sans-serif;font-size:13;font-weight:bold;" transform="matrix(1 0 0 1 263 1953)">Design Variations</text>
  <text style="stroke:none;fill:black;font-family:sans-serif;font-size:13;" transform="matrix(1 0 0 1 263 1971)">Symbols are supported in up to nine weights and three scales.</text>
  <text style="stroke:none;fill:black;font-family:sans-serif;font-size:13;" transform="matrix(1 0 0 1 263 1989)">For optimal layout with text and other symbols, vertically align</text>
  <text style="stroke:none;fill:black;font-family:sans-serif;font-size:13;" transform="matrix(1 0 0 1 263 2007)">symbols with the adjacent text.</text>
  <line style="fill:none;stroke:#00AEEF;stroke-width:0.5;opacity:1.0;" x1="776" x2="776" y1="1919" y2="1933"/>
  <g transform="matrix(0.2 0 0 0.2 776 1933)">
   <path d="m16.5527 0.78125c2.58789 0 3.85742-0.976562 4.78516-3.71094l6.29883-17.2363h28.8086l6.29883 17.2363c0.927734 2.73438 2.19727 3.71094 4.73633 3.71094 2.58789 0 4.24805-1.5625 4.24805-4.00391 0-0.830078-0.146484-1.61133-0.537109-2.63672l-22.9004-60.9863c-1.12305-2.97852-3.125-4.49219-6.25-4.49219-3.02734 0-5.07812 1.46484-6.15234 4.44336l-22.9004 61.084c-0.390625 1.02539-0.537109 1.80664-0.537109 2.63672 0 2.44141 1.5625 3.95508 4.10156 3.95508Zm13.4766-28.3691 11.8652-32.8613h0.244141l11.8652 32.8613Z"/>
  </g>
  <line style="fill:none;stroke:#00AEEF;stroke-width:0.5;opacity:1.0;" x1="792.836" x2="792.836" y1="1919" y2="1933"/>
  <text style="stroke:none;fill:black;font-family:sans-serif;font-size:13;font-weight:bold;" transform="matrix(1 0 0 1 776 1953)">Margins</text>
  <text style="stroke:none;fill:black;font-family:sans-serif;font-size:13;" transform="matrix(1 0 0 1 776 1971)">Leading and trailing margins on the left and right side of each symbol</text>
  <text style="stroke:none;fill:black;font-family:sans-serif;font-size:13;" transform="matrix(1 0 0 1 776 1989)">can be adjusted by modifying the x-location of the margin guidelines.</text>
  <text style="stroke:none;fill:black;font-family:sans-serif;font-size:13;" transform="matrix(1 0 0 1 776 2007)">Modifications are automatically applied proportionally to all</text>
  <text style="stroke:none;fill:black;font-family:sans-serif;font-size:13;" transform="matrix(1 0 0 1 776 2025)">scales and weights.</text>
  <g transform="matrix(0.2 0 0 0.2 1289 1933)">
   <path d="m14.209 9.32617 8.49609 8.54492c4.29688 4.3457 9.22852 4.05273 13.8672-1.07422l53.4668-58.9355-4.83398-4.88281-53.0762 58.3984c-1.75781 2.00195-3.41797 2.49023-5.76172 0.146484l-5.85938-5.81055c-2.34375-2.29492-1.80664-4.00391 0.195312-5.81055l57.373-54.0039-4.88281-4.83398-57.959 54.4434c-4.93164 4.58984-5.32227 9.47266-1.02539 13.8184Zm32.0801-90.9668c-2.09961 2.05078-2.24609 4.93164-1.07422 6.88477 1.17188 1.80664 3.4668 2.97852 6.68945 2.14844 7.32422-1.70898 14.9414-2.00195 22.0703 2.68555l-2.92969 7.27539c-1.70898 4.15039-0.830078 7.08008 1.85547 9.81445l11.4746 11.5723c2.44141 2.44141 4.49219 2.53906 7.32422 2.05078l5.32227-0.976562 3.32031 3.36914-0.195312 2.7832c-0.195312 2.49023 0.439453 4.39453 2.88086 6.78711l3.80859 3.71094c2.39258 2.39258 5.46875 2.53906 7.8125 0.195312l14.5508-14.5996c2.34375-2.34375 2.24609-5.32227-0.146484-7.71484l-3.85742-3.80859c-2.39258-2.39258-4.24805-3.17383-6.64062-2.97852l-2.88086 0.244141-3.22266-3.17383 1.2207-5.61523c0.634766-2.83203-0.146484-5.0293-3.07617-7.95898l-10.9863-10.9375c-16.6992-16.6016-38.8672-16.2109-53.3203-1.75781Zm7.4707 1.85547c12.1582-8.88672 28.6133-7.37305 39.7461 3.75977l12.1582 12.0605c1.17188 1.17188 1.36719 2.09961 1.02539 3.80859l-1.61133 7.42188 7.51953 7.42188 4.93164-0.292969c1.26953-0.0488281 1.66016 0.0488281 2.63672 1.02539l2.88086 2.88086-12.207 12.207-2.88086-2.88086c-0.976562-0.976562-1.12305-1.36719-1.07422-2.68555l0.341797-4.88281-7.4707-7.42188-7.61719 1.26953c-1.61133 0.341797-2.34375 0.195312-3.56445-0.976562l-10.0098-10.0098c-1.26953-1.17188-1.41602-2.00195-0.634766-3.85742l4.39453-10.4492c-7.8125-7.27539-17.9688-10.4004-28.125-7.42188-0.78125 0.195312-1.07422-0.439453-0.439453-0.976562Z"/>
  </g>
  <text style="stroke:none;fill:black;font-family:sans-serif;font-size:13;font-weight:bold;" transform="matrix(1 0 0 1 1289 1953)">Exporting</text>
  <text style="stroke:none;fill:black;font-family:sans-serif;font-size:13;" transform="matrix(1 0 0 1 1289 1971)">Symbols should be outlined when exporting to ensure the</text>
  <text style="stroke:none;fill:black;font-family:sans-serif;font-size:13;" transform="matrix(1 0 0 1 1289 1989)">design is preserved when submitting to Xcode.</text>
  <text id="template-version" style="stroke:none;fill:black;font-family:sans-serif;font-size:13;text-anchor:end;" transform="matrix(1 0 0 1 3036 1933)">Template v.5.0</text>
  <text style="stroke:none;fill:black;font-family:sans-serif;font-size:13;text-anchor:end;" transform="matrix(1 0 0 1 3036 1951)">Requires Xcode 15 or greater</text>
  <text id="descriptive-name" style="stroke:none;fill:black;font-family:sans-serif;font-size:13;text-anchor:end;" transform="matrix(1 0 0 1 3036 1969)">Generated from Filter</text>
  <text style="stroke:none;fill:black;font-family:sans-serif;font-size:13;text-anchor:end;" transform="matrix(1 0 0 1 3036 1987)">Typeset at 100.0 points</text>
  <text style="stroke:none;fill:black;font-family:sans-serif;font-size:13;" transform="matrix(1 0 0 1 263 726)">Small</text>
  <text style="stroke:none;fill:black;font-family:sans-serif;font-size:13;" transform="matrix(1 0 0 1 263 1156)">Medium</text>
  <text style="stroke:none;fill:black;font-family:sans-serif;font-size:13;" transform="matrix(1 0 0 1 263 1586)">Large</text>
 </g>
 <g id="Guides">
  <g id="H-reference" style="fill:#27AAE1;stroke:none;" transform="matrix(1 0 0 1 339 696)">
   <path d="M0.993654 0L3.63775 0L29.3281-67.1323L30.0303-67.1323L30.0303-70.459L28.1226-70.459ZM11.6885-24.4799L46.9815-24.4799L46.2315-26.7285L12.4385-26.7285ZM55.1196 0L57.7637 0L30.6382-70.459L29.4326-70.459L29.4326-67.1323Z"/>
  </g>
  <line id="Baseline-S" style="fill:none;stroke:#27AAE1;opacity:1;stroke-width:0.5;" x1="263" x2="3036" y1="696" y2="696"/>
  <line id="Capline-S" style="fill:none;stroke:#27AAE1;opacity:1;stroke-width:0.5;" x1="263" x2="3036" y1="625.541" y2="625.541"/>
  <g id="H-reference" style="fill:#27AAE1;stroke:none;" transform="matrix(1 0 0 1 339 1126)">
   <path d="M0.993654 0L3.63775 0L29.3281-67.1323L30.0303-67.1323L30.0303-70.459L28.1226-70.459ZM11.6885-24.4799L46.9815-24.4799L46.2315-26.7285L12.4385-26.7285ZM55.1196 0L57.7637 0L30.6382-70.459L29.4326-70.459L29.4326-67.1323Z"/>
  </g>
  <line id="Baseline-M" style="fill:none;stroke:#27AAE1;opacity:1;stroke-width:0.5;" x1="263" x2="3036" y1="1126" y2="1126"/>
  <line id="Capline-M" style="fill:none;stroke:#27AAE1;opacity:1;stroke-width:0.5;" x1="263" x2="3036" y1="1055.54" y2="1055.54"/>
  <g id="H-reference" style="fill:#27AAE1;stroke:none;" transform="matrix(1 0 0 1 339 1556)">
   <path d="M0.993654 0L3.63775 0L29.3281-67.1323L30.0303-67.1323L30.0303-70.459L28.1226-70.459ZM11.6885-24.4799L46.9815-24.4799L46.2315-26.7285L12.4385-26.7285ZM55.1196 0L57.7637 0L30.6382-70.459L29.4326-70.459L29.4326-67.1323Z"/>
  </g>
  <line id="Baseline-L" style="fill:none;stroke:#27AAE1;opacity:1;stroke-width:0.5;" x1="263" x2="3036" y1="1556" y2="1556"/>
  <line id="Capline-L" style="fill:none;stroke:#27AAE1;opacity:1;stroke-width:0.5;" x1="263" x2="3036" y1="1485.54" y2="1485.54"/>
  <line id="left-margin-Ultralight-S" style="fill:none;stroke:#00AEEF;stroke-width:0.5;opacity:1.0;" x1="515.649" x2="515.649" y1="600.785" y2="720.121"/>
  <line id="right-margin-Ultralight-S" style="fill:none;stroke:#00AEEF;stroke-width:0.5;opacity:1.0;" x1="603.773" x2="603.773" y1="600.785" y2="720.121"/>
  <line id="left-margin-Regular-S" style="fill:none;stroke:#00AEEF;stroke-width:0.5;opacity:1.0;" x1="1403.58" x2="1403.58" y1="600.785" y2="720.121"/>
  <line id="right-margin-Regular-S" style="fill:none;stroke:#00AEEF;stroke-width:0.5;opacity:1.0;" x1="1496.11" x2="1496.11" y1="600.785" y2="720.121"/>
  <line id="left-margin-Black-S" style="fill:none;stroke:#00AEEF;stroke-width:0.5;opacity:1.0;" x1="2884.57" x2="2884.57" y1="600.785" y2="720.121"/>
  <line id="right-margin-Black-S" style="fill:none;stroke:#00AEEF;stroke-width:0.5;opacity:1.0;" x1="2982.23" x2="2982.23" y1="600.785" y2="720.121"/>
 </g>
 <g id="Symbols">
  <g id="Black-S" transform="matrix(1 0 0 1 2884.57 696)">
   <path class="monochrome-0 multicolor-0:tintColor hierarchical-0:primary SFSymbolsPreviewWireframe" d="M44.7095-53.7005C43.2083-49.3863 39.1057-46.2901 34.28-46.2901C29.4543-46.2901 25.3517-49.3863 23.8505-53.7005C23.6519-53.6674 23.448-53.6501 23.24-53.6501L15.88-53.6501C13.8476-53.6501 12.2-55.2977 12.2-57.3301C12.2-59.3625 13.8476-61.0101 15.88-61.0101L23.24-61.0101C23.448-61.0101 23.6519-60.9929 23.8505-60.9597C25.3517-65.2739 29.4543-68.3701 34.28-68.3701C39.1057-68.3701 43.2083-65.2739 44.7095-60.9597C44.9081-60.9929 45.112-61.0101 45.32-61.0101L82.12-61.0101C84.1524-61.0101 85.8-59.3625 85.8-57.3301C85.8-55.2977 84.1524-53.6501 82.12-53.6501L45.32-53.6501C45.112-53.6501 44.9081-53.6674 44.7095-53.7005ZM12.2-13.1701C12.2-15.2025 13.8476-16.8501 15.88-16.8501L23.24-16.8501C23.448-16.8501 23.6519-16.8329 23.8505-16.7997C25.3518-21.1139 29.4543-24.2101 34.28-24.2101C39.1057-24.2101 43.2082-21.1139 44.7095-16.7997C44.908-16.8329 45.112-16.8501 45.32-16.8501L82.12-16.8501C84.1524-16.8501 85.8-15.2025 85.8-13.1701C85.8-11.1377 84.1524-9.4901 82.12-9.4901L45.32-9.4901C45.112-9.4901 44.908-9.5074 44.7095-9.5405C43.2082-5.2263 39.1057-2.1301 34.28-2.1301C29.4543-2.1301 25.3518-5.2263 23.8505-9.5405C23.6519-9.5074 23.448-9.4901 23.24-9.4901L15.88-9.4901C13.8476-9.4901 12.2-11.1377 12.2-13.1701ZM82.12-38.9301C84.1524-38.9301 85.8-37.2825 85.8-35.2501C85.8-33.2177 84.1524-31.5701 82.12-31.5701L74.76-31.5701C74.552-31.5701 74.348-31.5874 74.1495-31.6205C72.6482-27.3063 68.5457-24.2101 63.72-24.2101C58.8943-24.2101 54.7918-27.3063 53.2905-31.6205C53.0919-31.5874 52.888-31.5701 52.68-31.5701L15.88-31.5701C13.8476-31.5701 12.2-33.2177 12.2-35.2501C12.2-37.2825 13.8476-38.9301 15.88-38.9301L52.68-38.9301C52.888-38.9301 53.0919-38.9129 53.2905-38.8797C54.7918-43.1939 58.8943-46.2901 63.72-46.2901C68.5457-46.2901 72.6482-43.1939 74.1495-38.8797C74.348-38.9129 74.552-38.9301 74.76-38.9301L82.12-38.9301Z"/>
   <path class="monochrome-1 multicolor-1:tintColor hierarchical-1:primary SFSymbolsPreviewWireframe" d="M37.96-57.3301C37.96-55.2977 36.3124-53.6501 34.28-53.6501C32.2476-53.6501 30.6-55.2977 30.6-57.3301C30.6-59.3625 32.2476-61.0101 34.28-61.0101C36.3124-61.0101 37.96-59.3625 37.96-57.3301ZM37.96-13.1701C37.96-11.1377 36.3124-9.4901 34.28-9.4901C32.2476-9.4901 30.6-11.1377 30.6-13.1701C30.6-15.2025 32.2476-16.8501 34.28-16.8501C36.3124-16.8501 37.96-15.2025 37.96-13.1701ZM63.72-31.5701C65.7524-31.5701 67.4-33.2177 67.4-35.2501C67.4-37.2825 65.7524-38.9301 63.72-38.9301C61.6876-38.9301 60.04-37.2825 60.04-35.2501C60.04-33.2177 61.6876-31.5701 63.72-31.5701Z"/>
  </g>
  <g id="Regular-S" transform="matrix(1 0 0 1 1403.58 696)">
   <path class="monochrome-0 multicolor-0:tintColor hierarchical-0:primary SFSymbolsPreviewWireframe" d="M41.7095-53.7005C40.2083-49.3863 36.1057-46.2901 31.28-46.2901C26.4543-46.2901 22.3517-49.3863 20.8505-53.7005C20.6519-53.6674 20.448-53.6501 20.24-53.6501L12.88-53.6501C10.8476-53.6501 9.2-55.2977 9.2-57.3301C9.2-59.3625 10.8476-61.0101 12.88-61.0101L20.24-61.0101C20.448-61.0101 20.6519-60.9929 20.8505-60.9597C22.3517-65.2739 26.4543-68.3701 31.28-68.3701C36.1057-68.3701 40.2083-65.2739 41.7095-60.9597C41.9081-60.9929 42.112-61.0101 42.32-61.0101L79.12-61.0101C81.1524-61.0101 82.8-59.3625 82.8-57.3301C82.8-55.2977 81.1524-53.6501 79.12-53.6501L42.32-53.6501C42.112-53.6501 41.9081-53.6674 41.7095-53.7005ZM9.2-13.1701C9.2-15.2025 10.8476-16.8501 12.88-16.8501L20.24-16.8501C20.448-16.8501 20.6519-16.8329 20.8505-16.7997C22.3518-21.1139 26.4543-24.2101 31.28-24.2101C36.1057-24.2101 40.2082-21.1139 41.7095-16.7997C41.908-16.8329 42.112-16.8501 42.32-16.8501L79.12-16.8501C81.1524-16.8501 82.8-15.2025 82.8-13.1701C82.8-11.1377 81.1524-9.4901 79.12-9.4901L42.32-9.4901C42.112-9.4901 41.908-9.5074 41.7095-9.5405C40.2082-5.2263 36.1057-2.1301 31.28-2.1301C26.4543-2.1301 22.3518-5.2263 20.8505-9.5405C20.6519-9.5074 20.448-9.4901 20.24-9.4901L12.88-9.4901C10.8476-9.4901 9.2-11.1377 9.2-13.1701ZM79.12-38.9301C81.1524-38.9301 82.8-37.2825 82.8-35.2501C82.8-33.2177 81.1524-31.5701 79.12-31.5701L71.76-31.5701C71.552-31.5701 71.348-31.5874 71.1495-31.6205C69.6482-27.3063 65.5457-24.2101 60.72-24.2101C55.8943-24.2101 51.7918-27.3063 50.2905-31.6205C50.0919-31.5874 49.888-31.5701 49.68-31.5701L12.88-31.5701C10.8476-31.5701 9.2-33.2177 9.2-35.2501C9.2-37.2825 10.8476-38.9301 12.88-38.9301L49.68-38.9301C49.888-38.9301 50.0919-38.9129 50.2905-38.8797C51.7918-43.1939 55.8943-46.2901 60.72-46.2901C65.5457-46.2901 69.6482-43.1939 71.1495-38.8797C71.348-38.9129 71.552-38.9301 71.76-38.9301L79.12-38.9301Z"/>
   <path class="monochrome-1 multicolor-1:tintColor hierarchical-1:primary SFSymbolsPreviewWireframe" d="M34.96-57.3301C34.96-55.2977 33.3124-53.6501 31.28-53.6501C29.2476-53.6501 27.6-55.2977 27.6-57.3301C27.6-59.3625 29.2476-61.0101 31.28-61.0101C33.3124-61.0101 34.96-59.3625 34.96-57.3301ZM34.96-13.1701C34.96-11.1377 33.3124-9.4901 31.28-9.4901C29.2476-9.4901 27.6-11.1377 27.6-13.1701C27.6-15.2025 29.2476-16.8501 31.28-16.8501C33.3124-16.8501 34.96-15.2025 34.96-13.1701ZM60.72-31.5701C62.7524-31.5701 64.4-33.2177 64.4-35.2501C64.4-37.2825 62.7524-38.9301 60.72-38.9301C58.6876-38.9301 57.04-37.2825 57.04-35.2501C57.04-33.2177 58.6876-31.5701 60.72-31.5701Z"/>
  </g>
  <g id="Ultralight-S" transform="matrix(1 0 0 1 515.649 696)">
   <path class="monochrome-0 multicolor-0:tintColor hierarchical-0:primary SFSymbolsPreviewWireframe" d="M39.7095-53.7005C38.2083-49.3863 34.1057-46.2901 29.28-46.2901C24.4543-46.2901 20.3517-49.3863 18.8505-53.7005C18.6519-53.6674 18.448-53.6501 18.24-53.6501L10.88-53.6501C8.8476-53.6501 7.2-55.2977 7.2-57.3301C7.2-59.3625 8.8476-61.0101 10.88-61.0101L18.24-61.0101C18.448-61.0101 18.6519-60.9929 18.8505-60.9597C20.3517-65.2739 24.4543-68.3701 29.28-68.3701C34.1057-68.3701 38.2083-65.2739 39.7095-60.9597C39.9081-60.9929 40.112-61.0101 40.32-61.0101L77.12-61.0101C79.1524-61.0101 80.8-59.3625 80.8-57.3301C80.8-55.2977 79.1524-53.6501 77.12-53.6501L40.32-53.6501C40.112-53.6501 39.9081-53.6674 39.7095-53.7005ZM7.2-13.1701C7.2-15.2025 8.8476-16.8501 10.88-16.8501L18.24-16.8501C18.448-16.8501 18.6519-16.8329 18.8505-16.7997C20.3518-21.1139 24.4543-24.2101 29.28-24.2101C34.1057-24.2101 38.2082-21.1139 39.7095-16.7997C39.908-16.8329 40.112-16.8501 40.32-16.8501L77.12-16.8501C79.1524-16.8501 80.8-15.2025 80.8-13.1701C80.8-11.1377 79.1524-9.4901 77.12-9.4901L40.32-9.4901C40.112-9.4901 39.908-9.5074 39.7095-9.5405C38.2082-5.2263 34.1057-2.1301 29.28-2.1301C24.4543-2.1301 20.3518-5.2263 18.8505-9.5405C18.6519-9.5074 18.448-9.4901 18.24-9.4901L10.88-9.4901C8.8476-9.4901 7.2-11.1377 7.2-13.1701ZM77.12-38.9301C79.1524-38.9301 80.8-37.2825 80.8-35.2501C80.8-33.2177 79.1524-31.5701 77.12-31.5701L69.76-31.5701C69.552-31.5701 69.348-31.5874 69.1495-31.6205C67.6482-27.3063 63.5457-24.2101 58.72-24.2101C53.8943-24.2101 49.7918-27.3063 48.2905-31.6205C48.0919-31.5874 47.888-31.5701 47.68-31.5701L10.88-31.5701C8.8476-31.5701 7.2-33.2177 7.2-35.2501C7.2-37.2825 8.8476-38.9301 10.88-38.9301L47.68-38.9301C47.888-38.9301 48.0919-38.9129 48.2905-38.8797C49.7918-43.1939 53.8943-46.2901 58.72-46.2901C63.5457-46.2901 67.6482-43.1939 69.1495-38.8797C69.348-38.9129 69.552-38.9301 69.76-38.9301L77.12-38.9301Z"/>
   <path class="monochrome-1 multicolor-1:tintColor hierarchical-1:primary SFSymbolsPreviewWireframe" d="M32.96-57.3301C32.96-55.2977 31.3124-53.6501 29.28-53.6501C27.2476-53.6501 25.6-55.2977 25.6-57.3301C25.6-59.3625 27.2476-61.0101 29.28-61.0101C31.3124-61.0101 32.96-59.3625 32.96-57.3301ZM32.96-13.1701C32.96-11.1377 31.3124-9.4901 29.28-9.4901C27.2476-9.4901 25.6-11.1377 25.6-13.1701C25.6-15.2025 27.2476-16.8501 29.28-16.8501C31.3124-16.8501 32.96-15.2025 32.96-13.1701ZM58.72-31.5701C60.7524-31.5701 62.4-33.2177 62.4-35.2501C62.4-37.2825 60.7524-38.9301 58.72-38.9301C56.6876-38.9301 55.04-37.2825 55.04-35.2501C55.04-33.2177 56.6876-31.5701 58.72-31.5701Z"/>
  </g>
 </g>
</svg>
