<?xml version="1.0" encoding="UTF-8"?>
<!--Generator: Apple Native CoreSVG 232.5-->
<!DOCTYPE svg
PUBLIC "-//W3C//DTD SVG 1.1//EN"
       "http://www.w3.org/Graphics/SVG/1.1/DTD/svg11.dtd">
<svg version="1.1" xmlns="http://www.w3.org/2000/svg" xmlns:xlink="http://www.w3.org/1999/xlink" width="3300" height="2200">
 <!--glyph: "", point size: 100.0, font version: "19.2d2e1", template writer version: "128"-->
 <style>.monochrome-0 {-sfsymbols-motion-group:1}
.monochrome-1 {opacity:0.0;-sfsymbols-clear-behind:true;-sfsymbols-motion-group:0}

.multicolor-0:tintColor {-sfsymbols-motion-group:1}
.multicolor-1:tintColor {-sfsymbols-motion-group:0}

.hierarchical-0:primary {-sfsymbols-motion-group:1}
.hierarchical-1:primary {-sfsymbols-motion-group:0}

.SFSymbolsPreviewWireframe {fill:none;opacity:1.0;stroke:black;stroke-width:0.5}
</style>
 <g id="Notes">
  <rect height="2200" id="artboard" style="fill:white;opacity:1" width="3300" x="0" y="0"/>
  <line style="fill:none;stroke:black;opacity:1;stroke-width:0.5;" x1="263" x2="3036" y1="292" y2="292"/>
  <text style="stroke:none;fill:black;font-family:sans-serif;font-size:13;font-weight:bold;" transform="matrix(1 0 0 1 263 322)">Weight/Scale Variations</text>
  <text style="stroke:none;fill:black;font-family:sans-serif;font-size:13;text-anchor:middle;" transform="matrix(1 0 0 1 559.711 322)">Ultralight</text>
  <text style="stroke:none;fill:black;font-family:sans-serif;font-size:13;text-anchor:middle;" transform="matrix(1 0 0 1 856.422 322)">Thin</text>
  <text style="stroke:none;fill:black;font-family:sans-serif;font-size:13;text-anchor:middle;" transform="matrix(1 0 0 1 1153.13 322)">Light</text>
  <text style="stroke:none;fill:black;font-family:sans-serif;font-size:13;text-anchor:middle;" transform="matrix(1 0 0 1 1449.84 322)">Regular</text>
  <text style="stroke:none;fill:black;font-family:sans-serif;font-size:13;text-anchor:middle;" transform="matrix(1 0 0 1 1746.56 322)">Medium</text>
  <text style="stroke:none;fill:black;font-family:sans-serif;font-size:13;text-anchor:middle;" transform="matrix(1 0 0 1 2043.27 322)">Semibold</text>
  <text style="stroke:none;fill:black;font-family:sans-serif;font-size:13;text-anchor:middle;" transform="matrix(1 0 0 1 2339.98 322)">Bold</text>
  <text style="stroke:none;fill:black;font-family:sans-serif;font-size:13;text-anchor:middle;" transform="matrix(1 0 0 1 2636.69 322)">Heavy</text>
  <text style="stroke:none;fill:black;font-family:sans-serif;font-size:13;text-anchor:middle;" transform="matrix(1 0 0 1 2933.4 322)">Black</text>
  <line style="fill:none;stroke:black;opacity:1;stroke-width:0.5;" x1="263" x2="3036" y1="1903" y2="1903"/>
  <g transform="matrix(0.2 0 0 0.2 263 1933)">
   <path d="m46.2402 4.15039c21.5332 0 39.4531-17.8711 39.4531-39.4043s-17.9688-39.4043-39.502-39.4043c-21.4844 0-39.3555 17.8711-39.3555 39.4043s17.9199 39.4043 39.4043 39.4043Zm0-7.42188c-17.7246 0-31.8848-14.209-31.8848-31.9824s14.1113-31.9824 31.8359-31.9824c17.7734 0 32.0312 14.209 32.0312 31.9824s-14.209 31.9824-31.9824 31.9824Zm-17.9688-31.9824c0 2.14844 1.51367 3.61328 3.75977 3.61328h10.498v10.5957c0 2.19727 1.46484 3.71094 3.61328 3.71094 2.24609 0 3.71094-1.51367 3.71094-3.71094v-10.5957h10.5957c2.19727 0 3.71094-1.46484 3.71094-3.61328 0-2.19727-1.51367-3.71094-3.71094-3.71094h-10.5957v-10.5469c0-2.24609-1.46484-3.75977-3.71094-3.75977-2.14844 0-3.61328 1.51367-3.61328 3.75977v10.5469h-10.498c-2.24609 0-3.75977 1.51367-3.75977 3.71094Z"/>
  </g>
  <g transform="matrix(0.2 0 0 0.2 281.506 1933)">
   <path d="m58.5449 14.5508c27.2461 0 49.8047-22.6074 49.8047-49.8047 0-27.2461-22.6074-49.8047-49.8535-49.8047-27.1973 0-49.7559 22.5586-49.7559 49.8047 0 27.1973 22.6074 49.8047 49.8047 49.8047Zm0-8.30078c-23.0469 0-41.4551-18.457-41.4551-41.5039s18.3594-41.5039 41.4062-41.5039 41.5527 18.457 41.5527 41.5039-18.457 41.5039-41.5039 41.5039Zm-22.6562-41.5039c0 2.39258 1.66016 4.00391 4.15039 4.00391h14.3555v14.4043c0 2.44141 1.66016 4.15039 4.05273 4.15039 2.44141 0 4.15039-1.66016 4.15039-4.15039v-14.4043h14.4043c2.44141 0 4.15039-1.61133 4.15039-4.00391 0-2.44141-1.70898-4.15039-4.15039-4.15039h-14.4043v-14.3555c0-2.49023-1.70898-4.19922-4.15039-4.19922-2.39258 0-4.05273 1.70898-4.05273 4.19922v14.3555h-14.3555c-2.49023 0-4.15039 1.70898-4.15039 4.15039Z"/>
  </g>
  <g transform="matrix(0.2 0 0 0.2 304.924 1933)">
   <path d="m74.8535 28.3203c34.8145 0 63.623-28.8086 63.623-63.5742 0-34.8145-28.8574-63.623-63.6719-63.623-34.7656 0-63.5254 28.8086-63.5254 63.623 0 34.7656 28.8086 63.5742 63.5742 63.5742Zm0-9.08203c-30.1758 0-54.4434-24.3164-54.4434-54.4922 0-30.2246 24.2188-54.4922 54.3945-54.4922 30.2246 0 54.541 24.2676 54.541 54.4922 0 30.1758-24.2676 54.4922-54.4922 54.4922Zm-28.8574-54.4922c0 2.58789 1.85547 4.39453 4.58984 4.39453h19.7266v19.7754c0 2.68555 1.85547 4.58984 4.44336 4.58984 2.68555 0 4.54102-1.85547 4.54102-4.58984v-19.7754h19.7754c2.68555 0 4.58984-1.80664 4.58984-4.39453 0-2.73438-1.85547-4.58984-4.58984-4.58984h-19.7754v-19.7266c0-2.73438-1.85547-4.63867-4.54102-4.63867-2.58789 0-4.44336 1.9043-4.44336 4.63867v19.7266h-19.7266c-2.73438 0-4.58984 1.85547-4.58984 4.58984Z"/>
  </g>
  <text style="stroke:none;fill:black;font-family:sans-serif;font-size:13;font-weight:bold;" transform="matrix(1 0 0 1 263 1953)">Design Variations</text>
  <text style="stroke:none;fill:black;font-family:sans-serif;font-size:13;" transform="matrix(1 0 0 1 263 1971)">Symbols are supported in up to nine weights and three scales.</text>
  <text style="stroke:none;fill:black;font-family:sans-serif;font-size:13;" transform="matrix(1 0 0 1 263 1989)">For optimal layout with text and other symbols, vertically align</text>
  <text style="stroke:none;fill:black;font-family:sans-serif;font-size:13;" transform="matrix(1 0 0 1 263 2007)">symbols with the adjacent text.</text>
  <line style="fill:none;stroke:#00AEEF;stroke-width:0.5;opacity:1.0;" x1="776" x2="776" y1="1919" y2="1933"/>
  <g transform="matrix(0.2 0 0 0.2 776 1933)">
   <path d="m16.5527 0.78125c2.58789 0 3.85742-0.976562 4.78516-3.71094l6.29883-17.2363h28.8086l6.29883 17.2363c0.927734 2.73438 2.19727 3.71094 4.73633 3.71094 2.58789 0 4.24805-1.5625 4.24805-4.00391 0-0.830078-0.146484-1.61133-0.537109-2.63672l-22.9004-60.9863c-1.12305-2.97852-3.125-4.49219-6.25-4.49219-3.02734 0-5.07812 1.46484-6.15234 4.44336l-22.9004 61.084c-0.390625 1.02539-0.537109 1.80664-0.537109 2.63672 0 2.44141 1.5625 3.95508 4.10156 3.95508Zm13.4766-28.3691 11.8652-32.8613h0.244141l11.8652 32.8613Z"/>
  </g>
  <line style="fill:none;stroke:#00AEEF;stroke-width:0.5;opacity:1.0;" x1="792.836" x2="792.836" y1="1919" y2="1933"/>
  <text style="stroke:none;fill:black;font-family:sans-serif;font-size:13;font-weight:bold;" transform="matrix(1 0 0 1 776 1953)">Margins</text>
  <text style="stroke:none;fill:black;font-family:sans-serif;font-size:13;" transform="matrix(1 0 0 1 776 1971)">Leading and trailing margins on the left and right side of each symbol</text>
  <text style="stroke:none;fill:black;font-family:sans-serif;font-size:13;" transform="matrix(1 0 0 1 776 1989)">can be adjusted by modifying the x-location of the margin guidelines.</text>
  <text style="stroke:none;fill:black;font-family:sans-serif;font-size:13;" transform="matrix(1 0 0 1 776 2007)">Modifications are automatically applied proportionally to all</text>
  <text style="stroke:none;fill:black;font-family:sans-serif;font-size:13;" transform="matrix(1 0 0 1 776 2025)">scales and weights.</text>
  <g transform="matrix(0.2 0 0 0.2 1289 1933)">
   <path d="m14.209 9.32617 8.49609 8.54492c4.29688 4.3457 9.22852 4.05273 13.8672-1.07422l53.4668-58.9355-4.83398-4.88281-53.0762 58.3984c-1.75781 2.00195-3.41797 2.49023-5.76172 0.146484l-5.85938-5.81055c-2.34375-2.29492-1.80664-4.00391 0.195312-5.81055l57.373-54.0039-4.88281-4.83398-57.959 54.4434c-4.93164 4.58984-5.32227 9.47266-1.02539 13.8184Zm32.0801-90.9668c-2.09961 2.05078-2.24609 4.93164-1.07422 6.88477 1.17188 1.80664 3.4668 2.97852 6.68945 2.14844 7.32422-1.70898 14.9414-2.00195 22.0703 2.68555l-2.92969 7.27539c-1.70898 4.15039-0.830078 7.08008 1.85547 9.81445l11.4746 11.5723c2.44141 2.44141 4.49219 2.53906 7.32422 2.05078l5.32227-0.976562 3.32031 3.36914-0.195312 2.7832c-0.195312 2.49023 0.439453 4.39453 2.88086 6.78711l3.80859 3.71094c2.39258 2.39258 5.46875 2.53906 7.8125 0.195312l14.5508-14.5996c2.34375-2.34375 2.24609-5.32227-0.146484-7.71484l-3.85742-3.80859c-2.39258-2.39258-4.24805-3.17383-6.64062-2.97852l-2.88086 0.244141-3.22266-3.17383 1.2207-5.61523c0.634766-2.83203-0.146484-5.0293-3.07617-7.95898l-10.9863-10.9375c-16.6992-16.6016-38.8672-16.2109-53.3203-1.75781Zm7.4707 1.85547c12.1582-8.88672 28.6133-7.37305 39.7461 3.75977l12.1582 12.0605c1.17188 1.17188 1.36719 2.09961 1.02539 3.80859l-1.61133 7.42188 7.51953 7.42188 4.93164-0.292969c1.26953-0.0488281 1.66016 0.0488281 2.63672 1.02539l2.88086 2.88086-12.207 12.207-2.88086-2.88086c-0.976562-0.976562-1.12305-1.36719-1.07422-2.68555l0.341797-4.88281-7.4707-7.42188-7.61719 1.26953c-1.61133 0.341797-2.34375 0.195312-3.56445-0.976562l-10.0098-10.0098c-1.26953-1.17188-1.41602-2.00195-0.634766-3.85742l4.39453-10.4492c-7.8125-7.27539-17.9688-10.4004-28.125-7.42188-0.78125 0.195312-1.07422-0.439453-0.439453-0.976562Z"/>
  </g>
  <text style="stroke:none;fill:black;font-family:sans-serif;font-size:13;font-weight:bold;" transform="matrix(1 0 0 1 1289 1953)">Exporting</text>
  <text style="stroke:none;fill:black;font-family:sans-serif;font-size:13;" transform="matrix(1 0 0 1 1289 1971)">Symbols should be outlined when exporting to ensure the</text>
  <text style="stroke:none;fill:black;font-family:sans-serif;font-size:13;" transform="matrix(1 0 0 1 1289 1989)">design is preserved when submitting to Xcode.</text>
  <text id="template-version" style="stroke:none;fill:black;font-family:sans-serif;font-size:13;text-anchor:end;" transform="matrix(1 0 0 1 3036 1933)">Template v.5.0</text>
  <text style="stroke:none;fill:black;font-family:sans-serif;font-size:13;text-anchor:end;" transform="matrix(1 0 0 1 3036 1951)">Requires Xcode 15 or greater</text>
  <text id="descriptive-name" style="stroke:none;fill:black;font-family:sans-serif;font-size:13;text-anchor:end;" transform="matrix(1 0 0 1 3036 1969)">Generated from Dragon</text>
  <text style="stroke:none;fill:black;font-family:sans-serif;font-size:13;text-anchor:end;" transform="matrix(1 0 0 1 3036 1987)">Typeset at 100.0 points</text>
  <text style="stroke:none;fill:black;font-family:sans-serif;font-size:13;" transform="matrix(1 0 0 1 263 726)">Small</text>
  <text style="stroke:none;fill:black;font-family:sans-serif;font-size:13;" transform="matrix(1 0 0 1 263 1156)">Medium</text>
  <text style="stroke:none;fill:black;font-family:sans-serif;font-size:13;" transform="matrix(1 0 0 1 263 1586)">Large</text>
 </g>
 <g id="Guides">
  <g id="H-reference" style="fill:#27AAE1;stroke:none;" transform="matrix(1 0 0 1 339 696)">
   <path d="M0.993654 0L3.63775 0L29.3281-67.1323L30.0303-67.1323L30.0303-70.459L28.1226-70.459ZM11.6885-24.4799L46.9815-24.4799L46.2315-26.7285L12.4385-26.7285ZM55.1196 0L57.7637 0L30.6382-70.459L29.4326-70.459L29.4326-67.1323Z"/>
  </g>
  <line id="Baseline-S" style="fill:none;stroke:#27AAE1;opacity:1;stroke-width:0.5;" x1="263" x2="3036" y1="696" y2="696"/>
  <line id="Capline-S" style="fill:none;stroke:#27AAE1;opacity:1;stroke-width:0.5;" x1="263" x2="3036" y1="625.541" y2="625.541"/>
  <g id="H-reference" style="fill:#27AAE1;stroke:none;" transform="matrix(1 0 0 1 339 1126)">
   <path d="M0.993654 0L3.63775 0L29.3281-67.1323L30.0303-67.1323L30.0303-70.459L28.1226-70.459ZM11.6885-24.4799L46.9815-24.4799L46.2315-26.7285L12.4385-26.7285ZM55.1196 0L57.7637 0L30.6382-70.459L29.4326-70.459L29.4326-67.1323Z"/>
  </g>
  <line id="Baseline-M" style="fill:none;stroke:#27AAE1;opacity:1;stroke-width:0.5;" x1="263" x2="3036" y1="1126" y2="1126"/>
  <line id="Capline-M" style="fill:none;stroke:#27AAE1;opacity:1;stroke-width:0.5;" x1="263" x2="3036" y1="1055.54" y2="1055.54"/>
  <g id="H-reference" style="fill:#27AAE1;stroke:none;" transform="matrix(1 0 0 1 339 1556)">
   <path d="M0.993654 0L3.63775 0L29.3281-67.1323L30.0303-67.1323L30.0303-70.459L28.1226-70.459ZM11.6885-24.4799L46.9815-24.4799L46.2315-26.7285L12.4385-26.7285ZM55.1196 0L57.7637 0L30.6382-70.459L29.4326-70.459L29.4326-67.1323Z"/>
  </g>
  <line id="Baseline-L" style="fill:none;stroke:#27AAE1;opacity:1;stroke-width:0.5;" x1="263" x2="3036" y1="1556" y2="1556"/>
  <line id="Capline-L" style="fill:none;stroke:#27AAE1;opacity:1;stroke-width:0.5;" x1="263" x2="3036" y1="1485.54" y2="1485.54"/>
  <line id="left-margin-Ultralight-S" style="fill:none;stroke:#00AEEF;stroke-width:0.5;opacity:1.0;" x1="515.649" x2="515.649" y1="600.785" y2="720.121"/>
  <line id="right-margin-Ultralight-S" style="fill:none;stroke:#00AEEF;stroke-width:0.5;opacity:1.0;" x1="603.773" x2="603.773" y1="600.785" y2="720.121"/>
  <line id="left-margin-Regular-S" style="fill:none;stroke:#00AEEF;stroke-width:0.5;opacity:1.0;" x1="1403.58" x2="1403.58" y1="600.785" y2="720.121"/>
  <line id="right-margin-Regular-S" style="fill:none;stroke:#00AEEF;stroke-width:0.5;opacity:1.0;" x1="1496.11" x2="1496.11" y1="600.785" y2="720.121"/>
  <line id="left-margin-Black-S" style="fill:none;stroke:#00AEEF;stroke-width:0.5;opacity:1.0;" x1="2884.57" x2="2884.57" y1="600.785" y2="720.121"/>
  <line id="right-margin-Black-S" style="fill:none;stroke:#00AEEF;stroke-width:0.5;opacity:1.0;" x1="2982.23" x2="2982.23" y1="600.785" y2="720.121"/>
 </g>
 <g id="Symbols">
  <g id="Black-S" transform="matrix(1 0 0 1 2884.57 696)">
   <path class="monochrome-0 multicolor-0:tintColor hierarchical-0:primary SFSymbolsPreviewWireframe" d="M53.4631-35.4511C54.0866-35.8313 54.6156-36.628 55.0422-37.5135C60.6565-35.2189 64.6019-29.7967 64.6019-23.4733C64.6019-15.0729 57.639-8.2629 49.05-8.2629C45.5241-8.2629 42.2723-9.4106 39.6638-11.3446C38.8081-11.7497 38.1041-12.139 37.528-12.4575C36.6344-12.9515 36.0485-13.2755 35.6816-13.2248C34.609-13.0769 34.9204-12.0901 35.2034-11.1936C35.3955-10.5847 35.5746-10.0174 35.2974-9.7834C35.0074-9.5383 34.068-10.4341 32.9703-11.4806C31.476-12.9053 29.6884-14.6097 28.8455-14.0977C28.1791-13.6929 28.8261-12.5948 29.6182-11.2508L29.6769-11.151C30.0115-10.5829 30.3993-10.0043 30.7531-9.4763C31.4724-8.4034 32.0517-7.5388 31.7619-7.3925C31.4115-7.2157 28.9702-8.8634 26.913-11.151C26.1189-12.0338 25.3499-12.9908 24.6351-13.8801L24.6351-13.8803C23.0705-15.827 21.7671-17.4487 21.0354-17.2566C20.1552-17.0256 20.8211-15.21 21.7994-13.4629C22.2569-12.6459 22.7951-11.8139 23.261-11.0935L23.261-11.0933C23.9857-9.9732 24.5357-9.1231 24.3363-9.0185C24.0671-8.8778 21.6986-11.1873 20.09-14.0977C19.1345-15.8265 18.3322-17.7369 17.6826-19.2835C16.9782-20.9609 16.4535-22.2103 16.108-22.336C14.9076-22.7729 14.9076-20.3253 15.3891-16.7929C15.4519-16.332 15.5454-15.8486 15.6606-15.3564C20.3296-0.2496 34.6724 10.75 51.6419 10.75C72.3989 10.75 89.2256-5.7072 89.2256-26.0083C89.2256-45.3305 73.9829-61.1705 54.6163-62.6534C54.6407-63.5636 55.1158-65.3687 55.1158-65.3687C55.1158-65.3687 58.5348-73.6407 58.7155-75.4084C58.7274-75.5257 58.7416-75.6532 58.7568-75.789C58.9698-77.6988 59.366-81.25 56.3109-81.25C54.6794-81.25 53.9207-80.0363 53.053-78.6481L53.053-78.6481C52.7199-78.1152 52.3706-77.5566 51.9497-77.0311C48.9188-73.2461 43.8221-68.5194 40.9322-66.0012C34.8239-60.6787 28.831-56.3043 25.3357-53.7531L25.3355-53.753C23.7458-52.5927 22.6729-51.8095 22.3408-51.4858C19.8385-49.0464 10.8663-32.8627 10.8663-32.8627C10.8663-32.8627 7.96481-27.6704 8.99613-26.6173C10.0275-25.5643 12.5145-25.8056 12.5145-25.8056C12.5145-25.8056 45.9257-33.4706 48.917-34.075C49.7223-34.2378 50.2909-34.3318 50.7273-34.4038C51.9124-34.5995 52.1251-34.6348 53.4631-35.4511Z"/>
   <path class="monochrome-1 multicolor-1:tintColor hierarchical-1:primary SFSymbolsPreviewWireframe" d="M29.8401-45.301C28.0466-43.5963 25.0723-39.5273 25.0723-39.5273C25.0723-39.5273 30.6002-39.1868 33.6446-42.0806C36.6892-44.9747 35.9917-49.9066 35.9917-49.9066C35.9917-49.9066 31.6334-47.0057 29.8401-45.301Z"/>
  </g>
  <g id="Regular-S" transform="matrix(1 0 0 1 1403.58 696)">
   <path class="monochrome-0 multicolor-0:tintColor hierarchical-0:primary SFSymbolsPreviewWireframe" d="M50.4631-35.4511C51.0866-35.8313 51.6156-36.628 52.0422-37.5135C57.6565-35.2189 61.6019-29.7967 61.6019-23.4733C61.6019-15.0729 54.639-8.2629 46.05-8.2629C42.5241-8.2629 39.2723-9.4106 36.6638-11.3446C35.8081-11.7497 35.1041-12.139 34.528-12.4575C33.6344-12.9515 33.0485-13.2755 32.6816-13.2248C31.609-13.0769 31.9204-12.0901 32.2034-11.1936C32.3955-10.5847 32.5746-10.0174 32.2974-9.7834C32.0074-9.5383 31.068-10.4341 29.9703-11.4806C28.476-12.9053 26.6884-14.6097 25.8455-14.0977C25.1791-13.6929 25.8261-12.5948 26.6182-11.2508L26.6769-11.151C27.0115-10.5829 27.3993-10.0043 27.7531-9.4763C28.4724-8.4034 29.0517-7.5388 28.7619-7.3925C28.4115-7.2157 25.9702-8.8634 23.913-11.151C23.1189-12.0338 22.3499-12.9908 21.6351-13.8801L21.6351-13.8803C20.0705-15.827 18.7671-17.4487 18.0354-17.2566C17.1552-17.0256 17.8211-15.21 18.7994-13.4629C19.2569-12.6459 19.7951-11.8139 20.261-11.0935L20.261-11.0933C20.9857-9.9732 21.5357-9.1231 21.3363-9.0185C21.0671-8.8778 18.6986-11.1873 17.09-14.0977C16.1345-15.8265 15.3322-17.7369 14.6826-19.2835C13.9782-20.9609 13.4535-22.2103 13.108-22.336C11.9076-22.7729 11.9076-20.3253 12.3891-16.7929C12.4519-16.332 12.5454-15.8486 12.6606-15.3564C17.3296-0.2496 31.6724 10.75 48.6419 10.75C69.3989 10.75 86.2256-5.7072 86.2256-26.0083C86.2256-45.3305 70.9829-61.1705 51.6163-62.6534C51.6407-63.5636 52.1158-65.3687 52.1158-65.3687C52.1158-65.3687 55.5348-73.6407 55.7155-75.4084C55.7274-75.5257 55.7416-75.6532 55.7568-75.789C55.9698-77.6988 56.366-81.25 53.3109-81.25C51.6794-81.25 50.9207-80.0363 50.053-78.6481L50.053-78.6481C49.7199-78.1152 49.3706-77.5566 48.9497-77.0311C45.9188-73.2461 40.8221-68.5194 37.9322-66.0012C31.8239-60.6787 25.831-56.3043 22.3357-53.7531L22.3355-53.753C20.7458-52.5927 19.6729-51.8095 19.3408-51.4858C16.8385-49.0464 7.86632-32.8627 7.86632-32.8627C7.86632-32.8627 4.96481-27.6704 5.99613-26.6173C7.02745-25.5643 9.51446-25.8056 9.51446-25.8056C9.51446-25.8056 42.9257-33.4706 45.917-34.075C46.7223-34.2378 47.2909-34.3318 47.7273-34.4038C48.9124-34.5995 49.1251-34.6348 50.4631-35.4511Z"/>
   <path class="monochrome-1 multicolor-1:tintColor hierarchical-1:primary SFSymbolsPreviewWireframe" d="M26.8401-45.301C25.0466-43.5963 22.0723-39.5273 22.0723-39.5273C22.0723-39.5273 27.6002-39.1868 30.6446-42.0806C33.6892-44.9747 32.9917-49.9066 32.9917-49.9066C32.9917-49.9066 28.6334-47.0057 26.8401-45.301Z"/>
  </g>
  <g id="Ultralight-S" transform="matrix(1 0 0 1 515.649 696)">
   <path class="monochrome-0 multicolor-0:tintColor hierarchical-0:primary SFSymbolsPreviewWireframe" d="M48.4631-35.4511C49.0866-35.8313 49.6156-36.628 50.0422-37.5135C55.6565-35.2189 59.6019-29.7967 59.6019-23.4733C59.6019-15.0729 52.639-8.2629 44.05-8.2629C40.5241-8.2629 37.2723-9.4106 34.6638-11.3446C33.8081-11.7497 33.1041-12.139 32.528-12.4575C31.6344-12.9515 31.0485-13.2755 30.6816-13.2248C29.609-13.0769 29.9204-12.0901 30.2034-11.1936C30.3955-10.5847 30.5746-10.0174 30.2974-9.7834C30.0074-9.5383 29.068-10.4341 27.9703-11.4806C26.476-12.9053 24.6884-14.6097 23.8455-14.0977C23.1791-13.6929 23.8261-12.5948 24.6182-11.2508L24.6769-11.151C25.0115-10.5829 25.3993-10.0043 25.7531-9.4763C26.4724-8.4034 27.0517-7.5388 26.7619-7.3925C26.4115-7.2157 23.9702-8.8634 21.913-11.151C21.1189-12.0338 20.3499-12.9908 19.6351-13.8801L19.6351-13.8803C18.0705-15.827 16.7671-17.4487 16.0354-17.2566C15.1552-17.0256 15.8211-15.21 16.7994-13.4629C17.2569-12.6459 17.7951-11.8139 18.261-11.0935L18.261-11.0933C18.9857-9.9732 19.5357-9.1231 19.3363-9.0185C19.0671-8.8778 16.6986-11.1873 15.09-14.0977C14.1345-15.8265 13.3322-17.7369 12.6826-19.2835C11.9782-20.9609 11.4535-22.2103 11.108-22.336C9.9076-22.7729 9.9076-20.3253 10.3891-16.7929C10.4519-16.332 10.5454-15.8486 10.6606-15.3564C15.3296-0.2496 29.6724 10.75 46.6419 10.75C67.3989 10.75 84.2256-5.7072 84.2256-26.0083C84.2256-45.3305 68.9829-61.1705 49.6163-62.6534C49.6407-63.5636 50.1158-65.3687 50.1158-65.3687C50.1158-65.3687 53.5348-73.6407 53.7155-75.4084C53.7274-75.5257 53.7416-75.6532 53.7568-75.789C53.9698-77.6988 54.366-81.25 51.3109-81.25C49.6794-81.25 48.9207-80.0363 48.053-78.6481L48.053-78.6481C47.7199-78.1152 47.3706-77.5566 46.9497-77.0311C43.9188-73.2461 38.8221-68.5194 35.9322-66.0012C29.8239-60.6787 23.831-56.3043 20.3357-53.7531L20.3355-53.753C18.7458-52.5927 17.6729-51.8095 17.3408-51.4858C14.8385-49.0464 5.86632-32.8627 5.86632-32.8627C5.86632-32.8627 2.96481-27.6704 3.99613-26.6173C5.02745-25.5643 7.51446-25.8056 7.51446-25.8056C7.51446-25.8056 40.9257-33.4706 43.917-34.075C44.7223-34.2378 45.2909-34.3318 45.7273-34.4038C46.9124-34.5995 47.1251-34.6348 48.4631-35.4511Z"/>
   <path class="monochrome-1 multicolor-1:tintColor hierarchical-1:primary SFSymbolsPreviewWireframe" d="M24.8401-45.301C23.0466-43.5963 20.0723-39.5273 20.0723-39.5273C20.0723-39.5273 25.6002-39.1868 28.6446-42.0806C31.6892-44.9747 30.9917-49.9066 30.9917-49.9066C30.9917-49.9066 26.6334-47.0057 24.8401-45.301Z"/>
  </g>
 </g>
</svg>
