<?xml version="1.0" encoding="UTF-8"?>
<!--Generator: Apple Native CoreSVG 232.5-->
<!DOCTYPE svg
PUBLIC "-//W3C//DTD SVG 1.1//EN"
       "http://www.w3.org/Graphics/SVG/1.1/DTD/svg11.dtd">
<svg version="1.1" xmlns="http://www.w3.org/2000/svg" xmlns:xlink="http://www.w3.org/1999/xlink" width="3300" height="2200">
 <!--glyph: "", point size: 100.0, font version: "19.2d2e1", template writer version: "128"-->
 <style>.monochrome-0 {-sfsymbols-motion-group:0}

.multicolor-0:tintColor {-sfsymbols-motion-group:0}

.hierarchical-0:primary {-sfsymbols-motion-group:0}

.SFSymbolsPreviewWireframe {fill:none;opacity:1.0;stroke:black;stroke-width:0.5}
</style>
 <g id="Notes">
  <rect height="2200" id="artboard" style="fill:white;opacity:1" width="3300" x="0" y="0"/>
  <line style="fill:none;stroke:black;opacity:1;stroke-width:0.5;" x1="263" x2="3036" y1="292" y2="292"/>
  <text style="stroke:none;fill:black;font-family:sans-serif;font-size:13;font-weight:bold;" transform="matrix(1 0 0 1 263 322)">Weight/Scale Variations</text>
  <text style="stroke:none;fill:black;font-family:sans-serif;font-size:13;text-anchor:middle;" transform="matrix(1 0 0 1 559.711 322)">Ultralight</text>
  <text style="stroke:none;fill:black;font-family:sans-serif;font-size:13;text-anchor:middle;" transform="matrix(1 0 0 1 856.422 322)">Thin</text>
  <text style="stroke:none;fill:black;font-family:sans-serif;font-size:13;text-anchor:middle;" transform="matrix(1 0 0 1 1153.13 322)">Light</text>
  <text style="stroke:none;fill:black;font-family:sans-serif;font-size:13;text-anchor:middle;" transform="matrix(1 0 0 1 1449.84 322)">Regular</text>
  <text style="stroke:none;fill:black;font-family:sans-serif;font-size:13;text-anchor:middle;" transform="matrix(1 0 0 1 1746.56 322)">Medium</text>
  <text style="stroke:none;fill:black;font-family:sans-serif;font-size:13;text-anchor:middle;" transform="matrix(1 0 0 1 2043.27 322)">Semibold</text>
  <text style="stroke:none;fill:black;font-family:sans-serif;font-size:13;text-anchor:middle;" transform="matrix(1 0 0 1 2339.98 322)">Bold</text>
  <text style="stroke:none;fill:black;font-family:sans-serif;font-size:13;text-anchor:middle;" transform="matrix(1 0 0 1 2636.69 322)">Heavy</text>
  <text style="stroke:none;fill:black;font-family:sans-serif;font-size:13;text-anchor:middle;" transform="matrix(1 0 0 1 2933.4 322)">Black</text>
  <line style="fill:none;stroke:black;opacity:1;stroke-width:0.5;" x1="263" x2="3036" y1="1903" y2="1903"/>
  <g transform="matrix(0.2 0 0 0.2 263 1933)">
   <path d="m46.2402 4.15039c21.5332 0 39.4531-17.8711 39.4531-39.4043s-17.9688-39.4043-39.502-39.4043c-21.4844 0-39.3555 17.8711-39.3555 39.4043s17.9199 39.4043 39.4043 39.4043Zm0-7.42188c-17.7246 0-31.8848-14.209-31.8848-31.9824s14.1113-31.9824 31.8359-31.9824c17.7734 0 32.0312 14.209 32.0312 31.9824s-14.209 31.9824-31.9824 31.9824Zm-17.9688-31.9824c0 2.14844 1.51367 3.61328 3.75977 3.61328h10.498v10.5957c0 2.19727 1.46484 3.71094 3.61328 3.71094 2.24609 0 3.71094-1.51367 3.71094-3.71094v-10.5957h10.5957c2.19727 0 3.71094-1.46484 3.71094-3.61328 0-2.19727-1.51367-3.71094-3.71094-3.71094h-10.5957v-10.5469c0-2.24609-1.46484-3.75977-3.71094-3.75977-2.14844 0-3.61328 1.51367-3.61328 3.75977v10.5469h-10.498c-2.24609 0-3.75977 1.51367-3.75977 3.71094Z"/>
  </g>
  <g transform="matrix(0.2 0 0 0.2 281.506 1933)">
   <path d="m58.5449 14.5508c27.2461 0 49.8047-22.6074 49.8047-49.8047 0-27.2461-22.6074-49.8047-49.8535-49.8047-27.1973 0-49.7559 22.5586-49.7559 49.8047 0 27.1973 22.6074 49.8047 49.8047 49.8047Zm0-8.30078c-23.0469 0-41.4551-18.457-41.4551-41.5039s18.3594-41.5039 41.4062-41.5039 41.5527 18.457 41.5527 41.5039-18.457 41.5039-41.5039 41.5039Zm-22.6562-41.5039c0 2.39258 1.66016 4.00391 4.15039 4.00391h14.3555v14.4043c0 2.44141 1.66016 4.15039 4.05273 4.15039 2.44141 0 4.15039-1.66016 4.15039-4.15039v-14.4043h14.4043c2.44141 0 4.15039-1.61133 4.15039-4.00391 0-2.44141-1.70898-4.15039-4.15039-4.15039h-14.4043v-14.3555c0-2.49023-1.70898-4.19922-4.15039-4.19922-2.39258 0-4.05273 1.70898-4.05273 4.19922v14.3555h-14.3555c-2.49023 0-4.15039 1.70898-4.15039 4.15039Z"/>
  </g>
  <g transform="matrix(0.2 0 0 0.2 304.924 1933)">
   <path d="m74.8535 28.3203c34.8145 0 63.623-28.8086 63.623-63.5742 0-34.8145-28.8574-63.623-63.6719-63.623-34.7656 0-63.5254 28.8086-63.5254 63.623 0 34.7656 28.8086 63.5742 63.5742 63.5742Zm0-9.08203c-30.1758 0-54.4434-24.3164-54.4434-54.4922 0-30.2246 24.2188-54.4922 54.3945-54.4922 30.2246 0 54.541 24.2676 54.541 54.4922 0 30.1758-24.2676 54.4922-54.4922 54.4922Zm-28.8574-54.4922c0 2.58789 1.85547 4.39453 4.58984 4.39453h19.7266v19.7754c0 2.68555 1.85547 4.58984 4.44336 4.58984 2.68555 0 4.54102-1.85547 4.54102-4.58984v-19.7754h19.7754c2.68555 0 4.58984-1.80664 4.58984-4.39453 0-2.73438-1.85547-4.58984-4.58984-4.58984h-19.7754v-19.7266c0-2.73438-1.85547-4.63867-4.54102-4.63867-2.58789 0-4.44336 1.9043-4.44336 4.63867v19.7266h-19.7266c-2.73438 0-4.58984 1.85547-4.58984 4.58984Z"/>
  </g>
  <text style="stroke:none;fill:black;font-family:sans-serif;font-size:13;font-weight:bold;" transform="matrix(1 0 0 1 263 1953)">Design Variations</text>
  <text style="stroke:none;fill:black;font-family:sans-serif;font-size:13;" transform="matrix(1 0 0 1 263 1971)">Symbols are supported in up to nine weights and three scales.</text>
  <text style="stroke:none;fill:black;font-family:sans-serif;font-size:13;" transform="matrix(1 0 0 1 263 1989)">For optimal layout with text and other symbols, vertically align</text>
  <text style="stroke:none;fill:black;font-family:sans-serif;font-size:13;" transform="matrix(1 0 0 1 263 2007)">symbols with the adjacent text.</text>
  <line style="fill:none;stroke:#00AEEF;stroke-width:0.5;opacity:1.0;" x1="776" x2="776" y1="1919" y2="1933"/>
  <g transform="matrix(0.2 0 0 0.2 776 1933)">
   <path d="m16.5527 0.78125c2.58789 0 3.85742-0.976562 4.78516-3.71094l6.29883-17.2363h28.8086l6.29883 17.2363c0.927734 2.73438 2.19727 3.71094 4.73633 3.71094 2.58789 0 4.24805-1.5625 4.24805-4.00391 0-0.830078-0.146484-1.61133-0.537109-2.63672l-22.9004-60.9863c-1.12305-2.97852-3.125-4.49219-6.25-4.49219-3.02734 0-5.07812 1.46484-6.15234 4.44336l-22.9004 61.084c-0.390625 1.02539-0.537109 1.80664-0.537109 2.63672 0 2.44141 1.5625 3.95508 4.10156 3.95508Zm13.4766-28.3691 11.8652-32.8613h0.244141l11.8652 32.8613Z"/>
  </g>
  <line style="fill:none;stroke:#00AEEF;stroke-width:0.5;opacity:1.0;" x1="792.836" x2="792.836" y1="1919" y2="1933"/>
  <text style="stroke:none;fill:black;font-family:sans-serif;font-size:13;font-weight:bold;" transform="matrix(1 0 0 1 776 1953)">Margins</text>
  <text style="stroke:none;fill:black;font-family:sans-serif;font-size:13;" transform="matrix(1 0 0 1 776 1971)">Leading and trailing margins on the left and right side of each symbol</text>
  <text style="stroke:none;fill:black;font-family:sans-serif;font-size:13;" transform="matrix(1 0 0 1 776 1989)">can be adjusted by modifying the x-location of the margin guidelines.</text>
  <text style="stroke:none;fill:black;font-family:sans-serif;font-size:13;" transform="matrix(1 0 0 1 776 2007)">Modifications are automatically applied proportionally to all</text>
  <text style="stroke:none;fill:black;font-family:sans-serif;font-size:13;" transform="matrix(1 0 0 1 776 2025)">scales and weights.</text>
  <g transform="matrix(0.2 0 0 0.2 1289 1933)">
   <path d="m14.209 9.32617 8.49609 8.54492c4.29688 4.3457 9.22852 4.05273 13.8672-1.07422l53.4668-58.9355-4.83398-4.88281-53.0762 58.3984c-1.75781 2.00195-3.41797 2.49023-5.76172 0.146484l-5.85938-5.81055c-2.34375-2.29492-1.80664-4.00391 0.195312-5.81055l57.373-54.0039-4.88281-4.83398-57.959 54.4434c-4.93164 4.58984-5.32227 9.47266-1.02539 13.8184Zm32.0801-90.9668c-2.09961 2.05078-2.24609 4.93164-1.07422 6.88477 1.17188 1.80664 3.4668 2.97852 6.68945 2.14844 7.32422-1.70898 14.9414-2.00195 22.0703 2.68555l-2.92969 7.27539c-1.70898 4.15039-0.830078 7.08008 1.85547 9.81445l11.4746 11.5723c2.44141 2.44141 4.49219 2.53906 7.32422 2.05078l5.32227-0.976562 3.32031 3.36914-0.195312 2.7832c-0.195312 2.49023 0.439453 4.39453 2.88086 6.78711l3.80859 3.71094c2.39258 2.39258 5.46875 2.53906 7.8125 0.195312l14.5508-14.5996c2.34375-2.34375 2.24609-5.32227-0.146484-7.71484l-3.85742-3.80859c-2.39258-2.39258-4.24805-3.17383-6.64062-2.97852l-2.88086 0.244141-3.22266-3.17383 1.2207-5.61523c0.634766-2.83203-0.146484-5.0293-3.07617-7.95898l-10.9863-10.9375c-16.6992-16.6016-38.8672-16.2109-53.3203-1.75781Zm7.4707 1.85547c12.1582-8.88672 28.6133-7.37305 39.7461 3.75977l12.1582 12.0605c1.17188 1.17188 1.36719 2.09961 1.02539 3.80859l-1.61133 7.42188 7.51953 7.42188 4.93164-0.292969c1.26953-0.0488281 1.66016 0.0488281 2.63672 1.02539l2.88086 2.88086-12.207 12.207-2.88086-2.88086c-0.976562-0.976562-1.12305-1.36719-1.07422-2.68555l0.341797-4.88281-7.4707-7.42188-7.61719 1.26953c-1.61133 0.341797-2.34375 0.195312-3.56445-0.976562l-10.0098-10.0098c-1.26953-1.17188-1.41602-2.00195-0.634766-3.85742l4.39453-10.4492c-7.8125-7.27539-17.9688-10.4004-28.125-7.42188-0.78125 0.195312-1.07422-0.439453-0.439453-0.976562Z"/>
  </g>
  <text style="stroke:none;fill:black;font-family:sans-serif;font-size:13;font-weight:bold;" transform="matrix(1 0 0 1 1289 1953)">Exporting</text>
  <text style="stroke:none;fill:black;font-family:sans-serif;font-size:13;" transform="matrix(1 0 0 1 1289 1971)">Symbols should be outlined when exporting to ensure the</text>
  <text style="stroke:none;fill:black;font-family:sans-serif;font-size:13;" transform="matrix(1 0 0 1 1289 1989)">design is preserved when submitting to Xcode.</text>
  <text id="template-version" style="stroke:none;fill:black;font-family:sans-serif;font-size:13;text-anchor:end;" transform="matrix(1 0 0 1 3036 1933)">Template v.5.0</text>
  <text style="stroke:none;fill:black;font-family:sans-serif;font-size:13;text-anchor:end;" transform="matrix(1 0 0 1 3036 1951)">Requires Xcode 15 or greater</text>
  <text id="descriptive-name" style="stroke:none;fill:black;font-family:sans-serif;font-size:13;text-anchor:end;" transform="matrix(1 0 0 1 3036 1969)">Generated from Normal</text>
  <text style="stroke:none;fill:black;font-family:sans-serif;font-size:13;text-anchor:end;" transform="matrix(1 0 0 1 3036 1987)">Typeset at 100.0 points</text>
  <text style="stroke:none;fill:black;font-family:sans-serif;font-size:13;" transform="matrix(1 0 0 1 263 726)">Small</text>
  <text style="stroke:none;fill:black;font-family:sans-serif;font-size:13;" transform="matrix(1 0 0 1 263 1156)">Medium</text>
  <text style="stroke:none;fill:black;font-family:sans-serif;font-size:13;" transform="matrix(1 0 0 1 263 1586)">Large</text>
 </g>
 <g id="Guides">
  <g id="H-reference" style="fill:#27AAE1;stroke:none;" transform="matrix(1 0 0 1 339 696)">
   <path d="M0.993654 0L3.63775 0L29.3281-67.1323L30.0303-67.1323L30.0303-70.459L28.1226-70.459ZM11.6885-24.4799L46.9815-24.4799L46.2315-26.7285L12.4385-26.7285ZM55.1196 0L57.7637 0L30.6382-70.459L29.4326-70.459L29.4326-67.1323Z"/>
  </g>
  <line id="Baseline-S" style="fill:none;stroke:#27AAE1;opacity:1;stroke-width:0.5;" x1="263" x2="3036" y1="696" y2="696"/>
  <line id="Capline-S" style="fill:none;stroke:#27AAE1;opacity:1;stroke-width:0.5;" x1="263" x2="3036" y1="625.541" y2="625.541"/>
  <g id="H-reference" style="fill:#27AAE1;stroke:none;" transform="matrix(1 0 0 1 339 1126)">
   <path d="M0.993654 0L3.63775 0L29.3281-67.1323L30.0303-67.1323L30.0303-70.459L28.1226-70.459ZM11.6885-24.4799L46.9815-24.4799L46.2315-26.7285L12.4385-26.7285ZM55.1196 0L57.7637 0L30.6382-70.459L29.4326-70.459L29.4326-67.1323Z"/>
  </g>
  <line id="Baseline-M" style="fill:none;stroke:#27AAE1;opacity:1;stroke-width:0.5;" x1="263" x2="3036" y1="1126" y2="1126"/>
  <line id="Capline-M" style="fill:none;stroke:#27AAE1;opacity:1;stroke-width:0.5;" x1="263" x2="3036" y1="1055.54" y2="1055.54"/>
  <g id="H-reference" style="fill:#27AAE1;stroke:none;" transform="matrix(1 0 0 1 339 1556)">
   <path d="M0.993654 0L3.63775 0L29.3281-67.1323L30.0303-67.1323L30.0303-70.459L28.1226-70.459ZM11.6885-24.4799L46.9815-24.4799L46.2315-26.7285L12.4385-26.7285ZM55.1196 0L57.7637 0L30.6382-70.459L29.4326-70.459L29.4326-67.1323Z"/>
  </g>
  <line id="Baseline-L" style="fill:none;stroke:#27AAE1;opacity:1;stroke-width:0.5;" x1="263" x2="3036" y1="1556" y2="1556"/>
  <line id="Capline-L" style="fill:none;stroke:#27AAE1;opacity:1;stroke-width:0.5;" x1="263" x2="3036" y1="1485.54" y2="1485.54"/>
  <line id="left-margin-Ultralight-S" style="fill:none;stroke:#FF3B30;stroke-width:0.5;opacity:1.0;" x1="515.649" x2="515.649" y1="600.785" y2="720.121"/>
  <line id="right-margin-Ultralight-S" style="fill:none;stroke:#FF3B30;stroke-width:0.5;opacity:1.0;" x1="603.773" x2="603.773" y1="600.785" y2="720.121"/>
  <line id="left-margin-Regular-S" style="fill:none;stroke:#00AEEF;stroke-width:0.5;opacity:1.0;" x1="1403.58" x2="1403.58" y1="600.785" y2="720.121"/>
  <line id="right-margin-Regular-S" style="fill:none;stroke:#00AEEF;stroke-width:0.5;opacity:1.0;" x1="1496.11" x2="1496.11" y1="600.785" y2="720.121"/>
  <line id="left-margin-Black-S" style="fill:none;stroke:#00AEEF;stroke-width:0.5;opacity:1.0;" x1="2884.57" x2="2884.57" y1="600.785" y2="720.121"/>
  <line id="right-margin-Black-S" style="fill:none;stroke:#00AEEF;stroke-width:0.5;opacity:1.0;" x1="2982.23" x2="2982.23" y1="600.785" y2="720.121"/>
 </g>
 <g id="Symbols">
  <g id="Black-S" transform="matrix(1 0 0 1 2884.57 696)">
   <path class="monochrome-0 multicolor-0:tintColor hierarchical-0:primary SFSymbolsPreviewWireframe" d="M36.8386-0.3144C35.3956-1.1172 34.0033-1.8797 32.6249-2.6663C32.2322-2.8904 31.9591-2.7767 31.6888-2.4859C28.8653 0.5514 25.0652 1.3664 21.2295 2.025C18.4939 2.4947 15.7047 2.2719 12.9423 2.437C9.86361 2.6209 6.83905 2.8948 4.26961 4.8707C3.63213 5.361 3.26537 4.9755 3.12423 4.3598C2.92264 3.5227 2.96713 2.6451 3.25232 1.8326C5.81881-5.2889 10.3973-10.3399 17.9133-12.357C20.3154-13.0132 22.8044-13.2945 25.2924-13.1912C26.1963-13.1511 26.5648-13.3758 26.4985-14.3724C26.1279-19.9439 28.1468-24.7909 31.1012-29.3599C35.5591-36.2542 40.0346-43.1431 42.5997-51.0437C43.5301-53.9094 43.5391-53.9178 40.6366-54.4636C38.7797-54.8128 36.9489-55.2436 35.2476-56.0914C34.4006-56.5135 33.4859-56.5818 32.5802-56.7479C30.6213-57.1071 30.2458-57.5709 30.2405-59.8697C30.234-62.7109 31.4867-65.0938 33.2536-67.2042C34.1777-68.3081 34.6957-69.3427 33.9108-70.7373C33.639-71.2203 33.5577-71.8134 33.4075-72.3612C33.1743-73.2119 33.5625-73.8157 34.2378-74.2612C34.9074-74.7029 35.4663-74.3909 35.9438-73.9014C36.2477-73.5346 36.585-73.1968 36.9513-72.8924C36.6967-74.7413 37.3185-76.2636 38.407-77.562C40.6805-80.2738 44.4549-80.2275 46.7584-77.5227C47.3692-76.8238 47.8267-76.0047 48.1014-75.118C48.2374-74.6624 48.3212-74.1931 48.8584-74.0612C49.4096-73.9258 49.5727-74.4225 49.833-74.7323C51.7714-77.0389 54.3284-77.8291 56.8759-76.8999C59.4047-75.9774 61.7414-72.8031 61.7439-70.2868C61.7463-67.8851 59.782-65.2579 57.3077-64.4533C56.6346-64.2344 56.2214-63.9021 56.2814-63.1915C56.4498-61.1959 55.6517-59.4264 54.9972-57.6321C53.3775-53.1914 51.8308-48.7306 50.8713-44.09C50.7707-43.6037 50.6917-43.1126 50.6135-42.6221C50.2532-40.3644 50.2461-40.3403 52.3275-39.6033C52.9579-39.3801 53.5236-38.5758 54.0786-38.8418C54.517-39.0519 54.5985-39.9503 54.903-40.5077C55.5169-41.6313 56.8123-41.9302 58.6057-41.409C59.8671-41.0425 60.169-40.5918 60.1195-39.1151C60.0814-37.9789 60.0511-36.8419 59.9765-35.7079C59.9436-35.2076 60.1024-34.9058 60.5659-34.7089C61.0909-34.492 61.6006-34.2398 62.0916-33.9542C63.2777-33.2474 64.3518-32.8929 65.372-34.292C65.8616-34.9635 66.5905-34.7875 67.2889-34.3734C68.1885-33.8401 68.958-33.1404 68.6213-32.0865C68.1649-30.6582 68.6399-29.7413 69.6618-28.8297C70.7187-27.8702 71.5802-26.7157 72.1991-25.4295C72.546-24.7262 72.9703-24.4083 73.805-24.74C74.8925-25.1721 75.7616-24.6391 76.4205-23.8229C77.0946-22.988 77.3801-21.9735 76.6273-21.0813C75.2155-19.4079 75.265-17.6157 75.8387-15.6671C76.2228-14.3626 77.0037-13.615 78.3499-13.6218C81.2969-13.6367 83.7678-12.2936 86.1865-10.856C88.9329-9.2237 91.4829-7.2699 94.3549-5.8378C94.6598-5.6858 95.0462-5.4977 94.9955-5.0711C94.9614-4.8399 94.8615-4.6233 94.7079-4.4472C94.5542-4.2711 94.3532-4.1429 94.1287-4.0778C92.5548-3.5163 90.9107-3.1756 89.2432-3.0653C88.1598-2.9725 87.076-2.8839 85.8156-2.7787C87.2705-1.685 88.6727-0.7878 89.8077 0.4268C90.3587 0.9802 90.87 1.5718 91.3377 2.1972C91.887 2.9837 91.6165 3.5447 90.6718 3.5181C87.9584 3.4416 85.2922 3.9113 82.6033 4.109C79.6302 4.3276 77.0481 3.1696 74.5692 1.6951C74.2192 1.4869 73.9287 1.1357 73.3773 1.1435C73.6793 2.6882 74.4271 4.0184 75.0321 5.3961C75.8576 7.2763 75.516 7.7535 73.4113 7.6608C69.1075 7.4657 64.8752 6.4886 60.9216 4.7771C59.6392 4.2508 58.3076 3.8536 56.9465 3.5914C56.6231 3.5016 56.2798 3.5135 55.9634 3.6255C55.6469 3.7375 55.3726 3.9442 55.1777 4.2175C53.7745 5.9115 51.8272 6.5338 49.7135 6.7389C47.5179 6.9519 45.3147 6.9546 43.1118 6.9606C40.1651 6.9685 37.3006 7.3365 34.7035 8.879C34.0747 9.2524 33.6376 9.0769 33.3475 8.4153C33.0431 7.7728 32.9401 7.0533 33.0519 6.3512C33.4578 3.8522 34.7573 1.866 36.4709 0.0942C36.5885-0.0275 36.6976-0.1573 36.8386-0.3144Z"/>
  </g>
  <g id="Regular-S" transform="matrix(1 0 0 1 1403.58 696)">
   <path class="monochrome-0 multicolor-0:tintColor hierarchical-0:primary SFSymbolsPreviewWireframe" d="M33.8386-0.3144C32.3956-1.1172 31.0033-1.8797 29.6249-2.6663C29.2322-2.8904 28.9591-2.7767 28.6888-2.4859C25.8653 0.5514 22.0652 1.3664 18.2295 2.025C15.4939 2.4947 12.7047 2.2719 9.94228 2.437C6.86361 2.6209 3.83905 2.8948 1.26961 4.8707C0.63213 5.361 0.265365 4.9755 0.124227 4.3598C-0.0773559 3.5227-0.0328747 2.6451 0.252324 1.8326C2.81881-5.2889 7.39726-10.3399 14.9133-12.357C17.3154-13.0132 19.8044-13.2945 22.2924-13.1912C23.1963-13.1511 23.5648-13.3758 23.4985-14.3724C23.1279-19.9439 25.1468-24.7909 28.1012-29.3599C32.5591-36.2542 37.0346-43.1431 39.5997-51.0437C40.5301-53.9094 40.5391-53.9178 37.6366-54.4636C35.7797-54.8128 33.9489-55.2436 32.2476-56.0914C31.4006-56.5135 30.4859-56.5818 29.5802-56.7479C27.6213-57.1071 27.2458-57.5709 27.2405-59.8697C27.234-62.7109 28.4867-65.0938 30.2536-67.2042C31.1777-68.3081 31.6957-69.3427 30.9108-70.7373C30.639-71.2203 30.5577-71.8134 30.4075-72.3612C30.1743-73.2119 30.5625-73.8157 31.2378-74.2612C31.9074-74.7029 32.4663-74.3909 32.9438-73.9014C33.2477-73.5346 33.585-73.1968 33.9513-72.8924C33.6967-74.7413 34.3185-76.2636 35.407-77.562C37.6805-80.2738 41.4549-80.2275 43.7584-77.5227C44.3692-76.8238 44.8267-76.0047 45.1014-75.118C45.2374-74.6624 45.3212-74.1931 45.8584-74.0612C46.4096-73.9258 46.5727-74.4225 46.833-74.7323C48.7714-77.0389 51.3284-77.8291 53.8759-76.8999C56.4047-75.9774 58.7414-72.8031 58.7439-70.2868C58.7463-67.8851 56.782-65.2579 54.3077-64.4533C53.6346-64.2344 53.2214-63.9021 53.2814-63.1915C53.4498-61.1959 52.6517-59.4264 51.9972-57.6321C50.3775-53.1914 48.8308-48.7306 47.8713-44.09C47.7707-43.6037 47.6917-43.1126 47.6135-42.6221C47.2532-40.3644 47.2461-40.3403 49.3275-39.6033C49.9579-39.3801 50.5236-38.5758 51.0786-38.8418C51.517-39.0519 51.5985-39.9503 51.903-40.5077C52.5169-41.6313 53.8123-41.9302 55.6057-41.409C56.8671-41.0425 57.169-40.5918 57.1195-39.1151C57.0814-37.9789 57.0511-36.8419 56.9765-35.7079C56.9436-35.2076 57.1024-34.9058 57.5659-34.7089C58.0909-34.492 58.6006-34.2398 59.0916-33.9542C60.2777-33.2474 61.3518-32.8929 62.372-34.292C62.8616-34.9635 63.5905-34.7875 64.2889-34.3734C65.1885-33.8401 65.958-33.1404 65.6213-32.0865C65.1649-30.6582 65.6399-29.7413 66.6618-28.8297C67.7187-27.8702 68.5802-26.7157 69.1991-25.4295C69.546-24.7262 69.9703-24.4083 70.805-24.74C71.8925-25.1721 72.7616-24.6391 73.4205-23.8229C74.0946-22.988 74.3801-21.9735 73.6273-21.0813C72.2155-19.4079 72.265-17.6157 72.8387-15.6671C73.2228-14.3626 74.0037-13.615 75.3499-13.6218C78.2969-13.6367 80.7678-12.2936 83.1865-10.856C85.9329-9.2237 88.4829-7.2699 91.3549-5.8378C91.6598-5.6858 92.0462-5.4977 91.9955-5.0711C91.9614-4.8399 91.8615-4.6233 91.7079-4.4472C91.5542-4.2711 91.3532-4.1429 91.1287-4.0778C89.5548-3.5163 87.9107-3.1756 86.2432-3.0653C85.1598-2.9725 84.076-2.8839 82.8156-2.7787C84.2705-1.685 85.6727-0.7878 86.8077 0.4268C87.3587 0.9802 87.87 1.5718 88.3377 2.1972C88.887 2.9837 88.6165 3.5447 87.6718 3.5181C84.9584 3.4416 82.2922 3.9113 79.6033 4.109C76.6302 4.3276 74.0481 3.1696 71.5692 1.6951C71.2192 1.4869 70.9287 1.1357 70.3773 1.1435C70.6793 2.6882 71.4271 4.0184 72.0321 5.3961C72.8576 7.2763 72.516 7.7535 70.4113 7.6608C66.1075 7.4657 61.8752 6.4886 57.9216 4.7771C56.6392 4.2508 55.3076 3.8536 53.9465 3.5914C53.6231 3.5016 53.2798 3.5135 52.9634 3.6255C52.6469 3.7375 52.3726 3.9442 52.1777 4.2175C50.7745 5.9115 48.8272 6.5338 46.7135 6.7389C44.5179 6.9519 42.3147 6.9546 40.1118 6.9606C37.1651 6.9685 34.3006 7.3365 31.7035 8.879C31.0747 9.2524 30.6376 9.0769 30.3475 8.4153C30.0431 7.7728 29.9401 7.0533 30.0519 6.3512C30.4578 3.8522 31.7573 1.866 33.4709 0.0942C33.5885-0.0275 33.6976-0.1573 33.8386-0.3144Z"/>
  </g>
  <g id="Ultralight-S" transform="matrix(1 0 0 1 515.649 696)">
   <path class="monochrome-0 multicolor-0:tintColor hierarchical-0:primary SFSymbolsPreviewWireframe" d="M31.8386-0.3144C30.3956-1.1172 29.0033-1.8797 27.6249-2.6663C27.2322-2.8904 26.9591-2.7767 26.6888-2.4859C23.8653 0.5514 20.0652 1.3664 16.2295 2.025C13.4939 2.4947 10.7047 2.2719 7.94228 2.437C4.86361 2.6209 1.83905 2.8948-0.73039 4.8707C-1.36787 5.361-1.73464 4.9755-1.87577 4.3598C-2.07736 3.5227-2.03287 2.6451-1.74768 1.8326C0.81881-5.2889 5.39726-10.3399 12.9133-12.357C15.3154-13.0132 17.8044-13.2945 20.2924-13.1912C21.1963-13.1511 21.5648-13.3758 21.4985-14.3724C21.1279-19.9439 23.1468-24.7909 26.1012-29.3599C30.5591-36.2542 35.0346-43.1431 37.5997-51.0437C38.5301-53.9094 38.5391-53.9178 35.6366-54.4636C33.7797-54.8128 31.9489-55.2436 30.2476-56.0914C29.4006-56.5135 28.4859-56.5818 27.5802-56.7479C25.6213-57.1071 25.2458-57.5709 25.2405-59.8697C25.234-62.7109 26.4867-65.0938 28.2536-67.2042C29.1777-68.3081 29.6957-69.3427 28.9108-70.7373C28.639-71.2203 28.5577-71.8134 28.4075-72.3612C28.1743-73.2119 28.5625-73.8157 29.2378-74.2612C29.9074-74.7029 30.4663-74.3909 30.9438-73.9014C31.2477-73.5346 31.585-73.1968 31.9513-72.8924C31.6967-74.7413 32.3185-76.2636 33.407-77.562C35.6805-80.2738 39.4549-80.2275 41.7584-77.5227C42.3692-76.8238 42.8267-76.0047 43.1014-75.118C43.2374-74.6624 43.3212-74.1931 43.8584-74.0612C44.4096-73.9258 44.5727-74.4225 44.833-74.7323C46.7714-77.0389 49.3284-77.8291 51.8759-76.8999C54.4047-75.9774 56.7414-72.8031 56.7439-70.2868C56.7463-67.8851 54.782-65.2579 52.3077-64.4533C51.6346-64.2344 51.2214-63.9021 51.2814-63.1915C51.4498-61.1959 50.6517-59.4264 49.9972-57.6321C48.3775-53.1914 46.8308-48.7306 45.8713-44.09C45.7707-43.6037 45.6917-43.1126 45.6135-42.6221C45.2532-40.3644 45.2461-40.3403 47.3275-39.6033C47.9579-39.3801 48.5236-38.5758 49.0786-38.8418C49.517-39.0519 49.5985-39.9503 49.903-40.5077C50.5169-41.6313 51.8123-41.9302 53.6057-41.409C54.8671-41.0425 55.169-40.5918 55.1195-39.1151C55.0814-37.9789 55.0511-36.8419 54.9765-35.7079C54.9436-35.2076 55.1024-34.9058 55.5659-34.7089C56.0909-34.492 56.6006-34.2398 57.0916-33.9542C58.2777-33.2474 59.3518-32.8929 60.372-34.292C60.8616-34.9635 61.5905-34.7875 62.2889-34.3734C63.1885-33.8401 63.958-33.1404 63.6213-32.0865C63.1649-30.6582 63.6399-29.7413 64.6618-28.8297C65.7187-27.8702 66.5802-26.7157 67.1991-25.4295C67.546-24.7262 67.9703-24.4083 68.805-24.74C69.8925-25.1721 70.7616-24.6391 71.4205-23.8229C72.0946-22.988 72.3801-21.9735 71.6273-21.0813C70.2155-19.4079 70.265-17.6157 70.8387-15.6671C71.2228-14.3626 72.0037-13.615 73.3499-13.6218C76.2969-13.6367 78.7678-12.2936 81.1865-10.856C83.9329-9.2237 86.4829-7.2699 89.3549-5.8378C89.6598-5.6858 90.0462-5.4977 89.9955-5.0711C89.9614-4.8399 89.8615-4.6233 89.7079-4.4472C89.5542-4.2711 89.3532-4.1429 89.1287-4.0778C87.5548-3.5163 85.9107-3.1756 84.2432-3.0653C83.1598-2.9725 82.076-2.8839 80.8156-2.7787C82.2705-1.685 83.6727-0.7878 84.8077 0.4268C85.3587 0.9802 85.87 1.5718 86.3377 2.1972C86.887 2.9837 86.6165 3.5447 85.6718 3.5181C82.9584 3.4416 80.2922 3.9113 77.6033 4.109C74.6302 4.3276 72.0481 3.1696 69.5692 1.6951C69.2192 1.4869 68.9287 1.1357 68.3773 1.1435C68.6793 2.6882 69.4271 4.0184 70.0321 5.3961C70.8576 7.2763 70.516 7.7535 68.4113 7.6608C64.1075 7.4657 59.8752 6.4886 55.9216 4.7771C54.6392 4.2508 53.3076 3.8536 51.9465 3.5914C51.6231 3.5016 51.2798 3.5135 50.9634 3.6255C50.6469 3.7375 50.3726 3.9442 50.1777 4.2175C48.7745 5.9115 46.8272 6.5338 44.7135 6.7389C42.5179 6.9519 40.3147 6.9546 38.1118 6.9606C35.1651 6.9685 32.3006 7.3365 29.7035 8.879C29.0747 9.2524 28.6376 9.0769 28.3475 8.4153C28.0431 7.7728 27.9401 7.0533 28.0519 6.3512C28.4578 3.8522 29.7573 1.866 31.4709 0.0942C31.5885-0.0275 31.6976-0.1573 31.8386-0.3144Z"/>
  </g>
 </g>
</svg>
