<?xml version="1.0" encoding="UTF-8"?>
<!--Generator: Apple Native CoreSVG 232.5-->
<!DOCTYPE svg
PUBLIC "-//W3C//DTD SVG 1.1//EN"
       "http://www.w3.org/Graphics/SVG/1.1/DTD/svg11.dtd">
<svg version="1.1" xmlns="http://www.w3.org/2000/svg" xmlns:xlink="http://www.w3.org/1999/xlink" width="3300" height="2200">
 <!--glyph: "", point size: 100.0, font version: "19.2d2e1", template writer version: "128"-->
 <style>.monochrome-0 {-sfsymbols-motion-group:0}

.multicolor-0:tintColor {-sfsymbols-motion-group:0}

.hierarchical-0:primary {-sfsymbols-motion-group:0}

.SFSymbolsPreviewWireframe {fill:none;opacity:1.0;stroke:black;stroke-width:0.5}
</style>
 <g id="Notes">
  <rect height="2200" id="artboard" style="fill:white;opacity:1" width="3300" x="0" y="0"/>
  <line style="fill:none;stroke:black;opacity:1;stroke-width:0.5;" x1="263" x2="3036" y1="292" y2="292"/>
  <text style="stroke:none;fill:black;font-family:sans-serif;font-size:13;font-weight:bold;" transform="matrix(1 0 0 1 263 322)">Weight/Scale Variations</text>
  <text style="stroke:none;fill:black;font-family:sans-serif;font-size:13;text-anchor:middle;" transform="matrix(1 0 0 1 559.711 322)">Ultralight</text>
  <text style="stroke:none;fill:black;font-family:sans-serif;font-size:13;text-anchor:middle;" transform="matrix(1 0 0 1 856.422 322)">Thin</text>
  <text style="stroke:none;fill:black;font-family:sans-serif;font-size:13;text-anchor:middle;" transform="matrix(1 0 0 1 1153.13 322)">Light</text>
  <text style="stroke:none;fill:black;font-family:sans-serif;font-size:13;text-anchor:middle;" transform="matrix(1 0 0 1 1449.84 322)">Regular</text>
  <text style="stroke:none;fill:black;font-family:sans-serif;font-size:13;text-anchor:middle;" transform="matrix(1 0 0 1 1746.56 322)">Medium</text>
  <text style="stroke:none;fill:black;font-family:sans-serif;font-size:13;text-anchor:middle;" transform="matrix(1 0 0 1 2043.27 322)">Semibold</text>
  <text style="stroke:none;fill:black;font-family:sans-serif;font-size:13;text-anchor:middle;" transform="matrix(1 0 0 1 2339.98 322)">Bold</text>
  <text style="stroke:none;fill:black;font-family:sans-serif;font-size:13;text-anchor:middle;" transform="matrix(1 0 0 1 2636.69 322)">Heavy</text>
  <text style="stroke:none;fill:black;font-family:sans-serif;font-size:13;text-anchor:middle;" transform="matrix(1 0 0 1 2933.4 322)">Black</text>
  <line style="fill:none;stroke:black;opacity:1;stroke-width:0.5;" x1="263" x2="3036" y1="1903" y2="1903"/>
  <g transform="matrix(0.2 0 0 0.2 263 1933)">
   <path d="m46.2402 4.15039c21.5332 0 39.4531-17.8711 39.4531-39.4043s-17.9688-39.4043-39.502-39.4043c-21.4844 0-39.3555 17.8711-39.3555 39.4043s17.9199 39.4043 39.4043 39.4043Zm0-7.42188c-17.7246 0-31.8848-14.209-31.8848-31.9824s14.1113-31.9824 31.8359-31.9824c17.7734 0 32.0312 14.209 32.0312 31.9824s-14.209 31.9824-31.9824 31.9824Zm-17.9688-31.9824c0 2.14844 1.51367 3.61328 3.75977 3.61328h10.498v10.5957c0 2.19727 1.46484 3.71094 3.61328 3.71094 2.24609 0 3.71094-1.51367 3.71094-3.71094v-10.5957h10.5957c2.19727 0 3.71094-1.46484 3.71094-3.61328 0-2.19727-1.51367-3.71094-3.71094-3.71094h-10.5957v-10.5469c0-2.24609-1.46484-3.75977-3.71094-3.75977-2.14844 0-3.61328 1.51367-3.61328 3.75977v10.5469h-10.498c-2.24609 0-3.75977 1.51367-3.75977 3.71094Z"/>
  </g>
  <g transform="matrix(0.2 0 0 0.2 281.506 1933)">
   <path d="m58.5449 14.5508c27.2461 0 49.8047-22.6074 49.8047-49.8047 0-27.2461-22.6074-49.8047-49.8535-49.8047-27.1973 0-49.7559 22.5586-49.7559 49.8047 0 27.1973 22.6074 49.8047 49.8047 49.8047Zm0-8.30078c-23.0469 0-41.4551-18.457-41.4551-41.5039s18.3594-41.5039 41.4062-41.5039 41.5527 18.457 41.5527 41.5039-18.457 41.5039-41.5039 41.5039Zm-22.6562-41.5039c0 2.39258 1.66016 4.00391 4.15039 4.00391h14.3555v14.4043c0 2.44141 1.66016 4.15039 4.05273 4.15039 2.44141 0 4.15039-1.66016 4.15039-4.15039v-14.4043h14.4043c2.44141 0 4.15039-1.61133 4.15039-4.00391 0-2.44141-1.70898-4.15039-4.15039-4.15039h-14.4043v-14.3555c0-2.49023-1.70898-4.19922-4.15039-4.19922-2.39258 0-4.05273 1.70898-4.05273 4.19922v14.3555h-14.3555c-2.49023 0-4.15039 1.70898-4.15039 4.15039Z"/>
  </g>
  <g transform="matrix(0.2 0 0 0.2 304.924 1933)">
   <path d="m74.8535 28.3203c34.8145 0 63.623-28.8086 63.623-63.5742 0-34.8145-28.8574-63.623-63.6719-63.623-34.7656 0-63.5254 28.8086-63.5254 63.623 0 34.7656 28.8086 63.5742 63.5742 63.5742Zm0-9.08203c-30.1758 0-54.4434-24.3164-54.4434-54.4922 0-30.2246 24.2188-54.4922 54.3945-54.4922 30.2246 0 54.541 24.2676 54.541 54.4922 0 30.1758-24.2676 54.4922-54.4922 54.4922Zm-28.8574-54.4922c0 2.58789 1.85547 4.39453 4.58984 4.39453h19.7266v19.7754c0 2.68555 1.85547 4.58984 4.44336 4.58984 2.68555 0 4.54102-1.85547 4.54102-4.58984v-19.7754h19.7754c2.68555 0 4.58984-1.80664 4.58984-4.39453 0-2.73438-1.85547-4.58984-4.58984-4.58984h-19.7754v-19.7266c0-2.73438-1.85547-4.63867-4.54102-4.63867-2.58789 0-4.44336 1.9043-4.44336 4.63867v19.7266h-19.7266c-2.73438 0-4.58984 1.85547-4.58984 4.58984Z"/>
  </g>
  <text style="stroke:none;fill:black;font-family:sans-serif;font-size:13;font-weight:bold;" transform="matrix(1 0 0 1 263 1953)">Design Variations</text>
  <text style="stroke:none;fill:black;font-family:sans-serif;font-size:13;" transform="matrix(1 0 0 1 263 1971)">Symbols are supported in up to nine weights and three scales.</text>
  <text style="stroke:none;fill:black;font-family:sans-serif;font-size:13;" transform="matrix(1 0 0 1 263 1989)">For optimal layout with text and other symbols, vertically align</text>
  <text style="stroke:none;fill:black;font-family:sans-serif;font-size:13;" transform="matrix(1 0 0 1 263 2007)">symbols with the adjacent text.</text>
  <line style="fill:none;stroke:#00AEEF;stroke-width:0.5;opacity:1.0;" x1="776" x2="776" y1="1919" y2="1933"/>
  <g transform="matrix(0.2 0 0 0.2 776 1933)">
   <path d="m16.5527 0.78125c2.58789 0 3.85742-0.976562 4.78516-3.71094l6.29883-17.2363h28.8086l6.29883 17.2363c0.927734 2.73438 2.19727 3.71094 4.73633 3.71094 2.58789 0 4.24805-1.5625 4.24805-4.00391 0-0.830078-0.146484-1.61133-0.537109-2.63672l-22.9004-60.9863c-1.12305-2.97852-3.125-4.49219-6.25-4.49219-3.02734 0-5.07812 1.46484-6.15234 4.44336l-22.9004 61.084c-0.390625 1.02539-0.537109 1.80664-0.537109 2.63672 0 2.44141 1.5625 3.95508 4.10156 3.95508Zm13.4766-28.3691 11.8652-32.8613h0.244141l11.8652 32.8613Z"/>
  </g>
  <line style="fill:none;stroke:#00AEEF;stroke-width:0.5;opacity:1.0;" x1="792.836" x2="792.836" y1="1919" y2="1933"/>
  <text style="stroke:none;fill:black;font-family:sans-serif;font-size:13;font-weight:bold;" transform="matrix(1 0 0 1 776 1953)">Margins</text>
  <text style="stroke:none;fill:black;font-family:sans-serif;font-size:13;" transform="matrix(1 0 0 1 776 1971)">Leading and trailing margins on the left and right side of each symbol</text>
  <text style="stroke:none;fill:black;font-family:sans-serif;font-size:13;" transform="matrix(1 0 0 1 776 1989)">can be adjusted by modifying the x-location of the margin guidelines.</text>
  <text style="stroke:none;fill:black;font-family:sans-serif;font-size:13;" transform="matrix(1 0 0 1 776 2007)">Modifications are automatically applied proportionally to all</text>
  <text style="stroke:none;fill:black;font-family:sans-serif;font-size:13;" transform="matrix(1 0 0 1 776 2025)">scales and weights.</text>
  <g transform="matrix(0.2 0 0 0.2 1289 1933)">
   <path d="m14.209 9.32617 8.49609 8.54492c4.29688 4.3457 9.22852 4.05273 13.8672-1.07422l53.4668-58.9355-4.83398-4.88281-53.0762 58.3984c-1.75781 2.00195-3.41797 2.49023-5.76172 0.146484l-5.85938-5.81055c-2.34375-2.29492-1.80664-4.00391 0.195312-5.81055l57.373-54.0039-4.88281-4.83398-57.959 54.4434c-4.93164 4.58984-5.32227 9.47266-1.02539 13.8184Zm32.0801-90.9668c-2.09961 2.05078-2.24609 4.93164-1.07422 6.88477 1.17188 1.80664 3.4668 2.97852 6.68945 2.14844 7.32422-1.70898 14.9414-2.00195 22.0703 2.68555l-2.92969 7.27539c-1.70898 4.15039-0.830078 7.08008 1.85547 9.81445l11.4746 11.5723c2.44141 2.44141 4.49219 2.53906 7.32422 2.05078l5.32227-0.976562 3.32031 3.36914-0.195312 2.7832c-0.195312 2.49023 0.439453 4.39453 2.88086 6.78711l3.80859 3.71094c2.39258 2.39258 5.46875 2.53906 7.8125 0.195312l14.5508-14.5996c2.34375-2.34375 2.24609-5.32227-0.146484-7.71484l-3.85742-3.80859c-2.39258-2.39258-4.24805-3.17383-6.64062-2.97852l-2.88086 0.244141-3.22266-3.17383 1.2207-5.61523c0.634766-2.83203-0.146484-5.0293-3.07617-7.95898l-10.9863-10.9375c-16.6992-16.6016-38.8672-16.2109-53.3203-1.75781Zm7.4707 1.85547c12.1582-8.88672 28.6133-7.37305 39.7461 3.75977l12.1582 12.0605c1.17188 1.17188 1.36719 2.09961 1.02539 3.80859l-1.61133 7.42188 7.51953 7.42188 4.93164-0.292969c1.26953-0.0488281 1.66016 0.0488281 2.63672 1.02539l2.88086 2.88086-12.207 12.207-2.88086-2.88086c-0.976562-0.976562-1.12305-1.36719-1.07422-2.68555l0.341797-4.88281-7.4707-7.42188-7.61719 1.26953c-1.61133 0.341797-2.34375 0.195312-3.56445-0.976562l-10.0098-10.0098c-1.26953-1.17188-1.41602-2.00195-0.634766-3.85742l4.39453-10.4492c-7.8125-7.27539-17.9688-10.4004-28.125-7.42188-0.78125 0.195312-1.07422-0.439453-0.439453-0.976562Z"/>
  </g>
  <text style="stroke:none;fill:black;font-family:sans-serif;font-size:13;font-weight:bold;" transform="matrix(1 0 0 1 1289 1953)">Exporting</text>
  <text style="stroke:none;fill:black;font-family:sans-serif;font-size:13;" transform="matrix(1 0 0 1 1289 1971)">Symbols should be outlined when exporting to ensure the</text>
  <text style="stroke:none;fill:black;font-family:sans-serif;font-size:13;" transform="matrix(1 0 0 1 1289 1989)">design is preserved when submitting to Xcode.</text>
  <text id="template-version" style="stroke:none;fill:black;font-family:sans-serif;font-size:13;text-anchor:end;" transform="matrix(1 0 0 1 3036 1933)">Template v.5.0</text>
  <text style="stroke:none;fill:black;font-family:sans-serif;font-size:13;text-anchor:end;" transform="matrix(1 0 0 1 3036 1951)">Requires Xcode 15 or greater</text>
  <text id="descriptive-name" style="stroke:none;fill:black;font-family:sans-serif;font-size:13;text-anchor:end;" transform="matrix(1 0 0 1 3036 1969)">Generated from Light</text>
  <text style="stroke:none;fill:black;font-family:sans-serif;font-size:13;text-anchor:end;" transform="matrix(1 0 0 1 3036 1987)">Typeset at 100.0 points</text>
  <text style="stroke:none;fill:black;font-family:sans-serif;font-size:13;" transform="matrix(1 0 0 1 263 726)">Small</text>
  <text style="stroke:none;fill:black;font-family:sans-serif;font-size:13;" transform="matrix(1 0 0 1 263 1156)">Medium</text>
  <text style="stroke:none;fill:black;font-family:sans-serif;font-size:13;" transform="matrix(1 0 0 1 263 1586)">Large</text>
 </g>
 <g id="Guides">
  <g id="H-reference" style="fill:#27AAE1;stroke:none;" transform="matrix(1 0 0 1 339 696)">
   <path d="M0.993654 0L3.63775 0L29.3281-67.1323L30.0303-67.1323L30.0303-70.459L28.1226-70.459ZM11.6885-24.4799L46.9815-24.4799L46.2315-26.7285L12.4385-26.7285ZM55.1196 0L57.7637 0L30.6382-70.459L29.4326-70.459L29.4326-67.1323Z"/>
  </g>
  <line id="Baseline-S" style="fill:none;stroke:#27AAE1;opacity:1;stroke-width:0.5;" x1="263" x2="3036" y1="696" y2="696"/>
  <line id="Capline-S" style="fill:none;stroke:#27AAE1;opacity:1;stroke-width:0.5;" x1="263" x2="3036" y1="625.541" y2="625.541"/>
  <g id="H-reference" style="fill:#27AAE1;stroke:none;" transform="matrix(1 0 0 1 339 1126)">
   <path d="M0.993654 0L3.63775 0L29.3281-67.1323L30.0303-67.1323L30.0303-70.459L28.1226-70.459ZM11.6885-24.4799L46.9815-24.4799L46.2315-26.7285L12.4385-26.7285ZM55.1196 0L57.7637 0L30.6382-70.459L29.4326-70.459L29.4326-67.1323Z"/>
  </g>
  <line id="Baseline-M" style="fill:none;stroke:#27AAE1;opacity:1;stroke-width:0.5;" x1="263" x2="3036" y1="1126" y2="1126"/>
  <line id="Capline-M" style="fill:none;stroke:#27AAE1;opacity:1;stroke-width:0.5;" x1="263" x2="3036" y1="1055.54" y2="1055.54"/>
  <g id="H-reference" style="fill:#27AAE1;stroke:none;" transform="matrix(1 0 0 1 339 1556)">
   <path d="M0.993654 0L3.63775 0L29.3281-67.1323L30.0303-67.1323L30.0303-70.459L28.1226-70.459ZM11.6885-24.4799L46.9815-24.4799L46.2315-26.7285L12.4385-26.7285ZM55.1196 0L57.7637 0L30.6382-70.459L29.4326-70.459L29.4326-67.1323Z"/>
  </g>
  <line id="Baseline-L" style="fill:none;stroke:#27AAE1;opacity:1;stroke-width:0.5;" x1="263" x2="3036" y1="1556" y2="1556"/>
  <line id="Capline-L" style="fill:none;stroke:#27AAE1;opacity:1;stroke-width:0.5;" x1="263" x2="3036" y1="1485.54" y2="1485.54"/>
  <line id="left-margin-Ultralight-S" style="fill:none;stroke:#FF3B30;stroke-width:0.5;opacity:1.0;" x1="515.649" x2="515.649" y1="600.785" y2="720.121"/>
  <line id="right-margin-Ultralight-S" style="fill:none;stroke:#FF3B30;stroke-width:0.5;opacity:1.0;" x1="603.773" x2="603.773" y1="600.785" y2="720.121"/>
  <line id="left-margin-Regular-S" style="fill:none;stroke:#FF3B30;stroke-width:0.5;opacity:1.0;" x1="1403.58" x2="1403.58" y1="600.785" y2="720.121"/>
  <line id="right-margin-Regular-S" style="fill:none;stroke:#00AEEF;stroke-width:0.5;opacity:1.0;" x1="1496.11" x2="1496.11" y1="600.785" y2="720.121"/>
  <line id="left-margin-Black-S" style="fill:none;stroke:#00AEEF;stroke-width:0.5;opacity:1.0;" x1="2884.57" x2="2884.57" y1="600.785" y2="720.121"/>
  <line id="right-margin-Black-S" style="fill:none;stroke:#00AEEF;stroke-width:0.5;opacity:1.0;" x1="2982.23" x2="2982.23" y1="600.785" y2="720.121"/>
 </g>
 <g id="Symbols">
  <g id="Black-S" transform="matrix(1 0 0 1 2884.57 696)">
   <path class="monochrome-0 multicolor-0:tintColor hierarchical-0:primary SFSymbolsPreviewWireframe" d="M66.0594-57.3968C65.9917-55.9196 66.0601-54.4278 65.829-52.9493C65.7536-52.4675 65.7199-51.9941 66.172-51.583C69.3719-48.6737 70.8357-44.8913 71.5483-40.7436C72.197-36.9672 71.9812-33.2022 70.7306-29.6154C69.238-25.3343 66.9605-21.5063 62.9025-19.0782C62.4346-18.7983 62.3019-18.5094 62.3534-17.9698C62.4397-16.8736 62.3899-15.7709 62.2052-14.6869C61.8593-12.4153 63.2274-10.8562 64.711-9.4635C67.2826-7.0291 70.5608-5.4741 74.073-5.0227C77.3128-4.579 80.2601-5.415 82.9297-7.2696C83.7205-7.8191 84.6785-8.2427 84.5892-9.4829C84.5676-9.7825 84.8777-9.9657 85.1613-10.0454C86.116-10.3136 86.0211-10.8277 85.7308-11.6361C84.5811-14.8383 84.5167-18.1717 84.7572-21.5223C84.8513-23.1872 85.1668-24.8323 85.6954-26.4139C86.2726-28.1745 87.2983-29.7544 88.6716-30.9981C89.781-31.9896 91.0785-32.5136 92.4895-32.0156C93.9628-31.4956 94.5451-30.1755 94.8059-28.6926C95.471-24.9117 94.3232-21.4331 92.9331-18.0394C91.9814-15.7161 91.096-13.339 89.6641-11.2385C89.3842-10.8294 89.0826-10.4357 88.7606-10.0589C88.5319-9.7906 88.4362-9.5507 88.5902-9.1968C89.0674-8.1002 88.6628-7.1903 87.9143-6.3838C87.6224-6.0692 87.2998-5.7945 87.3268-5.3047C87.4094-3.8071 86.7281-2.5358 86.0119-1.3181C85.2059 0.0524 84.2859 1.3588 83.3682 2.6596C82.5175 3.8462 81.4308 4.8441 80.1761 5.5906C77.6263 7.148 75.0045 8.4843 72.1084 9.3553C65.0273 11.4851 58.0715 10.8654 51.0456 9.0258C46.0229 7.7107 41.6354 5.3424 37.6602 2.0956C36.3066 0.99 35.0692-0.2312 34.1742-1.7512C33.769-2.4392 33.3609-2.475 32.6062-2.1558C28.1992-0.2915 24.0705-3.1345 24.2912-7.8057C24.3039-8.2317 24.4144-8.6492 24.6141-9.0257C24.9042-9.5289 24.8226-9.9594 24.6244-10.4384C23.8722-12.2568 23.9797-13.9752 25.2977-15.5127C25.6669-15.9435 25.4665-16.2034 25.1396-16.4857C25.0152-16.5864 24.8692-16.6571 24.7131-16.6923C24.5569-16.7274 24.3947-16.7261 24.2392-16.6884C20.8403-16.1708 18.5264-19.1241 18.2053-21.9446C17.991-23.8261 18.1703-25.6451 19.5905-27.108C19.6951-27.2296 19.7744-27.3707 19.824-27.5232C19.8736-27.6757 19.8924-27.8366 19.8793-27.9964C19.9216-29.5323 20.3729-31.029 21.1867-32.3323C21.5544-32.9538 21.352-33.16 20.7909-33.4251C18.5878-34.466 16.5696-35.7434 15.125-37.796C13.4171-40.2227 12.4907-42.8735 12.6011-45.855C12.6554-46.4918 12.4952-47.1285 12.1461-47.6638C9.91429-50.9987 9.44023-54.7276 9.68584-58.6369C9.84137-61.1834 10.4312-63.6845 11.4298-66.0321C11.758-66.8061 11.501-67.0506 10.7427-67.2563C9.30567-67.6467 7.89017-68.1126 6.50212-68.6521C5.4851-69.0405 4.60785-69.7249 3.98359-70.6168C3.35933-71.5088 3.01673-72.5673 3-73.6559C3.00635-76.1538 6.38246-79.3866 9.54226-77.6618C11.7925-76.4334 13.7682-74.7928 16.0025-73.5427C16.6777-73.1649 17.0831-73.1961 17.6872-73.6501C19.8961-75.3105 22.0535-77.0439 24.5499-78.2969C26.2184-79.1343 27.9991-79.5803 29.7568-80.138C33.9762-81.4767 38.3025-81.2095 42.6205-81.1087C44.0269-81.0759 45.3409-80.5403 46.6278-80.0792C50.2783-78.771 53.7873-77.1146 56.8332-74.6812C59.7093-72.3835 62.1961-69.6751 63.704-66.2734C64.9505-63.4616 66.1685-60.5954 66.0594-57.3968Z"/>
  </g>
  <g id="Regular-S" transform="matrix(1 0 0 1 1403.58 696)">
   <path class="monochrome-0 multicolor-0:tintColor hierarchical-0:primary SFSymbolsPreviewWireframe" d="M63.0594-57.3968C62.9917-55.9196 63.0601-54.4278 62.829-52.9493C62.7536-52.4675 62.7199-51.9941 63.172-51.583C66.3719-48.6737 67.8357-44.8913 68.5483-40.7436C69.197-36.9672 68.9812-33.2022 67.7306-29.6154C66.238-25.3343 63.9605-21.5063 59.9025-19.0782C59.4346-18.7983 59.3019-18.5094 59.3534-17.9698C59.4397-16.8736 59.3899-15.7709 59.2052-14.6869C58.8593-12.4153 60.2274-10.8562 61.711-9.4635C64.2826-7.0291 67.5608-5.4741 71.073-5.0227C74.3128-4.579 77.2601-5.415 79.9297-7.2696C80.7205-7.8191 81.6785-8.2427 81.5892-9.4829C81.5676-9.7825 81.8777-9.9657 82.1613-10.0454C83.116-10.3136 83.0211-10.8277 82.7308-11.6361C81.5811-14.8383 81.5167-18.1717 81.7572-21.5223C81.8513-23.1872 82.1668-24.8323 82.6954-26.4139C83.2726-28.1745 84.2983-29.7544 85.6716-30.9981C86.781-31.9896 88.0785-32.5136 89.4895-32.0156C90.9628-31.4956 91.5451-30.1755 91.8059-28.6926C92.471-24.9117 91.3232-21.4331 89.9331-18.0394C88.9814-15.7161 88.096-13.339 86.6641-11.2385C86.3842-10.8294 86.0826-10.4357 85.7606-10.0589C85.5319-9.7906 85.4362-9.5507 85.5902-9.1968C86.0674-8.1002 85.6628-7.1903 84.9143-6.3838C84.6224-6.0692 84.2998-5.7945 84.3268-5.3047C84.4094-3.8071 83.7281-2.5358 83.0119-1.3181C82.2059 0.0524 81.2859 1.3588 80.3682 2.6596C79.5175 3.8462 78.4308 4.8441 77.1761 5.5906C74.6263 7.148 72.0045 8.4843 69.1084 9.3553C62.0273 11.4851 55.0715 10.8654 48.0456 9.0258C43.0229 7.7107 38.6354 5.3424 34.6602 2.0956C33.3066 0.99 32.0692-0.2312 31.1742-1.7512C30.769-2.4392 30.3609-2.475 29.6062-2.1558C25.1992-0.2915 21.0705-3.1345 21.2912-7.8057C21.3039-8.2317 21.4144-8.6492 21.6141-9.0257C21.9042-9.5289 21.8226-9.9594 21.6244-10.4384C20.8722-12.2568 20.9797-13.9752 22.2977-15.5127C22.6669-15.9435 22.4665-16.2034 22.1396-16.4857C22.0152-16.5864 21.8692-16.6571 21.7131-16.6923C21.5569-16.7274 21.3947-16.7261 21.2392-16.6884C17.8403-16.1708 15.5264-19.1241 15.2053-21.9446C14.991-23.8261 15.1703-25.6451 16.5905-27.108C16.6951-27.2296 16.7744-27.3707 16.824-27.5232C16.8736-27.6757 16.8924-27.8366 16.8793-27.9964C16.9216-29.5323 17.3729-31.029 18.1867-32.3323C18.5544-32.9538 18.352-33.16 17.7909-33.4251C15.5878-34.466 13.5696-35.7434 12.125-37.796C10.4171-40.2227 9.49072-42.8735 9.60108-45.855C9.65537-46.4918 9.49521-47.1285 9.14607-47.6638C6.91429-50.9987 6.44023-54.7276 6.68584-58.6369C6.84137-61.1834 7.43121-63.6845 8.42985-66.0321C8.75802-66.8061 8.50102-67.0506 7.74275-67.2563C6.30567-67.6467 4.89017-68.1126 3.50212-68.6521C2.4851-69.0405 1.60785-69.7249 0.983591-70.6168C0.359334-71.5088 0.016731-72.5673 0-73.6559C0.00635057-76.1538 3.38246-79.3866 6.54226-77.6618C8.79253-76.4334 10.7682-74.7928 13.0025-73.5427C13.6777-73.1649 14.0831-73.1961 14.6872-73.6501C16.8961-75.3105 19.0535-77.0439 21.5499-78.2969C23.2184-79.1343 24.9991-79.5803 26.7568-80.138C30.9762-81.4767 35.3025-81.2095 39.6205-81.1087C41.0269-81.0759 42.3409-80.5403 43.6278-80.0792C47.2783-78.771 50.7873-77.1146 53.8332-74.6812C56.7093-72.3835 59.1961-69.6751 60.704-66.2734C61.9505-63.4616 63.1685-60.5954 63.0594-57.3968Z"/>
  </g>
  <g id="Ultralight-S" transform="matrix(1 0 0 1 515.649 696)">
   <path class="monochrome-0 multicolor-0:tintColor hierarchical-0:primary SFSymbolsPreviewWireframe" d="M61.0594-57.3968C60.9917-55.9196 61.0601-54.4278 60.829-52.9493C60.7536-52.4675 60.7199-51.9941 61.172-51.583C64.3719-48.6737 65.8357-44.8913 66.5483-40.7436C67.197-36.9672 66.9812-33.2022 65.7306-29.6154C64.238-25.3343 61.9605-21.5063 57.9025-19.0782C57.4346-18.7983 57.3019-18.5094 57.3534-17.9698C57.4397-16.8736 57.3899-15.7709 57.2052-14.6869C56.8593-12.4153 58.2274-10.8562 59.711-9.4635C62.2826-7.0291 65.5608-5.4741 69.073-5.0227C72.3128-4.579 75.2601-5.415 77.9297-7.2696C78.7205-7.8191 79.6785-8.2427 79.5892-9.4829C79.5676-9.7825 79.8777-9.9657 80.1613-10.0454C81.116-10.3136 81.0211-10.8277 80.7308-11.6361C79.5811-14.8383 79.5167-18.1717 79.7572-21.5223C79.8513-23.1872 80.1668-24.8323 80.6954-26.4139C81.2726-28.1745 82.2983-29.7544 83.6716-30.9981C84.781-31.9896 86.0785-32.5136 87.4895-32.0156C88.9628-31.4956 89.5451-30.1755 89.8059-28.6926C90.471-24.9117 89.3232-21.4331 87.9331-18.0394C86.9814-15.7161 86.096-13.339 84.6641-11.2385C84.3842-10.8294 84.0826-10.4357 83.7606-10.0589C83.5319-9.7906 83.4362-9.5507 83.5902-9.1968C84.0674-8.1002 83.6628-7.1903 82.9143-6.3838C82.6224-6.0692 82.2998-5.7945 82.3268-5.3047C82.4094-3.8071 81.7281-2.5358 81.0119-1.3181C80.2059 0.0524 79.2859 1.3588 78.3682 2.6596C77.5175 3.8462 76.4308 4.8441 75.1761 5.5906C72.6263 7.148 70.0045 8.4843 67.1084 9.3553C60.0273 11.4851 53.0715 10.8654 46.0456 9.0258C41.0229 7.7107 36.6354 5.3424 32.6602 2.0956C31.3066 0.99 30.0692-0.2312 29.1742-1.7512C28.769-2.4392 28.3609-2.475 27.6062-2.1558C23.1992-0.2915 19.0705-3.1345 19.2912-7.8057C19.3039-8.2317 19.4144-8.6492 19.6141-9.0257C19.9042-9.5289 19.8226-9.9594 19.6244-10.4384C18.8722-12.2568 18.9797-13.9752 20.2977-15.5127C20.6669-15.9435 20.4665-16.2034 20.1396-16.4857C20.0152-16.5864 19.8692-16.6571 19.7131-16.6923C19.5569-16.7274 19.3947-16.7261 19.2392-16.6884C15.8403-16.1708 13.5264-19.1241 13.2053-21.9446C12.991-23.8261 13.1703-25.6451 14.5905-27.108C14.6951-27.2296 14.7744-27.3707 14.824-27.5232C14.8736-27.6757 14.8924-27.8366 14.8793-27.9964C14.9216-29.5323 15.3729-31.029 16.1867-32.3323C16.5544-32.9538 16.352-33.16 15.7909-33.4251C13.5878-34.466 11.5696-35.7434 10.125-37.796C8.4171-40.2227 7.49072-42.8735 7.60108-45.855C7.65537-46.4918 7.49521-47.1285 7.14607-47.6638C4.91429-50.9987 4.44023-54.7276 4.68584-58.6369C4.84137-61.1834 5.43121-63.6845 6.42985-66.0321C6.75802-66.8061 6.50102-67.0506 5.74275-67.2563C4.30567-67.6467 2.89017-68.1126 1.50212-68.6521C0.4851-69.0405-0.39215-69.7249-1.01641-70.6168C-1.64067-71.5088-1.98327-72.5673-2-73.6559C-1.99365-76.1538 1.38246-79.3866 4.54226-77.6618C6.79253-76.4334 8.7682-74.7928 11.0025-73.5427C11.6777-73.1649 12.0831-73.1961 12.6872-73.6501C14.8961-75.3105 17.0535-77.0439 19.5499-78.2969C21.2184-79.1343 22.9991-79.5803 24.7568-80.138C28.9762-81.4767 33.3025-81.2095 37.6205-81.1087C39.0269-81.0759 40.3409-80.5403 41.6278-80.0792C45.2783-78.771 48.7873-77.1146 51.8332-74.6812C54.7093-72.3835 57.1961-69.6751 58.704-66.2734C59.9505-63.4616 61.1685-60.5954 61.0594-57.3968Z"/>
  </g>
 </g>
</svg>
