<?xml version="1.0" encoding="UTF-8"?>
<!--Generator: Apple Native CoreSVG 232.5-->
<!DOCTYPE svg
PUBLIC "-//W3C//DTD SVG 1.1//EN"
       "http://www.w3.org/Graphics/SVG/1.1/DTD/svg11.dtd">
<svg version="1.1" xmlns="http://www.w3.org/2000/svg" xmlns:xlink="http://www.w3.org/1999/xlink" width="3300" height="2200">
 <!--glyph: "", point size: 100.0, font version: "19.2d2e1", template writer version: "128"-->
 <style>.monochrome-0 {-sfsymbols-motion-group:0}

.multicolor-0:tintColor {-sfsymbols-motion-group:0}

.hierarchical-0:primary {-sfsymbols-motion-group:0}

.SFSymbolsPreviewWireframe {fill:none;opacity:1.0;stroke:black;stroke-width:0.5}
</style>
 <g id="Notes">
  <rect height="2200" id="artboard" style="fill:white;opacity:1" width="3300" x="0" y="0"/>
  <line style="fill:none;stroke:black;opacity:1;stroke-width:0.5;" x1="263" x2="3036" y1="292" y2="292"/>
  <text style="stroke:none;fill:black;font-family:sans-serif;font-size:13;font-weight:bold;" transform="matrix(1 0 0 1 263 322)">Weight/Scale Variations</text>
  <text style="stroke:none;fill:black;font-family:sans-serif;font-size:13;text-anchor:middle;" transform="matrix(1 0 0 1 559.711 322)">Ultralight</text>
  <text style="stroke:none;fill:black;font-family:sans-serif;font-size:13;text-anchor:middle;" transform="matrix(1 0 0 1 856.422 322)">Thin</text>
  <text style="stroke:none;fill:black;font-family:sans-serif;font-size:13;text-anchor:middle;" transform="matrix(1 0 0 1 1153.13 322)">Light</text>
  <text style="stroke:none;fill:black;font-family:sans-serif;font-size:13;text-anchor:middle;" transform="matrix(1 0 0 1 1449.84 322)">Regular</text>
  <text style="stroke:none;fill:black;font-family:sans-serif;font-size:13;text-anchor:middle;" transform="matrix(1 0 0 1 1746.56 322)">Medium</text>
  <text style="stroke:none;fill:black;font-family:sans-serif;font-size:13;text-anchor:middle;" transform="matrix(1 0 0 1 2043.27 322)">Semibold</text>
  <text style="stroke:none;fill:black;font-family:sans-serif;font-size:13;text-anchor:middle;" transform="matrix(1 0 0 1 2339.98 322)">Bold</text>
  <text style="stroke:none;fill:black;font-family:sans-serif;font-size:13;text-anchor:middle;" transform="matrix(1 0 0 1 2636.69 322)">Heavy</text>
  <text style="stroke:none;fill:black;font-family:sans-serif;font-size:13;text-anchor:middle;" transform="matrix(1 0 0 1 2933.4 322)">Black</text>
  <line style="fill:none;stroke:black;opacity:1;stroke-width:0.5;" x1="263" x2="3036" y1="1903" y2="1903"/>
  <g transform="matrix(0.2 0 0 0.2 263 1933)">
   <path d="m46.2402 4.15039c21.5332 0 39.4531-17.8711 39.4531-39.4043s-17.9688-39.4043-39.502-39.4043c-21.4844 0-39.3555 17.8711-39.3555 39.4043s17.9199 39.4043 39.4043 39.4043Zm0-7.42188c-17.7246 0-31.8848-14.209-31.8848-31.9824s14.1113-31.9824 31.8359-31.9824c17.7734 0 32.0312 14.209 32.0312 31.9824s-14.209 31.9824-31.9824 31.9824Zm-17.9688-31.9824c0 2.14844 1.51367 3.61328 3.75977 3.61328h10.498v10.5957c0 2.19727 1.46484 3.71094 3.61328 3.71094 2.24609 0 3.71094-1.51367 3.71094-3.71094v-10.5957h10.5957c2.19727 0 3.71094-1.46484 3.71094-3.61328 0-2.19727-1.51367-3.71094-3.71094-3.71094h-10.5957v-10.5469c0-2.24609-1.46484-3.75977-3.71094-3.75977-2.14844 0-3.61328 1.51367-3.61328 3.75977v10.5469h-10.498c-2.24609 0-3.75977 1.51367-3.75977 3.71094Z"/>
  </g>
  <g transform="matrix(0.2 0 0 0.2 281.506 1933)">
   <path d="m58.5449 14.5508c27.2461 0 49.8047-22.6074 49.8047-49.8047 0-27.2461-22.6074-49.8047-49.8535-49.8047-27.1973 0-49.7559 22.5586-49.7559 49.8047 0 27.1973 22.6074 49.8047 49.8047 49.8047Zm0-8.30078c-23.0469 0-41.4551-18.457-41.4551-41.5039s18.3594-41.5039 41.4062-41.5039 41.5527 18.457 41.5527 41.5039-18.457 41.5039-41.5039 41.5039Zm-22.6562-41.5039c0 2.39258 1.66016 4.00391 4.15039 4.00391h14.3555v14.4043c0 2.44141 1.66016 4.15039 4.05273 4.15039 2.44141 0 4.15039-1.66016 4.15039-4.15039v-14.4043h14.4043c2.44141 0 4.15039-1.61133 4.15039-4.00391 0-2.44141-1.70898-4.15039-4.15039-4.15039h-14.4043v-14.3555c0-2.49023-1.70898-4.19922-4.15039-4.19922-2.39258 0-4.05273 1.70898-4.05273 4.19922v14.3555h-14.3555c-2.49023 0-4.15039 1.70898-4.15039 4.15039Z"/>
  </g>
  <g transform="matrix(0.2 0 0 0.2 304.924 1933)">
   <path d="m74.8535 28.3203c34.8145 0 63.623-28.8086 63.623-63.5742 0-34.8145-28.8574-63.623-63.6719-63.623-34.7656 0-63.5254 28.8086-63.5254 63.623 0 34.7656 28.8086 63.5742 63.5742 63.5742Zm0-9.08203c-30.1758 0-54.4434-24.3164-54.4434-54.4922 0-30.2246 24.2188-54.4922 54.3945-54.4922 30.2246 0 54.541 24.2676 54.541 54.4922 0 30.1758-24.2676 54.4922-54.4922 54.4922Zm-28.8574-54.4922c0 2.58789 1.85547 4.39453 4.58984 4.39453h19.7266v19.7754c0 2.68555 1.85547 4.58984 4.44336 4.58984 2.68555 0 4.54102-1.85547 4.54102-4.58984v-19.7754h19.7754c2.68555 0 4.58984-1.80664 4.58984-4.39453 0-2.73438-1.85547-4.58984-4.58984-4.58984h-19.7754v-19.7266c0-2.73438-1.85547-4.63867-4.54102-4.63867-2.58789 0-4.44336 1.9043-4.44336 4.63867v19.7266h-19.7266c-2.73438 0-4.58984 1.85547-4.58984 4.58984Z"/>
  </g>
  <text style="stroke:none;fill:black;font-family:sans-serif;font-size:13;font-weight:bold;" transform="matrix(1 0 0 1 263 1953)">Design Variations</text>
  <text style="stroke:none;fill:black;font-family:sans-serif;font-size:13;" transform="matrix(1 0 0 1 263 1971)">Symbols are supported in up to nine weights and three scales.</text>
  <text style="stroke:none;fill:black;font-family:sans-serif;font-size:13;" transform="matrix(1 0 0 1 263 1989)">For optimal layout with text and other symbols, vertically align</text>
  <text style="stroke:none;fill:black;font-family:sans-serif;font-size:13;" transform="matrix(1 0 0 1 263 2007)">symbols with the adjacent text.</text>
  <line style="fill:none;stroke:#00AEEF;stroke-width:0.5;opacity:1.0;" x1="776" x2="776" y1="1919" y2="1933"/>
  <g transform="matrix(0.2 0 0 0.2 776 1933)">
   <path d="m16.5527 0.78125c2.58789 0 3.85742-0.976562 4.78516-3.71094l6.29883-17.2363h28.8086l6.29883 17.2363c0.927734 2.73438 2.19727 3.71094 4.73633 3.71094 2.58789 0 4.24805-1.5625 4.24805-4.00391 0-0.830078-0.146484-1.61133-0.537109-2.63672l-22.9004-60.9863c-1.12305-2.97852-3.125-4.49219-6.25-4.49219-3.02734 0-5.07812 1.46484-6.15234 4.44336l-22.9004 61.084c-0.390625 1.02539-0.537109 1.80664-0.537109 2.63672 0 2.44141 1.5625 3.95508 4.10156 3.95508Zm13.4766-28.3691 11.8652-32.8613h0.244141l11.8652 32.8613Z"/>
  </g>
  <line style="fill:none;stroke:#00AEEF;stroke-width:0.5;opacity:1.0;" x1="792.836" x2="792.836" y1="1919" y2="1933"/>
  <text style="stroke:none;fill:black;font-family:sans-serif;font-size:13;font-weight:bold;" transform="matrix(1 0 0 1 776 1953)">Margins</text>
  <text style="stroke:none;fill:black;font-family:sans-serif;font-size:13;" transform="matrix(1 0 0 1 776 1971)">Leading and trailing margins on the left and right side of each symbol</text>
  <text style="stroke:none;fill:black;font-family:sans-serif;font-size:13;" transform="matrix(1 0 0 1 776 1989)">can be adjusted by modifying the x-location of the margin guidelines.</text>
  <text style="stroke:none;fill:black;font-family:sans-serif;font-size:13;" transform="matrix(1 0 0 1 776 2007)">Modifications are automatically applied proportionally to all</text>
  <text style="stroke:none;fill:black;font-family:sans-serif;font-size:13;" transform="matrix(1 0 0 1 776 2025)">scales and weights.</text>
  <g transform="matrix(0.2 0 0 0.2 1289 1933)">
   <path d="m14.209 9.32617 8.49609 8.54492c4.29688 4.3457 9.22852 4.05273 13.8672-1.07422l53.4668-58.9355-4.83398-4.88281-53.0762 58.3984c-1.75781 2.00195-3.41797 2.49023-5.76172 0.146484l-5.85938-5.81055c-2.34375-2.29492-1.80664-4.00391 0.195312-5.81055l57.373-54.0039-4.88281-4.83398-57.959 54.4434c-4.93164 4.58984-5.32227 9.47266-1.02539 13.8184Zm32.0801-90.9668c-2.09961 2.05078-2.24609 4.93164-1.07422 6.88477 1.17188 1.80664 3.4668 2.97852 6.68945 2.14844 7.32422-1.70898 14.9414-2.00195 22.0703 2.68555l-2.92969 7.27539c-1.70898 4.15039-0.830078 7.08008 1.85547 9.81445l11.4746 11.5723c2.44141 2.44141 4.49219 2.53906 7.32422 2.05078l5.32227-0.976562 3.32031 3.36914-0.195312 2.7832c-0.195312 2.49023 0.439453 4.39453 2.88086 6.78711l3.80859 3.71094c2.39258 2.39258 5.46875 2.53906 7.8125 0.195312l14.5508-14.5996c2.34375-2.34375 2.24609-5.32227-0.146484-7.71484l-3.85742-3.80859c-2.39258-2.39258-4.24805-3.17383-6.64062-2.97852l-2.88086 0.244141-3.22266-3.17383 1.2207-5.61523c0.634766-2.83203-0.146484-5.0293-3.07617-7.95898l-10.9863-10.9375c-16.6992-16.6016-38.8672-16.2109-53.3203-1.75781Zm7.4707 1.85547c12.1582-8.88672 28.6133-7.37305 39.7461 3.75977l12.1582 12.0605c1.17188 1.17188 1.36719 2.09961 1.02539 3.80859l-1.61133 7.42188 7.51953 7.42188 4.93164-0.292969c1.26953-0.0488281 1.66016 0.0488281 2.63672 1.02539l2.88086 2.88086-12.207 12.207-2.88086-2.88086c-0.976562-0.976562-1.12305-1.36719-1.07422-2.68555l0.341797-4.88281-7.4707-7.42188-7.61719 1.26953c-1.61133 0.341797-2.34375 0.195312-3.56445-0.976562l-10.0098-10.0098c-1.26953-1.17188-1.41602-2.00195-0.634766-3.85742l4.39453-10.4492c-7.8125-7.27539-17.9688-10.4004-28.125-7.42188-0.78125 0.195312-1.07422-0.439453-0.439453-0.976562Z"/>
  </g>
  <text style="stroke:none;fill:black;font-family:sans-serif;font-size:13;font-weight:bold;" transform="matrix(1 0 0 1 1289 1953)">Exporting</text>
  <text style="stroke:none;fill:black;font-family:sans-serif;font-size:13;" transform="matrix(1 0 0 1 1289 1971)">Symbols should be outlined when exporting to ensure the</text>
  <text style="stroke:none;fill:black;font-family:sans-serif;font-size:13;" transform="matrix(1 0 0 1 1289 1989)">design is preserved when submitting to Xcode.</text>
  <text id="template-version" style="stroke:none;fill:black;font-family:sans-serif;font-size:13;text-anchor:end;" transform="matrix(1 0 0 1 3036 1933)">Template v.5.0</text>
  <text style="stroke:none;fill:black;font-family:sans-serif;font-size:13;text-anchor:end;" transform="matrix(1 0 0 1 3036 1951)">Requires Xcode 15 or greater</text>
  <text id="descriptive-name" style="stroke:none;fill:black;font-family:sans-serif;font-size:13;text-anchor:end;" transform="matrix(1 0 0 1 3036 1969)">Generated from Short</text>
  <text style="stroke:none;fill:black;font-family:sans-serif;font-size:13;text-anchor:end;" transform="matrix(1 0 0 1 3036 1987)">Typeset at 100.0 points</text>
  <text style="stroke:none;fill:black;font-family:sans-serif;font-size:13;" transform="matrix(1 0 0 1 263 726)">Small</text>
  <text style="stroke:none;fill:black;font-family:sans-serif;font-size:13;" transform="matrix(1 0 0 1 263 1156)">Medium</text>
  <text style="stroke:none;fill:black;font-family:sans-serif;font-size:13;" transform="matrix(1 0 0 1 263 1586)">Large</text>
 </g>
 <g id="Guides">
  <g id="H-reference" style="fill:#27AAE1;stroke:none;" transform="matrix(1 0 0 1 339 696)">
   <path d="M0.993654 0L3.63775 0L29.3281-67.1323L30.0303-67.1323L30.0303-70.459L28.1226-70.459ZM11.6885-24.4799L46.9815-24.4799L46.2315-26.7285L12.4385-26.7285ZM55.1196 0L57.7637 0L30.6382-70.459L29.4326-70.459L29.4326-67.1323Z"/>
  </g>
  <line id="Baseline-S" style="fill:none;stroke:#27AAE1;opacity:1;stroke-width:0.5;" x1="263" x2="3036" y1="696" y2="696"/>
  <line id="Capline-S" style="fill:none;stroke:#27AAE1;opacity:1;stroke-width:0.5;" x1="263" x2="3036" y1="625.541" y2="625.541"/>
  <g id="H-reference" style="fill:#27AAE1;stroke:none;" transform="matrix(1 0 0 1 339 1126)">
   <path d="M0.993654 0L3.63775 0L29.3281-67.1323L30.0303-67.1323L30.0303-70.459L28.1226-70.459ZM11.6885-24.4799L46.9815-24.4799L46.2315-26.7285L12.4385-26.7285ZM55.1196 0L57.7637 0L30.6382-70.459L29.4326-70.459L29.4326-67.1323Z"/>
  </g>
  <line id="Baseline-M" style="fill:none;stroke:#27AAE1;opacity:1;stroke-width:0.5;" x1="263" x2="3036" y1="1126" y2="1126"/>
  <line id="Capline-M" style="fill:none;stroke:#27AAE1;opacity:1;stroke-width:0.5;" x1="263" x2="3036" y1="1055.54" y2="1055.54"/>
  <g id="H-reference" style="fill:#27AAE1;stroke:none;" transform="matrix(1 0 0 1 339 1556)">
   <path d="M0.993654 0L3.63775 0L29.3281-67.1323L30.0303-67.1323L30.0303-70.459L28.1226-70.459ZM11.6885-24.4799L46.9815-24.4799L46.2315-26.7285L12.4385-26.7285ZM55.1196 0L57.7637 0L30.6382-70.459L29.4326-70.459L29.4326-67.1323Z"/>
  </g>
  <line id="Baseline-L" style="fill:none;stroke:#27AAE1;opacity:1;stroke-width:0.5;" x1="263" x2="3036" y1="1556" y2="1556"/>
  <line id="Capline-L" style="fill:none;stroke:#27AAE1;opacity:1;stroke-width:0.5;" x1="263" x2="3036" y1="1485.54" y2="1485.54"/>
  <line id="left-margin-Ultralight-S" style="fill:none;stroke:#FF3B30;stroke-width:0.5;opacity:1.0;" x1="515.649" x2="515.649" y1="600.785" y2="720.121"/>
  <line id="right-margin-Ultralight-S" style="fill:none;stroke:#FF3B30;stroke-width:0.5;opacity:1.0;" x1="603.773" x2="603.773" y1="600.785" y2="720.121"/>
  <line id="left-margin-Regular-S" style="fill:none;stroke:#00AEEF;stroke-width:0.5;opacity:1.0;" x1="1403.58" x2="1403.58" y1="600.785" y2="720.121"/>
  <line id="right-margin-Regular-S" style="fill:none;stroke:#00AEEF;stroke-width:0.5;opacity:1.0;" x1="1496.11" x2="1496.11" y1="600.785" y2="720.121"/>
  <line id="left-margin-Black-S" style="fill:none;stroke:#00AEEF;stroke-width:0.5;opacity:1.0;" x1="2884.57" x2="2884.57" y1="600.785" y2="720.121"/>
  <line id="right-margin-Black-S" style="fill:none;stroke:#00AEEF;stroke-width:0.5;opacity:1.0;" x1="2982.23" x2="2982.23" y1="600.785" y2="720.121"/>
 </g>
 <g id="Symbols">
  <g id="Black-S" transform="matrix(1 0 0 1 2884.57 696)">
   <path class="monochrome-0 multicolor-0:tintColor hierarchical-0:primary SFSymbolsPreviewWireframe" d="M9.07245-29.653C11.2067-29.6433 11.1264-29.639 11.0133-31.7551C10.8554-34.7116 11.25-37.6307 11.9244-40.5112C13.0435-45.2915 15.0943-49.6073 18.2822-53.3679C19.028-54.2476 18.8834-55.3985 18.9533-56.4282C19.2936-61.4428 20.0756-66.3608 21.6865-71.1404C22.4714-73.4691 23.2342-75.7807 24.7677-77.7649C25.4746-78.6795 26.0616-78.9877 27.3381-78.5924C32.794-76.903 37.3439-73.7734 41.5999-70.1117C42.3069-69.5034 42.8058-68.7168 43.3962-68.008C44.0481-67.2255 44.7127-66.8335 45.8673-67.3267C49.1157-68.7143 52.5033-69.5768 56.0888-69.4114C59.1328-69.2709 61.7278-68.0502 63.9598-66.0657C66.3052-63.9803 68.0313-61.4947 68.7474-58.351C69.1614-56.5334 71.4248-55.0727 73.2822-55.0101C77.0108-54.8845 80.6936-54.4734 84.3193-53.4566C87.6954-52.5098 90.946-51.3564 93.8684-49.3907C95.0548-48.5927 95.2856-47.8179 94.6673-46.5786C93.306-43.8498 91.9298-41.1187 90.119-38.6567C87.7692-35.4619 85.0039-32.6637 81.5781-30.6133C80.4935-29.9641 79.9433-29.1612 79.842-27.9122C79.5813-24.6952 78.3674-21.7527 77.2265-18.7696C75.0048-12.9606 70.664-8.9077 66.1408-4.9855C65.3114-4.2663 65.159-3.2021 64.5764-2.3601C64.3077-1.9717 64.9281-1.8583 65.1898-1.6719C67.1224-0.2947 68.4466 1.6052 69.4526 3.6805C70.1716 5.1636 69.6291 6.4268 68.2726 7.2351C66.7026 8.1839 64.8271 8.4904 63.0367 8.0908C58.5577 7.1655 54.5442 5.3199 51.3094 1.9958C50.9029 1.5781 50.4505 1.5887 49.9378 1.6672C45.2643 2.3822 40.6857 2.1436 36.1931 0.5051C34.9685 0.0584 33.6694-0.1979 32.4976-0.8067C32.112-1.0071 31.8425-0.8681 31.5481-0.6054C27.0663 3.3927 21.718 4.1399 16.0203 3.4502C15.2702 3.3594 14.5224 2.9891 13.8448 2.6182C12.7237 2.0044 12.3472 0.8263 12.6732-0.5241C13.2293-2.828 15.0251-4.0881 16.764-5.3786C18.0256-6.3149 19.4624-6.9494 20.9214-7.5154C21.5225-7.7486 21.7527-7.9215 21.165-8.4985C18.5145-11.1012 16.1784-13.9488 14.5764-17.337C14.485-17.5258 14.3528-17.692 14.1893-17.8234C14.0258-17.9548 13.8351-18.0483 13.631-18.0969C9.89611-19.33 6.57781-21.5776 4.04712-24.5885C2.36082-26.5549 2.70976-28.0118 5.10483-29.0201C6.37813-29.5561 7.71149-29.6832 9.07245-29.653Z"/>
  </g>
  <g id="Regular-S" transform="matrix(1 0 0 1 1403.58 696)">
   <path class="monochrome-0 multicolor-0:tintColor hierarchical-0:primary SFSymbolsPreviewWireframe" d="M6.07245-29.653C8.20671-29.6433 8.12637-29.639 8.01334-31.7551C7.85542-34.7116 8.25001-37.6307 8.92438-40.5112C10.0435-45.2915 12.0943-49.6073 15.2822-53.3679C16.028-54.2476 15.8834-55.3985 15.9533-56.4282C16.2936-61.4428 17.0756-66.3608 18.6865-71.1404C19.4714-73.4691 20.2342-75.7807 21.7677-77.7649C22.4746-78.6795 23.0616-78.9877 24.3381-78.5924C29.794-76.903 34.3439-73.7734 38.5999-70.1117C39.3069-69.5034 39.8058-68.7168 40.3962-68.008C41.0481-67.2255 41.7127-66.8335 42.8673-67.3267C46.1157-68.7143 49.5033-69.5768 53.0888-69.4114C56.1328-69.2709 58.7278-68.0502 60.9598-66.0657C63.3052-63.9803 65.0313-61.4947 65.7474-58.351C66.1614-56.5334 68.4248-55.0727 70.2822-55.0101C74.0108-54.8845 77.6936-54.4734 81.3193-53.4566C84.6954-52.5098 87.946-51.3564 90.8684-49.3907C92.0548-48.5927 92.2856-47.8179 91.6673-46.5786C90.306-43.8498 88.9298-41.1187 87.119-38.6567C84.7692-35.4619 82.0039-32.6637 78.5781-30.6133C77.4935-29.9641 76.9433-29.1612 76.842-27.9122C76.5813-24.6952 75.3674-21.7527 74.2265-18.7696C72.0048-12.9606 67.664-8.9077 63.1408-4.9855C62.3114-4.2663 62.159-3.2021 61.5764-2.3601C61.3077-1.9717 61.9281-1.8583 62.1898-1.6719C64.1224-0.2947 65.4466 1.6052 66.4526 3.6805C67.1716 5.1636 66.6291 6.4268 65.2726 7.2351C63.7026 8.1839 61.8271 8.4904 60.0367 8.0908C55.5577 7.1655 51.5442 5.3199 48.3094 1.9958C47.9029 1.5781 47.4505 1.5887 46.9378 1.6672C42.2643 2.3822 37.6857 2.1436 33.1931 0.5051C31.9685 0.0584 30.6694-0.1979 29.4976-0.8067C29.112-1.0071 28.8425-0.8681 28.5481-0.6054C24.0663 3.3927 18.718 4.1399 13.0203 3.4502C12.2702 3.3594 11.5224 2.9891 10.8448 2.6182C9.72372 2.0044 9.34717 0.8263 9.67315-0.5241C10.2293-2.828 12.0251-4.0881 13.764-5.3786C15.0256-6.3149 16.4624-6.9494 17.9214-7.5154C18.5225-7.7486 18.7527-7.9215 18.165-8.4985C15.5145-11.1012 13.1784-13.9488 11.5764-17.337C11.485-17.5258 11.3528-17.692 11.1893-17.8234C11.0258-17.9548 10.8351-18.0483 10.631-18.0969C6.89611-19.33 3.57781-21.5776 1.04712-24.5885C-0.639184-26.5549-0.290243-28.0118 2.10483-29.0201C3.37813-29.5561 4.71149-29.6832 6.07245-29.653Z"/>
  </g>
  <g id="Ultralight-S" transform="matrix(1 0 0 1 515.649 696)">
   <path class="monochrome-0 multicolor-0:tintColor hierarchical-0:primary SFSymbolsPreviewWireframe" d="M4.07245-29.653C6.20671-29.6433 6.12637-29.639 6.01334-31.7551C5.85542-34.7116 6.25001-37.6307 6.92438-40.5112C8.0435-45.2915 10.0943-49.6073 13.2822-53.3679C14.028-54.2476 13.8834-55.3985 13.9533-56.4282C14.2936-61.4428 15.0756-66.3608 16.6865-71.1404C17.4714-73.4691 18.2342-75.7807 19.7677-77.7649C20.4746-78.6795 21.0616-78.9877 22.3381-78.5924C27.794-76.903 32.3439-73.7734 36.5999-70.1117C37.3069-69.5034 37.8058-68.7168 38.3962-68.008C39.0481-67.2255 39.7127-66.8335 40.8673-67.3267C44.1157-68.7143 47.5033-69.5768 51.0888-69.4114C54.1328-69.2709 56.7278-68.0502 58.9598-66.0657C61.3052-63.9803 63.0313-61.4947 63.7474-58.351C64.1614-56.5334 66.4248-55.0727 68.2822-55.0101C72.0108-54.8845 75.6936-54.4734 79.3193-53.4566C82.6954-52.5098 85.946-51.3564 88.8684-49.3907C90.0548-48.5927 90.2856-47.8179 89.6673-46.5786C88.306-43.8498 86.9298-41.1187 85.119-38.6567C82.7692-35.4619 80.0039-32.6637 76.5781-30.6133C75.4935-29.9641 74.9433-29.1612 74.842-27.9122C74.5813-24.6952 73.3674-21.7527 72.2265-18.7696C70.0048-12.9606 65.664-8.9077 61.1408-4.9855C60.3114-4.2663 60.159-3.2021 59.5764-2.3601C59.3077-1.9717 59.9281-1.8583 60.1898-1.6719C62.1224-0.2947 63.4466 1.6052 64.4526 3.6805C65.1716 5.1636 64.6291 6.4268 63.2726 7.2351C61.7026 8.1839 59.8271 8.4904 58.0367 8.0908C53.5577 7.1655 49.5442 5.3199 46.3094 1.9958C45.9029 1.5781 45.4505 1.5887 44.9378 1.6672C40.2643 2.3822 35.6857 2.1436 31.1931 0.5051C29.9685 0.0584 28.6694-0.1979 27.4976-0.8067C27.112-1.0071 26.8425-0.8681 26.5481-0.6054C22.0663 3.3927 16.718 4.1399 11.0203 3.4502C10.2702 3.3594 9.5224 2.9891 8.8448 2.6182C7.72372 2.0044 7.34717 0.8263 7.67315-0.5241C8.2293-2.828 10.0251-4.0881 11.764-5.3786C13.0256-6.3149 14.4624-6.9494 15.9214-7.5154C16.5225-7.7486 16.7527-7.9215 16.165-8.4985C13.5145-11.1012 11.1784-13.9488 9.5764-17.337C9.485-17.5258 9.3528-17.692 9.1893-17.8234C9.0258-17.9548 8.8351-18.0483 8.631-18.0969C4.89611-19.33 1.57781-21.5776-0.95288-24.5885C-2.63918-26.5549-2.29024-28.0118 0.10483-29.0201C1.37813-29.5561 2.71149-29.6832 4.07245-29.653Z"/>
  </g>
 </g>
</svg>
