<?xml version="1.0" encoding="UTF-8"?>
<!--Generator: Apple Native CoreSVG 232.5-->
<!DOCTYPE svg
PUBLIC "-//W3C//DTD SVG 1.1//EN"
       "http://www.w3.org/Graphics/SVG/1.1/DTD/svg11.dtd">
<svg version="1.1" xmlns="http://www.w3.org/2000/svg" xmlns:xlink="http://www.w3.org/1999/xlink" width="3300" height="2200">
 <!--glyph: "", point size: 100.0, font version: "19.2d2e1", template writer version: "128"-->
 <style>.monochrome-0 {-sfsymbols-motion-group:0}

.multicolor-0:tintColor {-sfsymbols-motion-group:0}

.hierarchical-0:primary {-sfsymbols-motion-group:0}

.SFSymbolsPreviewWireframe {fill:none;opacity:1.0;stroke:black;stroke-width:0.5}
</style>
 <g id="Notes">
  <rect height="2200" id="artboard" style="fill:white;opacity:1" width="3300" x="0" y="0"/>
  <line style="fill:none;stroke:black;opacity:1;stroke-width:0.5;" x1="263" x2="3036" y1="292" y2="292"/>
  <text style="stroke:none;fill:black;font-family:sans-serif;font-size:13;font-weight:bold;" transform="matrix(1 0 0 1 263 322)">Weight/Scale Variations</text>
  <text style="stroke:none;fill:black;font-family:sans-serif;font-size:13;text-anchor:middle;" transform="matrix(1 0 0 1 559.711 322)">Ultralight</text>
  <text style="stroke:none;fill:black;font-family:sans-serif;font-size:13;text-anchor:middle;" transform="matrix(1 0 0 1 856.422 322)">Thin</text>
  <text style="stroke:none;fill:black;font-family:sans-serif;font-size:13;text-anchor:middle;" transform="matrix(1 0 0 1 1153.13 322)">Light</text>
  <text style="stroke:none;fill:black;font-family:sans-serif;font-size:13;text-anchor:middle;" transform="matrix(1 0 0 1 1449.84 322)">Regular</text>
  <text style="stroke:none;fill:black;font-family:sans-serif;font-size:13;text-anchor:middle;" transform="matrix(1 0 0 1 1746.56 322)">Medium</text>
  <text style="stroke:none;fill:black;font-family:sans-serif;font-size:13;text-anchor:middle;" transform="matrix(1 0 0 1 2043.27 322)">Semibold</text>
  <text style="stroke:none;fill:black;font-family:sans-serif;font-size:13;text-anchor:middle;" transform="matrix(1 0 0 1 2339.98 322)">Bold</text>
  <text style="stroke:none;fill:black;font-family:sans-serif;font-size:13;text-anchor:middle;" transform="matrix(1 0 0 1 2636.69 322)">Heavy</text>
  <text style="stroke:none;fill:black;font-family:sans-serif;font-size:13;text-anchor:middle;" transform="matrix(1 0 0 1 2933.4 322)">Black</text>
  <line style="fill:none;stroke:black;opacity:1;stroke-width:0.5;" x1="263" x2="3036" y1="1903" y2="1903"/>
  <g transform="matrix(0.2 0 0 0.2 263 1933)">
   <path d="m46.2402 4.15039c21.5332 0 39.4531-17.8711 39.4531-39.4043s-17.9688-39.4043-39.502-39.4043c-21.4844 0-39.3555 17.8711-39.3555 39.4043s17.9199 39.4043 39.4043 39.4043Zm0-7.42188c-17.7246 0-31.8848-14.209-31.8848-31.9824s14.1113-31.9824 31.8359-31.9824c17.7734 0 32.0312 14.209 32.0312 31.9824s-14.209 31.9824-31.9824 31.9824Zm-17.9688-31.9824c0 2.14844 1.51367 3.61328 3.75977 3.61328h10.498v10.5957c0 2.19727 1.46484 3.71094 3.61328 3.71094 2.24609 0 3.71094-1.51367 3.71094-3.71094v-10.5957h10.5957c2.19727 0 3.71094-1.46484 3.71094-3.61328 0-2.19727-1.51367-3.71094-3.71094-3.71094h-10.5957v-10.5469c0-2.24609-1.46484-3.75977-3.71094-3.75977-2.14844 0-3.61328 1.51367-3.61328 3.75977v10.5469h-10.498c-2.24609 0-3.75977 1.51367-3.75977 3.71094Z"/>
  </g>
  <g transform="matrix(0.2 0 0 0.2 281.506 1933)">
   <path d="m58.5449 14.5508c27.2461 0 49.8047-22.6074 49.8047-49.8047 0-27.2461-22.6074-49.8047-49.8535-49.8047-27.1973 0-49.7559 22.5586-49.7559 49.8047 0 27.1973 22.6074 49.8047 49.8047 49.8047Zm0-8.30078c-23.0469 0-41.4551-18.457-41.4551-41.5039s18.3594-41.5039 41.4062-41.5039 41.5527 18.457 41.5527 41.5039-18.457 41.5039-41.5039 41.5039Zm-22.6562-41.5039c0 2.39258 1.66016 4.00391 4.15039 4.00391h14.3555v14.4043c0 2.44141 1.66016 4.15039 4.05273 4.15039 2.44141 0 4.15039-1.66016 4.15039-4.15039v-14.4043h14.4043c2.44141 0 4.15039-1.61133 4.15039-4.00391 0-2.44141-1.70898-4.15039-4.15039-4.15039h-14.4043v-14.3555c0-2.49023-1.70898-4.19922-4.15039-4.19922-2.39258 0-4.05273 1.70898-4.05273 4.19922v14.3555h-14.3555c-2.49023 0-4.15039 1.70898-4.15039 4.15039Z"/>
  </g>
  <g transform="matrix(0.2 0 0 0.2 304.924 1933)">
   <path d="m74.8535 28.3203c34.8145 0 63.623-28.8086 63.623-63.5742 0-34.8145-28.8574-63.623-63.6719-63.623-34.7656 0-63.5254 28.8086-63.5254 63.623 0 34.7656 28.8086 63.5742 63.5742 63.5742Zm0-9.08203c-30.1758 0-54.4434-24.3164-54.4434-54.4922 0-30.2246 24.2188-54.4922 54.3945-54.4922 30.2246 0 54.541 24.2676 54.541 54.4922 0 30.1758-24.2676 54.4922-54.4922 54.4922Zm-28.8574-54.4922c0 2.58789 1.85547 4.39453 4.58984 4.39453h19.7266v19.7754c0 2.68555 1.85547 4.58984 4.44336 4.58984 2.68555 0 4.54102-1.85547 4.54102-4.58984v-19.7754h19.7754c2.68555 0 4.58984-1.80664 4.58984-4.39453 0-2.73438-1.85547-4.58984-4.58984-4.58984h-19.7754v-19.7266c0-2.73438-1.85547-4.63867-4.54102-4.63867-2.58789 0-4.44336 1.9043-4.44336 4.63867v19.7266h-19.7266c-2.73438 0-4.58984 1.85547-4.58984 4.58984Z"/>
  </g>
  <text style="stroke:none;fill:black;font-family:sans-serif;font-size:13;font-weight:bold;" transform="matrix(1 0 0 1 263 1953)">Design Variations</text>
  <text style="stroke:none;fill:black;font-family:sans-serif;font-size:13;" transform="matrix(1 0 0 1 263 1971)">Symbols are supported in up to nine weights and three scales.</text>
  <text style="stroke:none;fill:black;font-family:sans-serif;font-size:13;" transform="matrix(1 0 0 1 263 1989)">For optimal layout with text and other symbols, vertically align</text>
  <text style="stroke:none;fill:black;font-family:sans-serif;font-size:13;" transform="matrix(1 0 0 1 263 2007)">symbols with the adjacent text.</text>
  <line style="fill:none;stroke:#00AEEF;stroke-width:0.5;opacity:1.0;" x1="776" x2="776" y1="1919" y2="1933"/>
  <g transform="matrix(0.2 0 0 0.2 776 1933)">
   <path d="m16.5527 0.78125c2.58789 0 3.85742-0.976562 4.78516-3.71094l6.29883-17.2363h28.8086l6.29883 17.2363c0.927734 2.73438 2.19727 3.71094 4.73633 3.71094 2.58789 0 4.24805-1.5625 4.24805-4.00391 0-0.830078-0.146484-1.61133-0.537109-2.63672l-22.9004-60.9863c-1.12305-2.97852-3.125-4.49219-6.25-4.49219-3.02734 0-5.07812 1.46484-6.15234 4.44336l-22.9004 61.084c-0.390625 1.02539-0.537109 1.80664-0.537109 2.63672 0 2.44141 1.5625 3.95508 4.10156 3.95508Zm13.4766-28.3691 11.8652-32.8613h0.244141l11.8652 32.8613Z"/>
  </g>
  <line style="fill:none;stroke:#00AEEF;stroke-width:0.5;opacity:1.0;" x1="792.836" x2="792.836" y1="1919" y2="1933"/>
  <text style="stroke:none;fill:black;font-family:sans-serif;font-size:13;font-weight:bold;" transform="matrix(1 0 0 1 776 1953)">Margins</text>
  <text style="stroke:none;fill:black;font-family:sans-serif;font-size:13;" transform="matrix(1 0 0 1 776 1971)">Leading and trailing margins on the left and right side of each symbol</text>
  <text style="stroke:none;fill:black;font-family:sans-serif;font-size:13;" transform="matrix(1 0 0 1 776 1989)">can be adjusted by modifying the x-location of the margin guidelines.</text>
  <text style="stroke:none;fill:black;font-family:sans-serif;font-size:13;" transform="matrix(1 0 0 1 776 2007)">Modifications are automatically applied proportionally to all</text>
  <text style="stroke:none;fill:black;font-family:sans-serif;font-size:13;" transform="matrix(1 0 0 1 776 2025)">scales and weights.</text>
  <g transform="matrix(0.2 0 0 0.2 1289 1933)">
   <path d="m14.209 9.32617 8.49609 8.54492c4.29688 4.3457 9.22852 4.05273 13.8672-1.07422l53.4668-58.9355-4.83398-4.88281-53.0762 58.3984c-1.75781 2.00195-3.41797 2.49023-5.76172 0.146484l-5.85938-5.81055c-2.34375-2.29492-1.80664-4.00391 0.195312-5.81055l57.373-54.0039-4.88281-4.83398-57.959 54.4434c-4.93164 4.58984-5.32227 9.47266-1.02539 13.8184Zm32.0801-90.9668c-2.09961 2.05078-2.24609 4.93164-1.07422 6.88477 1.17188 1.80664 3.4668 2.97852 6.68945 2.14844 7.32422-1.70898 14.9414-2.00195 22.0703 2.68555l-2.92969 7.27539c-1.70898 4.15039-0.830078 7.08008 1.85547 9.81445l11.4746 11.5723c2.44141 2.44141 4.49219 2.53906 7.32422 2.05078l5.32227-0.976562 3.32031 3.36914-0.195312 2.7832c-0.195312 2.49023 0.439453 4.39453 2.88086 6.78711l3.80859 3.71094c2.39258 2.39258 5.46875 2.53906 7.8125 0.195312l14.5508-14.5996c2.34375-2.34375 2.24609-5.32227-0.146484-7.71484l-3.85742-3.80859c-2.39258-2.39258-4.24805-3.17383-6.64062-2.97852l-2.88086 0.244141-3.22266-3.17383 1.2207-5.61523c0.634766-2.83203-0.146484-5.0293-3.07617-7.95898l-10.9863-10.9375c-16.6992-16.6016-38.8672-16.2109-53.3203-1.75781Zm7.4707 1.85547c12.1582-8.88672 28.6133-7.37305 39.7461 3.75977l12.1582 12.0605c1.17188 1.17188 1.36719 2.09961 1.02539 3.80859l-1.61133 7.42188 7.51953 7.42188 4.93164-0.292969c1.26953-0.0488281 1.66016 0.0488281 2.63672 1.02539l2.88086 2.88086-12.207 12.207-2.88086-2.88086c-0.976562-0.976562-1.12305-1.36719-1.07422-2.68555l0.341797-4.88281-7.4707-7.42188-7.61719 1.26953c-1.61133 0.341797-2.34375 0.195312-3.56445-0.976562l-10.0098-10.0098c-1.26953-1.17188-1.41602-2.00195-0.634766-3.85742l4.39453-10.4492c-7.8125-7.27539-17.9688-10.4004-28.125-7.42188-0.78125 0.195312-1.07422-0.439453-0.439453-0.976562Z"/>
  </g>
  <text style="stroke:none;fill:black;font-family:sans-serif;font-size:13;font-weight:bold;" transform="matrix(1 0 0 1 1289 1953)">Exporting</text>
  <text style="stroke:none;fill:black;font-family:sans-serif;font-size:13;" transform="matrix(1 0 0 1 1289 1971)">Symbols should be outlined when exporting to ensure the</text>
  <text style="stroke:none;fill:black;font-family:sans-serif;font-size:13;" transform="matrix(1 0 0 1 1289 1989)">design is preserved when submitting to Xcode.</text>
  <text id="template-version" style="stroke:none;fill:black;font-family:sans-serif;font-size:13;text-anchor:end;" transform="matrix(1 0 0 1 3036 1933)">Template v.5.0</text>
  <text style="stroke:none;fill:black;font-family:sans-serif;font-size:13;text-anchor:end;" transform="matrix(1 0 0 1 3036 1951)">Requires Xcode 15 or greater</text>
  <text id="descriptive-name" style="stroke:none;fill:black;font-family:sans-serif;font-size:13;text-anchor:end;" transform="matrix(1 0 0 1 3036 1969)">Generated from Medium</text>
  <text style="stroke:none;fill:black;font-family:sans-serif;font-size:13;text-anchor:end;" transform="matrix(1 0 0 1 3036 1987)">Typeset at 100.0 points</text>
  <text style="stroke:none;fill:black;font-family:sans-serif;font-size:13;" transform="matrix(1 0 0 1 263 726)">Small</text>
  <text style="stroke:none;fill:black;font-family:sans-serif;font-size:13;" transform="matrix(1 0 0 1 263 1156)">Medium</text>
  <text style="stroke:none;fill:black;font-family:sans-serif;font-size:13;" transform="matrix(1 0 0 1 263 1586)">Large</text>
 </g>
 <g id="Guides">
  <g id="H-reference" style="fill:#27AAE1;stroke:none;" transform="matrix(1 0 0 1 339 696)">
   <path d="M0.993654 0L3.63775 0L29.3281-67.1323L30.0303-67.1323L30.0303-70.459L28.1226-70.459ZM11.6885-24.4799L46.9815-24.4799L46.2315-26.7285L12.4385-26.7285ZM55.1196 0L57.7637 0L30.6382-70.459L29.4326-70.459L29.4326-67.1323Z"/>
  </g>
  <line id="Baseline-S" style="fill:none;stroke:#27AAE1;opacity:1;stroke-width:0.5;" x1="263" x2="3036" y1="696" y2="696"/>
  <line id="Capline-S" style="fill:none;stroke:#27AAE1;opacity:1;stroke-width:0.5;" x1="263" x2="3036" y1="625.541" y2="625.541"/>
  <g id="H-reference" style="fill:#27AAE1;stroke:none;" transform="matrix(1 0 0 1 339 1126)">
   <path d="M0.993654 0L3.63775 0L29.3281-67.1323L30.0303-67.1323L30.0303-70.459L28.1226-70.459ZM11.6885-24.4799L46.9815-24.4799L46.2315-26.7285L12.4385-26.7285ZM55.1196 0L57.7637 0L30.6382-70.459L29.4326-70.459L29.4326-67.1323Z"/>
  </g>
  <line id="Baseline-M" style="fill:none;stroke:#27AAE1;opacity:1;stroke-width:0.5;" x1="263" x2="3036" y1="1126" y2="1126"/>
  <line id="Capline-M" style="fill:none;stroke:#27AAE1;opacity:1;stroke-width:0.5;" x1="263" x2="3036" y1="1055.54" y2="1055.54"/>
  <g id="H-reference" style="fill:#27AAE1;stroke:none;" transform="matrix(1 0 0 1 339 1556)">
   <path d="M0.993654 0L3.63775 0L29.3281-67.1323L30.0303-67.1323L30.0303-70.459L28.1226-70.459ZM11.6885-24.4799L46.9815-24.4799L46.2315-26.7285L12.4385-26.7285ZM55.1196 0L57.7637 0L30.6382-70.459L29.4326-70.459L29.4326-67.1323Z"/>
  </g>
  <line id="Baseline-L" style="fill:none;stroke:#27AAE1;opacity:1;stroke-width:0.5;" x1="263" x2="3036" y1="1556" y2="1556"/>
  <line id="Capline-L" style="fill:none;stroke:#27AAE1;opacity:1;stroke-width:0.5;" x1="263" x2="3036" y1="1485.54" y2="1485.54"/>
  <line id="left-margin-Ultralight-S" style="fill:none;stroke:#00AEEF;stroke-width:0.5;opacity:1.0;" x1="515.649" x2="515.649" y1="600.785" y2="720.121"/>
  <line id="right-margin-Ultralight-S" style="fill:none;stroke:#00AEEF;stroke-width:0.5;opacity:1.0;" x1="603.773" x2="603.773" y1="600.785" y2="720.121"/>
  <line id="left-margin-Regular-S" style="fill:none;stroke:#00AEEF;stroke-width:0.5;opacity:1.0;" x1="1403.58" x2="1403.58" y1="600.785" y2="720.121"/>
  <line id="right-margin-Regular-S" style="fill:none;stroke:#00AEEF;stroke-width:0.5;opacity:1.0;" x1="1496.11" x2="1496.11" y1="600.785" y2="720.121"/>
  <line id="left-margin-Black-S" style="fill:none;stroke:#00AEEF;stroke-width:0.5;opacity:1.0;" x1="2884.57" x2="2884.57" y1="600.785" y2="720.121"/>
  <line id="right-margin-Black-S" style="fill:none;stroke:#00AEEF;stroke-width:0.5;opacity:1.0;" x1="2982.23" x2="2982.23" y1="600.785" y2="720.121"/>
 </g>
 <g id="Symbols">
  <g id="Black-S" transform="matrix(1 0 0 1 2884.57 696)">
   <path class="monochrome-0 multicolor-0:tintColor hierarchical-0:primary SFSymbolsPreviewWireframe" d="M37.9799-62.0967C36.8007-62.5556 35.7152-63.226 34.7769-64.075C34.0248-64.776 33.2016-65.4756 33.6362-66.7046C33.7564-67.0446 33.4735-67.118 33.2762-67.2566C30.8668-68.949 30.8989-72.0769 33.3207-73.8044C34.1479-74.3603 35.0902-74.722 36.0769-74.8624C36.5795-74.9525 37.0984-74.9889 36.9828-75.7361C36.979-75.8242 36.9935-75.9121 37.0254-75.9942C37.0572-76.0765 37.1057-76.1512 37.1679-76.2137C37.9615-76.967 38.6557-78.0416 39.605-78.3721C42.062-79.2276 44.2452-80.8552 46.9659-80.9876C48.4175-81.0583 49.8602-81.3087 51.3212-81.2374C52.5166-81.179 53.4428-80.7299 53.8818-79.5233C54.1971-78.6569 54.5709-77.8117 54.8847-76.9447C55.3158-75.7539 55.6469-74.5627 56.4353-73.4855C57.3741-72.2026 57.2619-70.5062 57.6209-68.9933C57.7421-68.5476 57.8186-68.091 57.8492-67.6301C57.9369-64.8632 59.7608-63.512 61.9994-62.5009C62.7766-62.1499 63.6014-62.283 64.4141-62.3547C66.1843-62.5189 67.9695-62.3353 69.6692-61.8141C71.4568-61.265 72.735-60.0453 73.807-58.6066C76.1474-55.4655 79.4726-53.6247 82.7869-51.8C84.005-51.1294 85.2215-50.501 86.2708-49.5809C86.8112-49.1357 87.2088-48.5413 87.414-47.8718C87.6192-47.2023 87.6229-46.4872 87.4248-45.8155C87.0199-44.2401 86.7553-42.6292 86.1509-41.0952C85.4864-39.409 84.3709-38.3325 82.7473-37.5205C80.8836-36.5885 79.1959-35.3231 77.2658-34.472C75.8606-33.8772 74.4109-33.3935 72.9301-33.0251C71.6196-32.6777 70.803-31.9959 70.6009-30.6354C70.4662-29.7284 69.9211-29.1982 69.0631-28.9195C67.6082-28.4469 67.6525-28.455 68.3747-27.0633C69.7456-24.4214 71.2024-21.8204 71.3545-18.7165C71.4271-17.2363 72.3052-16.0198 73.4061-15.09C75.6545-13.1911 76.6035-10.743 76.7809-7.8937C76.8404-6.9384 76.5749-6.0013 76.7573-5.0315C76.9013-4.266 77.1111-3.5827 77.7074-3.0711C78.6864-2.2312 79.0745-1.149 79.2075 0.1093C79.3245 1.1726 79.7659 2.1742 80.4717 2.9781C81.5684 4.2739 82.3174 5.8194 83.347 7.1836C84.2586 8.3914 83.0321 10.1157 81.4283 10.0738C79.7353 10.0296 78.0762 10.3304 76.4081 10.5315C75.8372 10.6003 75.2609 10.4487 74.7418 10.4962C72.9991 10.6556 71.3338 10.4257 69.6156 10.189C68.7466 10.0693 67.684 10.8436 66.5855 10.7405C66.0239 10.6642 65.5009 10.4122 65.0913 10.0206C64.6817 9.629 64.4065 9.1178 64.3051 8.5603C64.2148 8.0655 64.3061 7.5548 64.5623 7.1219C64.8185 6.6891 65.2223 6.3632 65.6995 6.2043C66.992 5.7765 67.5298 4.8711 67.7429 3.6192C68.3192 0.2355 68.2655 0.1178 65.3048-1.6662C64.4204-2.1992 63.5028-2.6543 62.5727-3.0984C61.2127-3.7478 60.3457-4.8086 60.0992-6.3356C59.8724-7.7012 59.7339-9.0799 59.6844-10.4634C59.6482-11.6141 59.1821-12.4327 58.0502-12.9524C55.2973-14.2162 53.2708-16.3723 51.4962-18.7468C50.6859-19.8311 49.7727-20.4205 48.4101-20.5101C46.8986-20.6096 45.3766-20.6406 43.9035-21.1916C42.9463-21.5496 41.7519-20.8901 41.2064-19.9272C39.4728-16.8667 36.9811-14.7271 33.6503-13.5532C32.2875-13.073 31.9932-12.6617 32.6586-11.4221C34.2189-8.5154 33.4721-6.2043 31.2312-4.0871C30.7561-3.6061 30.3522-3.0597 30.0316-2.4644C29.2766-1.1581 29.6338 0.4318 31.0344 1.7339C31.3241 1.9688 31.5342 2.2875 31.6358 2.6464C31.7374 3.0052 31.7255 3.3867 31.602 3.7386C31.2657 4.9318 30.7366 5.9966 29.5857 6.6174C29.087 6.8954 28.6506 7.2728 28.3036 7.7262C26.8653 9.5465 24.9014 9.8082 22.9101 9.231C21.4336 8.8029 19.9737 8.9583 18.5217 8.8539C16.5095 8.7092 14.4968 8.5916 12.4983 8.3151C11.0246 8.1112 10.2987 6.7764 10.8926 5.4817C11.2564 4.6886 12.0044 4.6898 12.6898 4.5563C15.4897 4.0107 18.9528 0.5571 19.5133-2.227C19.6263-2.7126 19.5972-3.2204 19.4295-3.6899C19.1826-4.3553 19.0045-5.0568 18.6767-5.6796C17.6639-7.6035 17.5921-9.5043 18.4784-11.5088C18.9378-12.5478 18.9781-13.7029 18.8196-14.8486C18.7455-15.2331 18.7455-15.6282 18.8195-16.0127C19.5981-18.9895 20.5834-21.8657 22.9022-24.0696C23.3896-24.5329 23.8162-25.0611 24.2607-25.5683C24.3914-25.7174 24.6263-25.8736 24.4698-26.1048C24.3951-26.2068 24.287-26.2792 24.1643-26.3096C24.0416-26.34 23.9122-26.3264 23.7985-26.2711C23.5309-26.1763 23.272-26.0544 23.0007-25.9729C21.8673-25.6319 20.7194-25.3713 19.558-25.8132C18.9444-26.0467 18.3668-25.7409 17.7677-25.7891C16.0908-25.924 14.6011-26.6082 13.22-27.4735C11.8287-28.3452 11.5647-29.4038 12.219-30.955C12.4275-31.4049 12.5368-31.8944 12.5394-32.3902C12.5419-32.886 12.4378-33.3766 12.234-33.8286C11.6905-35.1001 11.2355-36.4095 10.7466-37.7041C10.3352-38.8115 10.3236-40.0279 10.7138-41.1429C11.1678-42.5623 11.6486-43.9804 11.9735-45.4313C12.1789-46.3486 12.1296-47.3245 12.1782-48.2749C12.2321-49.3305 12.6753-50.1742 13.688-50.5132C15.5467-51.1354 16.8576-52.4825 18.2474-53.742C19.2692-54.6681 20.5303-55.1641 21.788-55.6529C24.5429-56.7235 27.164-57.9855 29.4416-59.9494C31.0587-61.3438 33.1739-61.6087 35.2306-61.8286C36.1429-61.9261 37.0517-62.1071 37.9799-62.0967ZM29.3884-30.372C32.4264-31.1459 33.8761-33.387 35.1099-35.846C35.2545-36.1342 35.3951-36.4109 35.209-36.7451C34.4685-38.0748 34.841-39.2819 35.6732-40.4039C36.1715-41.0757 36.0003-41.5645 35.51-42.1849C34.2567-43.7709 32.5815-43.5713 30.9367-43.3293C29.7204-43.1503 28.4482-42.8817 27.7269-41.698C26.6436-39.9205 27.1031-37.2293 28.6757-35.8901C28.9452-35.6605 29.2232-35.44 29.4827-35.1995C30.229-34.5076 30.4918-33.7231 30.0867-32.7167C29.7868-31.9716 29.6212-31.1725 29.3884-30.372L29.3884-30.372Z"/>
  </g>
  <g id="Regular-S" transform="matrix(1 0 0 1 1403.58 696)">
   <path class="monochrome-0 multicolor-0:tintColor hierarchical-0:primary SFSymbolsPreviewWireframe" d="M34.9799-62.0967C33.8007-62.5556 32.7152-63.226 31.7769-64.075C31.0248-64.776 30.2016-65.4756 30.6362-66.7046C30.7564-67.0446 30.4735-67.118 30.2762-67.2566C27.8668-68.949 27.8989-72.0769 30.3207-73.8044C31.1479-74.3603 32.0902-74.722 33.0769-74.8624C33.5795-74.9525 34.0984-74.9889 33.9828-75.7361C33.979-75.8242 33.9935-75.9121 34.0254-75.9942C34.0572-76.0765 34.1057-76.1512 34.1679-76.2137C34.9615-76.967 35.6557-78.0416 36.605-78.3721C39.062-79.2276 41.2452-80.8552 43.9659-80.9876C45.4175-81.0583 46.8602-81.3087 48.3212-81.2374C49.5166-81.179 50.4428-80.7299 50.8818-79.5233C51.1971-78.6569 51.5709-77.8117 51.8847-76.9447C52.3158-75.7539 52.6469-74.5627 53.4353-73.4855C54.3741-72.2026 54.2619-70.5062 54.6209-68.9933C54.7421-68.5476 54.8186-68.091 54.8492-67.6301C54.9369-64.8632 56.7608-63.512 58.9994-62.5009C59.7766-62.1499 60.6014-62.283 61.4141-62.3547C63.1843-62.5189 64.9695-62.3353 66.6692-61.8141C68.4568-61.265 69.735-60.0453 70.807-58.6066C73.1474-55.4655 76.4726-53.6247 79.7869-51.8C81.005-51.1294 82.2215-50.501 83.2708-49.5809C83.8112-49.1357 84.2088-48.5413 84.414-47.8718C84.6192-47.2023 84.6229-46.4872 84.4248-45.8155C84.0199-44.2401 83.7553-42.6292 83.1509-41.0952C82.4864-39.409 81.3709-38.3325 79.7473-37.5205C77.8836-36.5885 76.1959-35.3231 74.2658-34.472C72.8606-33.8772 71.4109-33.3935 69.9301-33.0251C68.6196-32.6777 67.803-31.9959 67.6009-30.6354C67.4662-29.7284 66.9211-29.1982 66.0631-28.9195C64.6082-28.4469 64.6525-28.455 65.3747-27.0633C66.7456-24.4214 68.2024-21.8204 68.3545-18.7165C68.4271-17.2363 69.3052-16.0198 70.4061-15.09C72.6545-13.1911 73.6035-10.743 73.7809-7.8937C73.8404-6.9384 73.5749-6.0013 73.7573-5.0315C73.9013-4.266 74.1111-3.5827 74.7074-3.0711C75.6864-2.2312 76.0745-1.149 76.2075 0.1093C76.3245 1.1726 76.7659 2.1742 77.4717 2.9781C78.5684 4.2739 79.3174 5.8194 80.347 7.1836C81.2586 8.3914 80.0321 10.1157 78.4283 10.0738C76.7353 10.0296 75.0762 10.3304 73.4081 10.5315C72.8372 10.6003 72.2609 10.4487 71.7418 10.4962C69.9991 10.6556 68.3338 10.4257 66.6156 10.189C65.7466 10.0693 64.684 10.8436 63.5855 10.7405C63.0239 10.6642 62.5009 10.4122 62.0913 10.0206C61.6817 9.629 61.4065 9.1178 61.3051 8.5603C61.2148 8.0655 61.3061 7.5548 61.5623 7.1219C61.8185 6.6891 62.2223 6.3632 62.6995 6.2043C63.992 5.7765 64.5298 4.8711 64.7429 3.6192C65.3192 0.2355 65.2655 0.1178 62.3048-1.6662C61.4204-2.1992 60.5028-2.6543 59.5727-3.0984C58.2127-3.7478 57.3457-4.8086 57.0992-6.3356C56.8724-7.7012 56.7339-9.0799 56.6844-10.4634C56.6482-11.6141 56.1821-12.4327 55.0502-12.9524C52.2973-14.2162 50.2708-16.3723 48.4962-18.7468C47.6859-19.8311 46.7727-20.4205 45.4101-20.5101C43.8986-20.6096 42.3766-20.6406 40.9035-21.1916C39.9463-21.5496 38.7519-20.8901 38.2064-19.9272C36.4728-16.8667 33.9811-14.7271 30.6503-13.5532C29.2875-13.073 28.9932-12.6617 29.6586-11.4221C31.2189-8.5154 30.4721-6.2043 28.2312-4.0871C27.7561-3.6061 27.3522-3.0597 27.0316-2.4644C26.2766-1.1581 26.6338 0.4318 28.0344 1.7339C28.3241 1.9688 28.5342 2.2875 28.6358 2.6464C28.7374 3.0052 28.7255 3.3867 28.602 3.7386C28.2657 4.9318 27.7366 5.9966 26.5857 6.6174C26.087 6.8954 25.6506 7.2728 25.3036 7.7262C23.8653 9.5465 21.9014 9.8082 19.9101 9.231C18.4336 8.8029 16.9737 8.9583 15.5217 8.8539C13.5095 8.7092 11.4968 8.5916 9.49828 8.3151C8.02456 8.1112 7.29868 6.7764 7.89264 5.4817C8.25643 4.6886 9.00441 4.6898 9.68975 4.5563C12.4897 4.0107 15.9528 0.5571 16.5133-2.227C16.6263-2.7126 16.5972-3.2204 16.4295-3.6899C16.1826-4.3553 16.0045-5.0568 15.6767-5.6796C14.6639-7.6035 14.5921-9.5043 15.4784-11.5088C15.9378-12.5478 15.9781-13.7029 15.8196-14.8486C15.7455-15.2331 15.7455-15.6282 15.8195-16.0127C16.5981-18.9895 17.5834-21.8657 19.9022-24.0696C20.3896-24.5329 20.8162-25.0611 21.2607-25.5683C21.3914-25.7174 21.6263-25.8736 21.4698-26.1048C21.3951-26.2068 21.287-26.2792 21.1643-26.3096C21.0416-26.34 20.9122-26.3264 20.7985-26.2711C20.5309-26.1763 20.272-26.0544 20.0007-25.9729C18.8673-25.6319 17.7194-25.3713 16.558-25.8132C15.9444-26.0467 15.3668-25.7409 14.7677-25.7891C13.0908-25.924 11.6011-26.6082 10.22-27.4735C8.82871-28.3452 8.56468-29.4038 9.21899-30.955C9.4275-31.4049 9.53676-31.8944 9.53935-32.3902C9.54194-32.886 9.43779-33.3766 9.23399-33.8286C8.69049-35.1001 8.23551-36.4095 7.74664-37.7041C7.33518-38.8115 7.32356-40.0279 7.7138-41.1429C8.16777-42.5623 8.6486-43.9804 8.97348-45.4313C9.17887-46.3486 9.1296-47.3245 9.17816-48.2749C9.23209-49.3305 9.67527-50.1742 10.688-50.5132C12.5467-51.1354 13.8576-52.4825 15.2474-53.742C16.2692-54.6681 17.5303-55.1641 18.788-55.6529C21.5429-56.7235 24.164-57.9855 26.4416-59.9494C28.0587-61.3438 30.1739-61.6087 32.2306-61.8286C33.1429-61.9261 34.0517-62.1071 34.9799-62.0967ZM26.3884-30.372C29.4264-31.1459 30.8761-33.387 32.1099-35.846C32.2545-36.1342 32.3951-36.4109 32.209-36.7451C31.4685-38.0748 31.841-39.2819 32.6732-40.4039C33.1715-41.0757 33.0003-41.5645 32.51-42.1849C31.2567-43.7709 29.5815-43.5713 27.9367-43.3293C26.7204-43.1503 25.4482-42.8817 24.7269-41.698C23.6436-39.9205 24.1031-37.2293 25.6757-35.8901C25.9452-35.6605 26.2232-35.44 26.4827-35.1995C27.229-34.5076 27.4918-33.7231 27.0867-32.7167C26.7868-31.9716 26.6212-31.1725 26.3884-30.372L26.3884-30.372Z"/>
  </g>
  <g id="Ultralight-S" transform="matrix(1 0 0 1 515.649 696)">
   <path class="monochrome-0 multicolor-0:tintColor hierarchical-0:primary SFSymbolsPreviewWireframe" d="M32.9799-62.0967C31.8007-62.5556 30.7152-63.226 29.7769-64.075C29.0248-64.776 28.2016-65.4756 28.6362-66.7046C28.7564-67.0446 28.4735-67.118 28.2762-67.2566C25.8668-68.949 25.8989-72.0769 28.3207-73.8044C29.1479-74.3603 30.0902-74.722 31.0769-74.8624C31.5795-74.9525 32.0984-74.9889 31.9828-75.7361C31.979-75.8242 31.9935-75.9121 32.0254-75.9942C32.0572-76.0765 32.1057-76.1512 32.1679-76.2137C32.9615-76.967 33.6557-78.0416 34.605-78.3721C37.062-79.2276 39.2452-80.8552 41.9659-80.9876C43.4175-81.0583 44.8602-81.3087 46.3212-81.2374C47.5166-81.179 48.4428-80.7299 48.8818-79.5233C49.1971-78.6569 49.5709-77.8117 49.8847-76.9447C50.3158-75.7539 50.6469-74.5627 51.4353-73.4855C52.3741-72.2026 52.2619-70.5062 52.6209-68.9933C52.7421-68.5476 52.8186-68.091 52.8492-67.6301C52.9369-64.8632 54.7608-63.512 56.9994-62.5009C57.7766-62.1499 58.6014-62.283 59.4141-62.3547C61.1843-62.5189 62.9695-62.3353 64.6692-61.8141C66.4568-61.265 67.735-60.0453 68.807-58.6066C71.1474-55.4655 74.4726-53.6247 77.7869-51.8C79.005-51.1294 80.2215-50.501 81.2708-49.5809C81.8112-49.1357 82.2088-48.5413 82.414-47.8718C82.6192-47.2023 82.6229-46.4872 82.4248-45.8155C82.0199-44.2401 81.7553-42.6292 81.1509-41.0952C80.4864-39.409 79.3709-38.3325 77.7473-37.5205C75.8836-36.5885 74.1959-35.3231 72.2658-34.472C70.8606-33.8772 69.4109-33.3935 67.9301-33.0251C66.6196-32.6777 65.803-31.9959 65.6009-30.6354C65.4662-29.7284 64.9211-29.1982 64.0631-28.9195C62.6082-28.4469 62.6525-28.455 63.3747-27.0633C64.7456-24.4214 66.2024-21.8204 66.3545-18.7165C66.4271-17.2363 67.3052-16.0198 68.4061-15.09C70.6545-13.1911 71.6035-10.743 71.7809-7.8937C71.8404-6.9384 71.5749-6.0013 71.7573-5.0315C71.9013-4.266 72.1111-3.5827 72.7074-3.0711C73.6864-2.2312 74.0745-1.149 74.2075 0.1093C74.3245 1.1726 74.7659 2.1742 75.4717 2.9781C76.5684 4.2739 77.3174 5.8194 78.347 7.1836C79.2586 8.3914 78.0321 10.1157 76.4283 10.0738C74.7353 10.0296 73.0762 10.3304 71.4081 10.5315C70.8372 10.6003 70.2609 10.4487 69.7418 10.4962C67.9991 10.6556 66.3338 10.4257 64.6156 10.189C63.7466 10.0693 62.684 10.8436 61.5855 10.7405C61.0239 10.6642 60.5009 10.4122 60.0913 10.0206C59.6817 9.629 59.4065 9.1178 59.3051 8.5603C59.2148 8.0655 59.3061 7.5548 59.5623 7.1219C59.8185 6.6891 60.2223 6.3632 60.6995 6.2043C61.992 5.7765 62.5298 4.8711 62.7429 3.6192C63.3192 0.2355 63.2655 0.1178 60.3048-1.6662C59.4204-2.1992 58.5028-2.6543 57.5727-3.0984C56.2127-3.7478 55.3457-4.8086 55.0992-6.3356C54.8724-7.7012 54.7339-9.0799 54.6844-10.4634C54.6482-11.6141 54.1821-12.4327 53.0502-12.9524C50.2973-14.2162 48.2708-16.3723 46.4962-18.7468C45.6859-19.8311 44.7727-20.4205 43.4101-20.5101C41.8986-20.6096 40.3766-20.6406 38.9035-21.1916C37.9463-21.5496 36.7519-20.8901 36.2064-19.9272C34.4728-16.8667 31.9811-14.7271 28.6503-13.5532C27.2875-13.073 26.9932-12.6617 27.6586-11.4221C29.2189-8.5154 28.4721-6.2043 26.2312-4.0871C25.7561-3.6061 25.3522-3.0597 25.0316-2.4644C24.2766-1.1581 24.6338 0.4318 26.0344 1.7339C26.3241 1.9688 26.5342 2.2875 26.6358 2.6464C26.7374 3.0052 26.7255 3.3867 26.602 3.7386C26.2657 4.9318 25.7366 5.9966 24.5857 6.6174C24.087 6.8954 23.6506 7.2728 23.3036 7.7262C21.8653 9.5465 19.9014 9.8082 17.9101 9.231C16.4336 8.8029 14.9737 8.9583 13.5217 8.8539C11.5095 8.7092 9.4968 8.5916 7.49828 8.3151C6.02456 8.1112 5.29868 6.7764 5.89264 5.4817C6.25643 4.6886 7.00441 4.6898 7.68975 4.5563C10.4897 4.0107 13.9528 0.5571 14.5133-2.227C14.6263-2.7126 14.5972-3.2204 14.4295-3.6899C14.1826-4.3553 14.0045-5.0568 13.6767-5.6796C12.6639-7.6035 12.5921-9.5043 13.4784-11.5088C13.9378-12.5478 13.9781-13.7029 13.8196-14.8486C13.7455-15.2331 13.7455-15.6282 13.8195-16.0127C14.5981-18.9895 15.5834-21.8657 17.9022-24.0696C18.3896-24.5329 18.8162-25.0611 19.2607-25.5683C19.3914-25.7174 19.6263-25.8736 19.4698-26.1048C19.3951-26.2068 19.287-26.2792 19.1643-26.3096C19.0416-26.34 18.9122-26.3264 18.7985-26.2711C18.5309-26.1763 18.272-26.0544 18.0007-25.9729C16.8673-25.6319 15.7194-25.3713 14.558-25.8132C13.9444-26.0467 13.3668-25.7409 12.7677-25.7891C11.0908-25.924 9.6011-26.6082 8.22-27.4735C6.82871-28.3452 6.56468-29.4038 7.21899-30.955C7.4275-31.4049 7.53676-31.8944 7.53935-32.3902C7.54194-32.886 7.43779-33.3766 7.23399-33.8286C6.69049-35.1001 6.23551-36.4095 5.74664-37.7041C5.33518-38.8115 5.32356-40.0279 5.7138-41.1429C6.16777-42.5623 6.6486-43.9804 6.97348-45.4313C7.17887-46.3486 7.1296-47.3245 7.17816-48.2749C7.23209-49.3305 7.67527-50.1742 8.688-50.5132C10.5467-51.1354 11.8576-52.4825 13.2474-53.742C14.2692-54.6681 15.5303-55.1641 16.788-55.6529C19.5429-56.7235 22.164-57.9855 24.4416-59.9494C26.0587-61.3438 28.1739-61.6087 30.2306-61.8286C31.1429-61.9261 32.0517-62.1071 32.9799-62.0967ZM24.3884-30.372C27.4264-31.1459 28.8761-33.387 30.1099-35.846C30.2545-36.1342 30.3951-36.4109 30.209-36.7451C29.4685-38.0748 29.841-39.2819 30.6732-40.4039C31.1715-41.0757 31.0003-41.5645 30.51-42.1849C29.2567-43.7709 27.5815-43.5713 25.9367-43.3293C24.7204-43.1503 23.4482-42.8817 22.7269-41.698C21.6436-39.9205 22.1031-37.2293 23.6757-35.8901C23.9452-35.6605 24.2232-35.44 24.4827-35.1995C25.229-34.5076 25.4918-33.7231 25.0867-32.7167C24.7868-31.9716 24.6212-31.1725 24.3884-30.372L24.3884-30.372Z"/>
  </g>
 </g>
</svg>
